<svg width="609" height="664" viewBox="0 0 609 664" fill="none" xmlns="http://www.w3.org/2000/svg">
<path d="M297.106 663.272C373.143 663.272 449.179 646.524 507.194 613.03C556.716 584.438 585.103 548.255 592.352 510.97L580.987 517.46C580.282 517.916 579.448 518.155 578.52 518.155C577.351 518.155 576.032 517.775 574.642 516.971L279.364 346.496C281.731 351.72 283.048 357.52 283.048 363.628V424.771L283.223 424.872L283.048 424.974V430.79C283.048 440.451 279.752 449.342 274.224 456.399L274.203 464.148C274.152 481.839 265.236 492.068 252.316 492.068C247.002 492.068 241.007 490.336 234.674 486.68C212.95 474.138 195.328 443.62 195.399 418.651L195.468 394.18L195.536 394.219C195.139 393.355 194.92 392.28 194.92 391.019C194.92 387.151 196.986 382.648 199.911 379.594V363.628C199.911 346.307 210.506 331.459 225.568 325.214C174.803 332.455 126.694 347.531 87.0217 370.435C-29.0063 437.426 -29.0063 546.04 87.0164 613.03C145.032 646.524 221.07 663.272 297.106 663.272ZM583.375 511.996C583.375 511.994 583.375 511.991 583.375 511.99C583.375 511.992 583.375 511.994 583.375 511.996ZM583.375 511.966C583.375 511.954 583.375 511.942 583.375 511.93V445.708V511.93C583.375 511.942 583.375 511.954 583.375 511.966ZM251.216 488.796C253.75 488.796 256.116 488.376 258.276 487.558C256.116 488.376 253.75 488.796 251.216 488.796C246.239 488.796 240.623 487.171 234.682 483.743C240.623 487.172 246.239 488.796 251.216 488.796ZM258.284 487.555C258.302 487.548 258.32 487.542 258.339 487.534C258.32 487.542 258.302 487.548 258.284 487.555ZM258.356 487.527C258.366 487.524 258.375 487.52 258.383 487.518C258.375 487.52 258.366 487.524 258.356 487.527ZM258.426 487.5C258.431 487.499 258.438 487.496 258.443 487.494C258.438 487.496 258.432 487.498 258.426 487.5ZM258.487 487.476C258.49 487.476 258.491 487.475 258.494 487.474C258.491 487.475 258.49 487.476 258.487 487.476ZM258.548 487.452C258.551 487.451 258.552 487.451 258.555 487.45C258.552 487.451 258.551 487.451 258.548 487.452ZM260.171 483.594C261.854 483.594 263.464 483.407 264.99 483.043C269.164 478.587 271.624 471.662 271.65 462.675L271.659 459.376C264.083 467.371 253.363 472.358 241.479 472.358C239.014 472.358 236.598 472.143 234.251 471.732C237.246 474.367 240.391 476.666 243.635 478.539C249.576 481.968 255.192 483.594 260.171 483.594Z" fill="url(#paint0_linear_11_252)"/>
<path d="M206.503 13.2403C206.503 7.69501 210.432 5.42563 215.234 8.19897L574.646 215.699C579.447 218.471 583.378 225.278 583.378 230.822L583.375 511.93C583.374 517.474 579.444 519.744 574.642 516.971L215.231 309.471C210.428 306.7 206.499 299.894 206.499 294.348L206.503 13.2403Z" fill="#EEF5F9"/>
<path d="M583.375 487.255V438.135L365.57 312.388C361.332 309.94 357.862 303.932 357.862 299.032V132.86C357.866 129.382 359.616 127.363 362.151 127.363C363.184 127.363 364.347 127.698 365.575 128.407L583.376 254.154L583.378 234.166L206.503 16.5869V46.811L206.499 269.674L583.375 487.255ZM211.39 37.5696C212.423 37.5696 213.586 37.9056 214.814 38.6149L310.006 94.3696C314.248 96.8149 317.719 102.828 317.719 107.724L317.716 273.898C317.716 277.378 315.967 279.396 313.432 279.396C312.399 279.396 311.235 279.06 310.006 278.352L214.811 222.596C210.571 220.148 207.103 214.14 207.103 209.24V43.0683C207.104 39.5897 208.855 37.5696 211.39 37.5696Z" fill="url(#paint1_linear_11_252)"/>
<path d="M583.375 511.93L583.378 230.822C583.378 225.278 579.447 218.471 574.646 215.699L215.234 8.19901C212.858 6.82568 210.695 6.69366 209.116 7.57764V7.57367L221.224 0.656311C222.816 -0.334351 225.05 -0.238342 227.511 1.18298L586.923 208.683C591.724 211.455 595.654 218.262 595.654 223.808L595.651 504.916C595.651 507.788 594.595 509.783 592.91 510.651L580.968 517.471L580.966 517.46C582.452 516.512 583.374 514.61 583.375 511.93Z" fill="#95C4DF"/>
<path d="M262.679 455.679L329.671 425.556C344.656 418.276 355.322 406.455 361.887 394.146L436.742 437.363C430.308 459.162 413.942 474.63 413.942 474.63C413.942 474.63 372.831 506.495 362.008 513.747C351.186 521.003 339.627 514.854 339.627 514.854L262.648 468.619C262.648 468.619 258.351 466.555 257.362 463.372L257.138 462.34C256.663 458.288 262.679 455.679 262.679 455.679Z" fill="#EEF5F9"/>
<path d="M262.648 468.619L339.627 514.854C339.627 514.854 351.186 521.003 362.008 513.747C372.831 506.495 413.942 474.63 413.942 474.63C413.942 474.63 430.308 459.162 436.742 437.363L443.203 441.092C438.89 455.619 429.163 469.722 412.891 481.395C366.624 514.586 361.692 517.286 361.692 517.286C361.692 517.286 353.804 524.222 339.45 517.286C325.095 510.348 262.183 471.455 262.183 471.455C262.183 471.455 256.962 468.624 256.962 465.894L257.16 461.872C256.962 465.894 262.648 468.619 262.648 468.619Z" fill="#95C4DF"/>
<path d="M361.887 394.146L436.742 437.363C432.743 450.908 424.912 462.007 419.554 468.471L337.506 421.098C348.44 413.906 356.531 404.19 361.887 394.146Z" fill="#A9D0E5"/>
<path d="M595.651 437.298C595.682 436.994 595.698 436.675 595.698 436.343L595.7 270.171C595.7 269.836 595.684 269.499 595.652 269.156L595.651 437.298Z" fill="#B5BCDD"/>
<path d="M583.375 438.135L583.376 264.37L583.375 438.135Z" fill="#A9B4D8"/>
<path d="M583.375 438.135L583.376 264.37V254.154L365.575 128.407C364.347 127.698 363.184 127.363 362.151 127.363C359.616 127.363 357.866 129.382 357.862 132.86V299.032C357.862 303.932 361.332 309.94 365.57 312.388L583.375 438.135Z" fill="url(#paint2_linear_11_252)"/>
<path d="M591.414 441.843C593.706 441.843 595.358 440.191 595.651 437.298L595.652 269.156C595.224 264.472 591.942 259.095 587.988 256.815L583.376 254.154V264.37L583.375 438.135L587.988 440.798C589.216 441.507 590.38 441.843 591.414 441.843Z" fill="#6A90C1"/>
<path d="M334.447 312.906C334.447 317.806 337.916 323.814 342.156 326.262L564.571 454.672C568.814 457.119 572.282 455.116 572.282 450.218L572.284 284.044C572.284 279.148 568.815 273.135 564.571 270.69L342.159 142.28C337.919 139.832 334.45 141.838 334.447 146.734V312.906Z" fill="#EEF5F9"/>
<path d="M342.159 142.28L564.571 270.69C568.815 273.135 572.284 279.148 572.284 284.044V290.548L334.447 153.238V146.734C334.45 141.838 337.919 139.832 342.159 142.28Z" fill="#2580D3"/>
<path d="M341.154 149.7C341.154 147.686 342.567 146.87 344.31 147.875C346.051 148.882 347.466 151.331 347.466 153.342C347.466 155.356 346.051 156.172 344.31 155.167C342.567 154.162 341.154 151.714 341.154 149.7Z" fill="#EEF5F9"/>
<path d="M351.9 155.906C351.9 153.894 353.315 153.078 355.059 154.082C356.802 155.088 358.214 157.536 358.214 159.55C358.214 161.563 356.802 162.379 355.059 161.374C353.315 160.367 351.9 157.919 351.9 155.906Z" fill="#EEF5F9"/>
<path d="M362.651 162.111C362.651 160.099 364.064 159.282 365.807 160.288C367.55 161.296 368.963 163.742 368.963 165.756C368.963 167.77 367.551 168.586 365.807 167.579C364.064 166.572 362.651 164.124 362.651 162.111Z" fill="#EEF5F9"/>
<path d="M269.031 514.102C253.815 505.314 229.142 505.316 213.927 514.102C206.319 518.498 202.515 524.255 202.516 530.012V534.562C202.516 540.318 206.319 546.075 213.927 550.468C229.142 559.252 253.815 559.252 269.031 550.466C276.638 546.075 280.442 540.318 280.442 534.562V530.012C280.442 524.255 276.638 518.498 269.031 514.102Z" fill="url(#paint3_linear_11_252)"/>
<path d="M269.031 514.102C284.244 522.888 284.246 537.132 269.031 545.919C253.815 554.703 229.142 554.703 213.927 545.919C198.711 537.132 198.711 522.888 213.927 514.102C229.142 505.316 253.815 505.314 269.031 514.102Z" fill="url(#paint4_linear_11_252)"/>
<path d="M244.296 483.612C242.742 482.716 240.223 482.716 238.668 483.612C237.891 484.063 237.502 484.651 237.502 485.238V529.987C237.502 530.575 237.891 531.164 238.668 531.612C240.223 532.51 242.742 532.51 244.296 531.612C245.075 531.164 245.463 530.575 245.463 529.987V485.238C245.463 484.651 245.075 484.063 244.296 483.612Z" fill="url(#paint5_linear_11_252)"/>
<path d="M252.316 492.068C265.236 492.068 274.152 481.839 274.203 464.148L274.224 456.399C273.415 457.432 272.56 458.424 271.659 459.376L271.65 462.675C271.624 471.662 269.164 478.587 264.99 483.043C266.728 482.627 268.356 481.978 269.855 481.107C266.871 482.842 263.887 484.576 260.903 486.31C260.152 486.746 259.368 487.126 258.555 487.45C258.552 487.451 258.551 487.451 258.548 487.452C258.53 487.459 258.512 487.467 258.494 487.474C258.491 487.475 258.49 487.476 258.487 487.476C258.472 487.483 258.458 487.488 258.443 487.494C258.438 487.496 258.431 487.499 258.426 487.5C258.412 487.506 258.398 487.511 258.383 487.518C258.375 487.52 258.366 487.524 258.356 487.527C258.351 487.53 258.344 487.532 258.339 487.534C258.32 487.542 258.302 487.548 258.284 487.555C258.282 487.556 258.279 487.556 258.276 487.558C256.116 488.376 253.75 488.796 251.216 488.796C246.239 488.796 240.623 487.172 234.682 483.743C224.519 477.874 215.331 467.832 208.687 456.339C204.304 450.722 201.334 443.951 200.308 436.556C198.787 431.036 197.956 425.524 197.956 420.267C197.956 420.22 197.956 420.175 197.956 420.13L198.023 396.51C197.767 396.427 197.515 396.331 197.283 396.199C196.543 395.779 195.946 395.111 195.536 394.219L195.468 394.18L195.399 418.651C195.328 443.62 212.95 474.138 234.674 486.68C241.007 490.336 247.002 492.068 252.316 492.068Z" fill="url(#paint6_linear_11_252)"/>
<path d="M208.519 376.63L205.171 374.674C203.727 373.851 201.743 373.978 199.55 375.244C195.143 377.787 191.571 383.975 191.571 389.062C191.571 391.622 192.475 393.416 193.936 394.243L197.283 396.199C198.727 397.015 200.708 396.89 202.898 395.626C207.304 393.082 210.875 386.895 210.875 381.807C210.875 379.252 209.976 377.459 208.519 376.63Z" fill="url(#paint7_linear_11_252)"/>
<path d="M243.635 478.539C223.286 466.79 206.843 438.311 206.91 414.926L206.974 391.968C209.307 389.014 210.875 385.172 210.875 381.807C210.875 379.251 209.976 377.459 208.519 376.63C207.079 375.81 205.091 375.934 202.898 377.2C198.494 379.744 194.92 385.931 194.92 391.019C194.92 393.579 195.826 395.372 197.283 396.199C197.515 396.331 197.767 396.427 198.023 396.51L197.956 420.13C197.89 443.512 214.332 471.991 234.682 483.743C244.924 489.654 254.202 490.203 260.903 486.31C263.887 484.576 266.871 482.842 269.855 481.107C263.155 485 253.878 484.451 243.635 478.539Z" fill="#0A22CC"/>
<path d="M271.718 428.6L280.671 423.399L283.223 424.872L274.272 430.074L271.718 428.6Z" fill="#517E2D"/>
<path d="M241.479 472.358C253.363 472.358 264.083 467.371 271.659 459.376C272.56 458.424 273.415 457.432 274.224 456.399C279.752 449.342 283.048 440.451 283.048 430.79V424.974V424.771V363.628C283.048 357.52 281.731 351.72 279.364 346.496C272.838 332.086 258.328 322.06 241.479 322.06C240.098 322.06 238.73 322.127 237.383 322.259C233.235 322.664 229.267 323.68 225.568 325.214C210.506 331.459 199.911 346.307 199.911 363.628V379.594V418.107C201.879 422.014 205.516 425.699 210.852 428.779C219.31 433.662 230.395 436.103 241.48 436.103C252.564 436.103 263.65 433.662 272.107 428.779C277.431 425.704 281.076 422.031 283.048 418.132V421.843C281.076 425.74 277.431 429.416 272.107 432.488C263.65 437.371 252.564 439.812 241.48 439.812C230.395 439.812 219.31 437.371 210.852 432.488C205.522 429.412 201.88 425.73 199.911 421.826V430.79C199.911 432.746 200.047 434.672 200.308 436.556C201.334 443.951 204.304 450.722 208.687 456.339C214.887 464.286 223.91 469.919 234.251 471.732C236.598 472.143 239.014 472.358 241.479 472.358Z" fill="url(#paint8_linear_11_252)"/>
<path d="M206.343 381.027C202.326 377.01 200.094 372.772 200.082 368.378C200.074 365.89 200.066 364.22 200.059 363.166C200.615 367.087 202.771 371.007 206.71 374.359C208.546 375.919 209.098 377.964 208.974 379.308C208.852 380.652 207.948 382.632 206.343 381.027Z" fill="#000450"/>
<path d="M219.756 381.632C217.744 380.968 216.684 382.114 216.684 384.072C216.684 386.03 218.059 388.159 219.755 388.723C235.454 394.284 256.366 393.302 270.283 385.54C278.791 380.796 283.066 374.466 283.048 368.135L282.88 360.986C282.895 367.316 278.623 373.648 270.114 378.392C256.27 386.114 235.424 387.096 219.756 381.632Z" fill="#000450"/>
<path d="M206.343 395.616C202.326 391.599 200.094 387.362 200.082 382.967C200.074 380.479 200.066 378.81 200.059 377.755C200.615 381.675 202.771 385.598 206.71 388.948C208.546 390.508 209.098 392.554 208.974 393.898C208.852 395.242 207.948 397.222 206.343 395.616Z" fill="#000450"/>
<path d="M219.756 396.223C217.744 395.558 216.684 396.703 216.684 398.662C216.684 400.618 218.059 402.75 219.755 403.312C235.454 408.875 256.366 407.892 270.283 400.131C278.791 395.387 283.066 389.055 283.048 382.726L282.88 375.576C282.895 381.907 278.623 388.238 270.114 392.98C256.27 400.702 235.424 401.686 219.756 396.223Z" fill="#000450"/>
<path d="M206.343 410.206C202.326 406.19 200.094 401.95 200.082 397.558C200.074 395.067 200.066 393.399 200.059 392.343C200.615 396.266 202.771 400.188 206.71 403.538C208.546 405.098 209.098 407.144 208.974 408.487C208.852 409.832 207.948 411.811 206.343 410.206Z" fill="#000450"/>
<path d="M219.756 410.811C217.744 410.146 216.684 411.294 216.684 413.251C216.684 415.207 218.059 417.338 219.755 417.902C235.454 423.464 256.366 422.48 270.283 414.72C278.791 409.978 283.066 403.644 283.048 397.314L282.88 390.166C282.895 396.495 278.623 402.828 270.114 407.571C256.27 415.292 235.424 416.276 219.756 410.811Z" fill="#000450"/>
<path d="M245.374 439.842V439.708H247.24V439.575H248.84V439.442H250.174V439.308H251.107V439.175H252.04V439.042H252.974V438.908H253.907V438.775H254.574V438.642H255.24V438.508H255.907V438.375H256.574V438.242H257.24V438.108H257.907V437.975H258.307V437.842H258.84V437.708H259.374V437.575H259.907V437.442H260.307V437.308H260.84V437.175H261.374V437.042H261.774V436.908H262.174V436.775H262.574V436.642H262.974V436.508H263.374V436.375H263.774V436.242H264.174V436.108H264.574V435.975H264.974V435.842H265.374V435.708H265.64V435.575H265.907V435.442H266.307V435.308H266.574V435.175H266.974V435.042H267.24V434.908H267.507V434.775H267.907V434.642H268.174V434.508H268.44V434.375H268.84V434.242H269.107V434.108H269.374V433.975H269.64V433.842H269.907V433.708H270.174V433.575H270.44V433.442H270.707V433.308H270.974V433.175H271.24V433.042H271.507V432.908H271.64V432.775H271.907V432.642H272.174V432.508H272.307V432.375H272.574V432.242H272.84V432.108H273.107V431.975H273.24V431.842H273.507V431.708H273.64V431.575H273.907V431.442H274.04V431.308H274.307V431.175H274.44V431.042H274.574V430.908H274.84V430.775H274.974V430.642H275.24V430.508H275.374V430.375H275.64V430.242H275.774V430.108H275.907V429.975H276.174V429.842H276.307V429.708H276.44V429.575H276.574V429.442H276.707V429.308H276.974V429.175H277.107V429.042H277.24V428.908H277.374V428.775H277.507V428.642H277.64V428.508H277.907V428.375H278.04V428.242H278.174V428.108H278.307V427.975H278.44V427.842H278.574V427.708H278.84V427.575H278.974V427.442H279.107V427.175H279.24V427.042H279.374V426.908H279.507V426.775H279.64V426.642H279.774V426.508H279.907V426.375H280.04V426.108H280.174V425.975H280.307V425.842H280.44V425.708H280.574V425.575H280.707V425.442H280.84V425.308H280.974V425.042H281.107V424.908H281.24V424.775H281.374V424.642H281.507V424.375H281.64V424.242H281.774V423.975H281.907V423.842H282.04V423.575H282.174V423.442H282.307V423.175H282.44V423.042H282.574V422.775H282.707V422.642H282.84V422.375H282.974V422.108H283.107V418.108H282.974V418.242H282.84V418.508H282.707V418.775H282.574V418.908H282.44V419.175H282.307V419.308H282.174V419.575H282.04V419.708H281.907V419.975H281.774V420.108H281.64V420.375H281.507V420.508H281.374V420.775H281.24V420.908H281.107V421.175H280.974V421.308H280.84V421.442H280.707V421.575H280.574V421.708H280.44V421.842H280.307V421.975H280.174V422.108H280.04V422.375H279.907V422.508H279.774V422.642H279.64V422.775H279.507V422.908H279.374V423.042H279.24V423.175H279.107V423.442H278.974V423.575H278.84V423.708H278.707V423.842H278.574V423.975H278.307V424.108H278.174V424.242H278.04V424.375H277.907V424.508H277.774V424.642H277.64V424.775H277.374V424.908H277.24V425.042H277.107V425.175H276.974V425.308H276.84V425.442H276.707V425.575H276.44V425.708H276.307V425.842H276.174V425.975H276.04V426.108H275.907V426.242H275.774V426.375H275.507V426.508H275.374V426.642H275.107V426.775H274.974V426.908H274.707V427.042H274.574V427.175H274.307V427.308H274.174V427.442H273.907V427.575H273.774V427.708H273.507V427.842H273.374V427.975H273.107V428.108H272.974V428.242H272.707V428.375H272.574V428.508H272.307V428.642H272.04V428.775H271.774V428.908H271.64V429.042H271.374V429.175H271.107V429.308H270.84V429.442H270.574V429.575H270.307V429.708H270.04V429.842H269.774V429.975H269.507V430.108H269.24V430.242H268.974V430.375H268.707V430.508H268.44V430.642H268.04V430.775H267.774V430.908H267.507V431.042H267.107V431.175H266.84V431.308H266.574V431.442H266.174V431.575H265.907V431.708H265.64V431.842H265.24V431.975H264.84V432.108H264.44V432.242H264.04V432.375H263.774V432.508H263.374V432.642H262.974V432.775H262.574V432.908H262.174V433.042H261.774V433.175H261.374V433.308H260.84V433.442H260.307V433.575H259.774V433.708H259.374V433.842H258.84V433.975H258.307V434.108H257.774V434.242H257.24V434.375H256.574V434.508H255.907V434.642H255.24V434.775H254.574V434.908H253.907V435.042H252.974V435.175H252.04V435.308H251.107V435.442H250.174V435.575H248.974V435.708H247.374V435.842H245.774V435.975H237.24V435.842H235.64V435.708H234.04V435.575H232.707V435.442H231.774V435.308H230.84V435.175H229.907V435.042H229.107V434.908H228.44V434.775H227.774V434.642H227.107V434.508H226.44V434.375H225.774V434.242H225.107V434.108H224.574V433.975H224.174V433.842H223.64V433.708H223.107V433.575H222.707V433.442H222.174V433.308H221.64V433.175H221.24V433.042H220.84V432.908H220.44V432.775H220.04V432.642H219.64V432.508H219.24V432.375H218.84V432.242H218.44V432.108H218.04V431.975H217.64V431.842H217.374V431.708H217.107V431.575H216.707V431.442H216.44V431.308H216.174V431.175H215.774V431.042H215.507V430.908H215.24V430.775H214.84V430.642H214.574V430.508H214.174V430.375H213.907V430.242H213.64V430.108H213.374V429.975H213.24V429.842H212.974V429.708H212.707V429.575H212.44V429.442H212.174V429.308H211.907V429.175H211.64V429.042H211.374V428.908H211.107V428.775H210.974V428.642H210.707V428.508H210.44V428.375H210.174V428.242H210.04V428.108H209.774V427.975H209.64V427.842H209.374V427.708H209.24V427.575H208.974V427.442H208.84V427.308H208.574V427.175H208.44V427.042H208.174V426.908H208.04V426.775H207.774V426.642H207.64V426.508H207.507V426.375H207.24V426.242H207.107V426.108H206.974V425.975H206.84V425.842H206.574V425.708H206.44V425.575H206.307V425.442H206.174V425.308H206.04V425.175H205.907V425.042H205.64V424.908H205.507V424.775H205.374V424.642H205.24V424.508H205.107V424.375H204.974V424.242H204.707V424.108H204.574V423.975H204.44V423.842H204.307V423.708H204.174V423.575H204.04V423.442H203.907V423.308H203.774V423.175H203.64V423.042H203.507V422.775H203.374V422.642H203.24V422.508H203.107V422.375H202.974V422.242H202.84V422.108H202.707V421.975H202.574V421.708H202.44V421.575H202.307V421.442H202.174V421.308H202.04V421.175H201.907V421.042H201.774V420.775H201.64V420.642H201.507V420.375H201.374V420.242H201.24V419.975H201.107V419.842H200.974V419.575H200.84V419.442H200.707V419.175H200.574V419.042H200.44V418.775H200.307V418.508H200.174V418.242H200.04V417.975H199.907V422.108H200.04V422.375H200.174V422.642H200.307V422.908H200.44V423.042H200.574V423.308H200.707V423.442H200.84V423.708H200.974V423.842H201.107V424.108H201.24V424.242H201.374V424.508H201.507V424.642H201.64V424.908H201.774V425.042H201.907V425.175H202.04V425.308H202.174V425.442H202.307V425.575H202.44V425.708H202.574V425.975H202.707V426.108H202.84V426.242H202.974V426.375H203.107V426.508H203.24V426.642H203.374V426.775H203.507V427.042H203.64V427.175H203.774V427.308H203.907V427.442H204.04V427.575H204.174V427.708H204.307V427.842H204.44V427.975H204.707V428.108H204.84V428.242H204.974V428.375H205.107V428.508H205.24V428.642H205.374V428.775H205.64V428.908H205.774V429.042H205.907V429.175H206.04V429.308H206.174V429.442H206.307V429.575H206.574V429.708H206.707V429.842H206.84V429.975H206.974V430.108H207.107V430.242H207.374V430.375H207.507V430.508H207.774V430.642H207.907V430.775H208.174V430.908H208.307V431.042H208.574V431.175H208.707V431.308H208.974V431.442H209.107V431.575H209.24V431.708H209.507V431.842H209.64V431.975H209.907V432.108H210.174V432.242H210.307V432.375H210.574V432.508H210.84V432.642H211.107V432.775H211.24V432.908H211.507V433.042H211.774V433.175H212.04V433.308H212.307V433.442H212.574V433.575H212.84V433.708H213.107V433.842H213.374V433.975H213.64V434.108H213.907V434.242H214.174V434.375H214.44V434.508H214.84V434.642H215.107V434.775H215.374V434.908H215.774V435.042H216.04V435.175H216.307V435.308H216.707V435.442H216.974V435.575H217.24V435.708H217.64V435.842H218.04V435.975H218.44V436.108H218.84V436.242H219.24V436.375H219.64V436.508H219.907V436.642H220.307V436.775H220.707V436.908H221.107V437.042H221.64V437.175H222.04V437.308H222.574V437.442H223.107V437.575H223.64V437.708H224.04V437.842H224.574V437.975H225.107V438.108H225.774V438.242H226.44V438.375H227.107V438.508H227.774V438.642H228.44V438.775H229.107V438.908H229.907V439.042H230.974V439.175H231.907V439.308H232.84V439.442H234.174V439.575H235.774V439.708H237.507V439.842" fill="url(#paint9_linear_11_252)"/>
<path d="M245.374 439.842V439.708H247.24V439.575H248.84V439.442H250.174V439.308H251.107V439.175H252.04V439.042H252.974V438.908H253.907V438.775H254.574V438.642H255.24V438.508H255.907V438.375H256.574V438.242H257.24V438.108H257.907V437.975H258.307V437.842H258.84V437.708H259.374V437.575H259.907V437.442H260.307V437.308H260.84V437.175H261.374V437.042H261.774V436.908H262.174V436.775H262.574V436.642H262.974V436.508H263.374V436.375H263.774V436.242H264.174V436.108H264.574V435.975H264.974V435.842H265.374V435.708H265.64V435.575H265.907V435.442H266.307V435.308H266.574V435.175H266.974V435.042H267.24V434.908H267.507V434.775H267.907V434.642H268.174V434.508H268.44V434.375H268.84V434.242H269.107V434.108H269.374V433.975H269.64V433.842H269.907V433.708H270.174V433.575H270.44V433.442H270.707V433.308H270.974V433.175H271.24V433.042H271.507V432.908H271.64V432.775H271.907V432.642H272.174V432.508H272.307V432.375H272.574V432.242H272.84V432.108H273.107V431.975H273.24V431.842H273.507V431.708H273.64V431.575H273.907V431.442H274.04V431.308H274.307V431.175H274.44V431.042H274.574V430.908H274.84V430.775H274.974V430.642H275.24V430.508H275.374V430.375H275.64V430.242H275.774V430.108H275.907V429.975H276.174V429.842H276.307V429.708H276.44V429.575H276.574V429.442H276.707V429.308H276.974V429.175H277.107V429.042H277.24V428.908H277.374V428.775H277.507V428.642H277.64V428.508H277.907V428.375H278.04V428.242H278.174V428.108H278.307V427.975H278.44V427.842H278.574V427.708H278.84V427.575H278.974V427.442H279.107V427.175H279.24V427.042H279.374V426.908H279.507V426.775H279.64V426.642H279.774V426.508H279.907V426.375H280.04V426.108H280.174V425.975H280.307V425.842H280.44V425.708H280.574V425.575H280.707V425.442H280.84V425.308H280.974V425.042H281.107V424.908H281.24V424.775H281.374V424.642H281.507V424.375H281.64V424.242H281.774V423.975H281.907V423.842H282.04V423.575H282.174V423.442H282.307V423.175H282.44V423.042H282.574V422.775H282.707V422.642H282.84V422.375H282.974V422.108H283.107V418.108H282.974V418.242H282.84V418.508H282.707V418.775H282.574V418.908H282.44V419.175H282.307V419.308H282.174V419.575H282.04V419.708H281.907V419.975H281.774V420.108H281.64V420.375H281.507V420.508H281.374V420.775H281.24V420.908H281.107V421.175H280.974V421.308H280.84V421.442H280.707V421.575H280.574V421.708H280.44V421.842H280.307V421.975H280.174V422.108H280.04V422.375H279.907V422.508H279.774V422.642H279.64V422.775H279.507V422.908H279.374V423.042H279.24V423.175H279.107V423.442H278.974V423.575H278.84V423.708H278.707V423.842H278.574V423.975H278.307V424.108H278.174V424.242H278.04V424.375H277.907V424.508H277.774V424.642H277.64V424.775H277.374V424.908H277.24V425.042H277.107V425.175H276.974V425.308H276.84V425.442H276.707V425.575H276.44V425.708H276.307V425.842H276.174V425.975H276.04V426.108H275.907V426.242H275.774V426.375H275.507V426.508H275.374V426.642H275.107V426.775H274.974V426.908H274.707V427.042H274.574V427.175H274.307V427.308H274.174V427.442H273.907V427.575H273.774V427.708H273.507V427.842H273.374V427.975H273.107V428.108H272.974V428.242H272.707V428.375H272.574V428.508H272.307V428.642H272.04V428.775H271.774V428.908H271.64V429.042H271.374V429.175H271.107V429.308H270.84V429.442H270.574V429.575H270.307V429.708H270.04V429.842H269.774V429.975H269.507V430.108H269.24V430.242H268.974V430.375H268.707V430.508H268.44V430.642H268.04V430.775H267.774V430.908H267.507V431.042H267.107V431.175H266.84V431.308H266.574V431.442H266.174V431.575H265.907V431.708H265.64V431.842H265.24V431.975H264.84V432.108H264.44V432.242H264.04V432.375H263.774V432.508H263.374V432.642H262.974V432.775H262.574V432.908H262.174V433.042H261.774V433.175H261.374V433.308H260.84V433.442H260.307V433.575H259.774V433.708H259.374V433.842H258.84V433.975H258.307V434.108H257.774V434.242H257.24V434.375H256.574V434.508H255.907V434.642H255.24V434.775H254.574V434.908H253.907V435.042H252.974V435.175H252.04V435.308H251.107V435.442H250.174V435.575H248.974V435.708H247.374V435.842H245.774V435.975H237.24V435.842H235.64V435.708H234.04V435.575H232.707V435.442H231.774V435.308H230.84V435.175H229.907V435.042H229.107V434.908H228.44V434.775H227.774V434.642H227.107V434.508H226.44V434.375H225.774V434.242H225.107V434.108H224.574V433.975H224.174V433.842H223.64V433.708H223.107V433.575H222.707V433.442H222.174V433.308H221.64V433.175H221.24V433.042H220.84V432.908H220.44V432.775H220.04V432.642H219.64V432.508H219.24V432.375H218.84V432.242H218.44V432.108H218.04V431.975H217.64V431.842H217.374V431.708H217.107V431.575H216.707V431.442H216.44V431.308H216.174V431.175H215.774V431.042H215.507V430.908H215.24V430.775H214.84V430.642H214.574V430.508H214.174V430.375H213.907V430.242H213.64V430.108H213.374V429.975H213.24V429.842H212.974V429.708H212.707V429.575H212.44V429.442H212.174V429.308H211.907V429.175H211.64V429.042H211.374V428.908H211.107V428.775H210.974V428.642H210.707V428.508H210.44V428.375H210.174V428.242H210.04V428.108H209.774V427.975H209.64V427.842H209.374V427.708H209.24V427.575H208.974V427.442H208.84V427.308H208.574V427.175H208.44V427.042H208.174V426.908H208.04V426.775H207.774V426.642H207.64V426.508H207.507V426.375H207.24V426.242H207.107V426.108H206.974V425.975H206.84V425.842H206.574V425.708H206.44V425.575H206.307V425.442H206.174V425.308H206.04V425.175H205.907V425.042H205.64V424.908H205.507V424.775H205.374V424.642H205.24V424.508H205.107V424.375H204.974V424.242H204.707V424.108H204.574V423.975H204.44V423.842H204.307V423.708H204.174V423.575H204.04V423.442H203.907V423.308H203.774V423.175H203.64V423.042H203.507V422.775H203.374V422.642H203.24V422.508H203.107V422.375H202.974V422.242H202.84V422.108H202.707V421.975H202.574V421.708H202.44V421.575H202.307V421.442H202.174V421.308H202.04V421.175H201.907V421.042H201.774V420.775H201.64V420.642H201.507V420.375H201.374V420.242H201.24V419.975H201.107V419.842H200.974V419.575H200.84V419.442H200.707V419.175H200.574V419.042H200.44V418.775H200.307V418.508H200.174V418.242H200.04V417.975H199.907V422.108H200.04V422.375H200.174V422.642H200.307V422.908H200.44V423.042H200.574V423.308H200.707V423.442H200.84V423.708H200.974V423.842H201.107V424.108H201.24V424.242H201.374V424.508H201.507V424.642H201.64V424.908H201.774V425.042H201.907V425.175H202.04V425.308H202.174V425.442H202.307V425.575H202.44V425.708H202.574V425.975H202.707V426.108H202.84V426.242H202.974V426.375H203.107V426.508H203.24V426.642H203.374V426.775H203.507V427.042H203.64V427.175H203.774V427.308H203.907V427.442H204.04V427.575H204.174V427.708H204.307V427.842H204.44V427.975H204.707V428.108H204.84V428.242H204.974V428.375H205.107V428.508H205.24V428.642H205.374V428.775H205.64V428.908H205.774V429.042H205.907V429.175H206.04V429.308H206.174V429.442H206.307V429.575H206.574V429.708H206.707V429.842H206.84V429.975H206.974V430.108H207.107V430.242H207.374V430.375H207.507V430.508H207.774V430.642H207.907V430.775H208.174V430.908H208.307V431.042H208.574V431.175H208.707V431.308H208.974V431.442H209.107V431.575H209.24V431.708H209.507V431.842H209.64V431.975H209.907V432.108H210.174V432.242H210.307V432.375H210.574V432.508H210.84V432.642H211.107V432.775H211.24V432.908H211.507V433.042H211.774V433.175H212.04V433.308H212.307V433.442H212.574V433.575H212.84V433.708H213.107V433.842H213.374V433.975H213.64V434.108H213.907V434.242H214.174V434.375H214.44V434.508H214.84V434.642H215.107V434.775H215.374V434.908H215.774V435.042H216.04V435.175H216.307V435.308H216.707V435.442H216.974V435.575H217.24V435.708H217.64V435.842H218.04V435.975H218.44V436.108H218.84V436.242H219.24V436.375H219.64V436.508H219.907V436.642H220.307V436.775H220.707V436.908H221.107V437.042H221.64V437.175H222.04V437.308H222.574V437.442H223.107V437.575H223.64V437.708H224.04V437.842H224.574V437.975H225.107V438.108H225.774V438.242H226.44V438.375H227.107V438.508H227.774V438.642H228.44V438.775H229.107V438.908H229.907V439.042H230.974V439.175H231.907V439.308H232.84V439.442H234.174V439.575H235.774V439.708H237.507V439.842" fill="url(#paint10_linear_11_252)"/>
<path d="M284.783 406.243C284.68 412.563 280.46 418.867 272.107 423.69C255.192 433.456 227.768 433.456 210.852 423.69C202.775 419.024 198.563 412.978 198.203 406.867L198.192 406.875L198.172 413.247C198.367 419.498 202.592 425.714 210.852 430.48C227.768 440.247 255.192 440.247 272.107 430.48C280.564 425.598 284.792 419.198 284.792 412.798V406.243H284.783Z" fill="url(#paint11_linear_11_252)"/>
<path d="M283.048 398.968V407.015L282.699 408.48C281.756 413.767 277.779 418.906 270.764 422.955C254.552 432.315 228.266 432.315 212.052 422.955C204.392 418.531 200.355 412.808 199.936 407.015H199.911V406.41C199.903 406.142 199.903 405.871 199.911 405.603V398.971C195.616 407.456 199.262 416.998 210.852 423.69C227.768 433.456 255.192 433.456 272.107 423.69C283.699 416.998 287.342 407.455 283.048 398.968Z" fill="#258CF0"/>
<path d="M271.65 462.675C271.598 480.951 261.479 490.703 247.347 488.484V491.579C262.891 494.468 274.146 484.027 274.203 464.148L274.272 439.676L271.718 438.203L271.65 462.675Z" fill="url(#paint12_linear_11_252)"/>
<path d="M284.5 420.578L281.154 418.622C279.712 417.8 277.723 417.926 275.534 419.192C271.127 421.735 267.554 427.922 267.554 433.011C267.554 435.57 268.458 437.364 269.919 438.191L273.267 440.148C274.708 440.963 276.692 440.838 278.882 439.574C283.287 437.031 286.859 430.843 286.859 425.755C286.859 423.2 285.958 421.407 284.5 420.578Z" fill="url(#paint13_linear_11_252)"/>
<path d="M286.859 425.755C286.859 423.2 285.958 421.407 284.5 420.578C283.06 419.758 281.072 419.883 278.882 421.148C274.474 423.692 270.902 429.879 270.902 434.967C270.902 437.527 271.807 439.32 273.267 440.148C273.575 440.322 273.912 440.446 274.27 440.531L274.203 464.148C274.166 476.554 269.774 485.29 262.695 489.402C265.678 487.67 268.663 485.934 271.647 484.2C278.726 480.087 283.118 471.351 283.155 458.947L283.22 435.579C285.408 432.674 286.859 428.994 286.859 425.755Z" fill="#083ED7"/>
<path d="M283.155 427.892C283.155 430.618 281.242 433.934 278.882 435.298C277.707 435.975 276.644 436.043 275.872 435.604C275.091 435.162 274.606 434.2 274.606 432.83C274.606 430.103 276.52 426.787 278.882 425.423C280.052 424.746 281.119 424.679 281.892 425.119C282.674 425.563 283.155 426.523 283.155 427.892Z" fill="#000450"/>
<path d="M555.462 379.283L557.068 380.21V369.751L555.462 368.823V379.283Z" fill="#4387DF"/>
<path d="M552.923 377.816L554.531 378.744V368.286L552.924 367.359L552.923 377.816Z" fill="#4387DF"/>
<path d="M550.386 376.351L551.994 377.28V366.82L550.386 365.894V376.351Z" fill="#4387DF"/>
<path d="M547.848 384.546L549.455 385.474V355.696L547.848 354.768V384.546Z" fill="#4387DF"/>
<path d="M545.311 383.08L546.916 384.008L546.918 354.231L545.311 353.304V383.08Z" fill="#4387DF"/>
<path d="M542.772 381.615L544.379 382.543V352.764L542.772 351.839V381.615Z" fill="#4387DF"/>
<path d="M540.232 386.839L541.842 387.768V344.614L540.232 343.684V386.839Z" fill="#4387DF"/>
<path d="M537.696 385.375L539.303 386.303V343.147L537.696 342.22V385.375Z" fill="#4387DF"/>
<path d="M535.158 398.594L536.767 399.523V326.995L535.158 326.066V398.594Z" fill="#4387DF"/>
<path d="M532.618 388.399L534.227 389.328L534.228 334.262L532.62 333.334L532.618 388.399Z" fill="#4387DF"/>
<path d="M530.083 376.61L531.69 377.536V343.12L530.083 342.192V376.61Z" fill="#4387DF"/>
<path d="M527.544 369.374L529.152 370.302V347.426L527.544 346.496V369.374Z" fill="#4387DF"/>
<path d="M525.003 365.423L526.612 366.352V348.448L525.003 347.519V365.423Z" fill="#4387DF"/>
<path d="M522.467 363.959L524.078 364.89L524.076 346.984L522.467 346.056V363.959Z" fill="#4387DF"/>
<path d="M519.928 362.494L521.535 363.422L521.536 345.518L519.93 344.59L519.928 362.494Z" fill="#4387DF"/>
<path d="M517.391 361.03L519 361.958V344.054L517.39 343.124L517.391 361.03Z" fill="#4387DF"/>
<path d="M514.852 367.524L516.464 368.455V334.623L514.854 333.695L514.852 367.524Z" fill="#4387DF"/>
<path d="M512.316 366.06L513.926 366.988V333.159L512.316 332.23V366.06Z" fill="#4387DF"/>
<path d="M509.776 368.783L511.384 369.714L511.386 327.496L509.776 326.567V368.783Z" fill="#4387DF"/>
<path d="M507.238 367.318L508.848 368.248L508.85 326.031L507.238 325.102V367.318Z" fill="#4387DF"/>
<path d="M504.7 379.023L506.308 379.952L506.311 311.399L504.702 310.471L504.7 379.023Z" fill="#4387DF"/>
<path d="M502.163 377.559L503.772 378.487V309.934L502.163 309.004V377.559Z" fill="#4387DF"/>
<path d="M499.623 381.483L501.232 382.412V303.076L499.623 302.147V381.483Z" fill="#4387DF"/>
<path d="M497.087 358.7L498.696 359.63V322.932L497.087 322.004V358.7Z" fill="#4387DF"/>
<path d="M494.551 357.235L496.158 358.163V321.466L494.551 320.536V357.235Z" fill="#4387DF"/>
<path d="M492.011 352.54L493.618 353.468V323.227L492.011 322.299V352.54Z" fill="#4387DF"/>
<path d="M489.475 351.076L491.082 352.004V321.763L489.475 320.835V351.076Z" fill="#4387DF"/>
<path d="M486.936 344.287L488.543 345.216V325.619L486.936 324.692V344.287Z" fill="#4387DF"/>
<path d="M484.4 342.824L486.006 343.751V324.155L484.4 323.228V342.824Z" fill="#4387DF"/>
<path d="M481.862 350.326L483.468 351.255V313.723L481.862 312.794V350.326Z" fill="#4387DF"/>
<path d="M479.323 348.862L480.93 349.79L480.932 312.256L479.323 311.33V348.862Z" fill="#4387DF"/>
<path d="M476.786 347.396L478.39 348.322V310.791L476.786 309.864V347.396Z" fill="#4387DF"/>
<path d="M474.247 351.28L475.854 352.207V303.975L474.247 303.047V351.28Z" fill="#4387DF"/>
<path d="M471.708 349.814L473.315 350.743L473.318 302.51L471.708 301.58V349.814Z" fill="#4387DF"/>
<path d="M469.168 357.646L470.775 358.572V291.751L469.171 290.824L469.168 357.646Z" fill="#4387DF"/>
<path d="M466.632 356.18L468.239 357.11L468.242 290.287L466.632 289.359V356.18Z" fill="#4387DF"/>
<path d="M464.094 354.715L465.703 355.643V288.822L464.094 287.894V354.715Z" fill="#4387DF"/>
<path d="M461.556 344.483L463.163 345.411V296.119L461.559 295.191L461.556 344.483Z" fill="#4387DF"/>
<path d="M459.018 343.016L460.622 343.944L460.624 294.652L459.018 293.726V343.016Z" fill="#4387DF"/>
<path d="M456.482 331.395L458.086 332.322L458.088 303.35L456.482 302.422V331.395Z" fill="#4387DF"/>
<path d="M453.94 329.928L455.55 330.858V301.886L453.94 300.955V329.928Z" fill="#4387DF"/>
<path d="M451.403 323.752L453.01 324.679V305.127L451.403 304.199V323.752Z" fill="#4387DF"/>
<path d="M448.867 322.287L450.476 323.215V303.664L448.864 302.734L448.867 322.287Z" fill="#4387DF"/>
<path d="M446.328 316.275L447.938 317.203V306.744L446.328 305.815V316.275Z" fill="#4387DF"/>
<path d="M443.788 314.81L445.4 315.74V305.282L443.788 304.351V314.81Z" fill="#4387DF"/>
<path d="M441.252 313.344L442.859 314.274V303.814L441.252 302.887V313.344Z" fill="#4387DF"/>
<path d="M438.714 311.879L440.323 312.808V302.35L438.716 301.422L438.714 311.879Z" fill="#4387DF"/>
<path d="M436.176 315.487L437.786 316.415V295.815L436.174 294.886L436.176 315.487Z" fill="#4387DF"/>
<path d="M433.638 314.022L435.247 314.951V294.35L433.638 293.422V314.022Z" fill="#4387DF"/>
<path d="M431.102 316.138L432.708 317.066L432.711 289.302L431.102 288.372V316.138Z" fill="#4387DF"/>
<path d="M428.562 314.672L430.171 315.602L430.174 287.839L428.562 286.908V314.672Z" fill="#4387DF"/>
<path d="M426.023 318.163L427.63 319.091V281.411L426.023 280.482V318.163Z" fill="#4387DF"/>
<path d="M423.484 316.696L425.094 317.626V279.946L423.484 279.016V316.696Z" fill="#4387DF"/>
<path d="M420.947 315.231L422.556 316.162V278.482L420.947 277.552V315.231Z" fill="#4387DF"/>
<path d="M418.408 327.171L420.015 328.099V263.614L418.408 262.684V327.171Z" fill="#4387DF"/>
<path d="M415.87 325.706L417.479 326.635V262.148L415.872 261.22L415.87 325.706Z" fill="#4387DF"/>
<path d="M413.332 324.24L414.942 325.17V260.683L413.335 259.755L413.332 324.24Z" fill="#4387DF"/>
<path d="M410.796 338.539L412.403 339.468L412.406 243.452L410.796 242.526V338.539Z" fill="#4387DF"/>
<path d="M408.26 337.075L409.864 338.003V241.987L408.26 241.06V337.075Z" fill="#4387DF"/>
<path d="M405.72 326.306L407.328 327.232V249.834L405.723 248.906L405.72 326.306Z" fill="#4387DF"/>
<path d="M403.182 324.839L404.788 325.767V248.367L403.182 247.439V324.839Z" fill="#4387DF"/>
<path d="M400.646 342.098L402.252 343.026V228.178L400.646 227.25V342.098Z" fill="#4387DF"/>
<path d="M398.107 326.227L399.714 327.152L399.716 241.112L398.108 240.184L398.107 326.227Z" fill="#4387DF"/>
<path d="M395.567 324.759L397.176 325.688V239.647L395.567 238.718V324.759Z" fill="#4387DF"/>
<path d="M393.031 323.295L394.638 324.223V238.18L393.031 237.254V323.295Z" fill="#4387DF"/>
<path d="M390.492 312.236L392.102 313.166V246.311L390.495 245.382L390.492 312.236Z" fill="#4387DF"/>
<path d="M387.955 310.771L389.562 311.699V244.844L387.955 243.918V310.771Z" fill="#4387DF"/>
<path d="M385.419 298.564L387.023 299.492L387.026 254.122L385.419 253.195V298.564Z" fill="#4387DF"/>
<path d="M382.88 297.1L384.487 298.027V252.658L382.88 251.728V297.1Z" fill="#4387DF"/>
<path d="M380.34 295.635L381.947 296.562V251.191L380.34 250.264V295.635Z" fill="#4387DF"/>
<path d="M377.804 285.947L379.411 286.874V257.948L377.804 257.02V285.947Z" fill="#4387DF"/>
<path d="M375.266 284.48L376.875 285.41V256.483L375.266 255.555V284.48Z" fill="#4387DF"/>
<path d="M372.726 278.107L374.335 279.035V259.927L372.726 258.999V278.107Z" fill="#4387DF"/>
<path d="M370.19 276.643L371.796 277.57V258.463L370.19 257.535V276.643Z" fill="#4387DF"/>
<path d="M367.648 270.851L369.26 271.782V261.323L367.648 260.394V270.851Z" fill="#4387DF"/>
<path d="M365.111 269.386L366.72 270.315V259.858L365.111 258.928V269.386Z" fill="#4387DF"/>
<path d="M362.572 274.46L364.184 275.391V251.855L362.572 250.924V274.46Z" fill="#4387DF"/>
<path d="M360.036 272.996L361.646 273.926L361.648 250.391L360.036 249.46V272.996Z" fill="#4387DF"/>
<path d="M357.496 297.391L359.107 298.319L359.108 223.064L357.499 222.135L357.496 297.391Z" fill="#4387DF"/>
<path d="M354.958 289.964L356.57 290.894V227.556L354.96 226.628L354.958 289.964Z" fill="#4387DF"/>
<path d="M352.424 280.308L354.031 281.236V234.283L352.424 233.355V280.308Z" fill="#4387DF"/>
<path d="M349.883 270.603L351.495 271.534V241.056L349.883 240.126V270.603Z" fill="#4387DF"/>
<path d="M347.346 259.13L348.955 260.059V249.6L347.346 248.671V259.13Z" fill="#4387DF"/>
<path d="M344.81 257.666L346.419 258.594V248.135L344.81 247.207V257.666Z" fill="#4387DF"/>
<path d="M342.271 256.199L343.88 257.128V246.67L342.271 245.74V256.199Z" fill="#4387DF"/>
<path d="M313.432 279.396C315.967 279.396 317.716 277.378 317.716 273.898L317.719 107.724C317.719 102.828 314.248 96.8149 310.006 94.3696L214.814 38.6149C213.586 37.9055 212.423 37.5696 211.39 37.5696C208.855 37.5696 207.104 39.5896 207.103 43.0683V209.24C207.103 214.14 210.571 220.148 214.811 222.596L310.006 278.352C311.235 279.06 312.399 279.396 313.432 279.396Z" fill="url(#paint14_linear_11_252)"/>
<path d="M183.686 223.114C183.686 228.014 187.155 234.022 191.394 236.47L286.59 292.226C290.831 294.674 294.3 292.671 294.3 287.771L294.303 121.598C294.303 116.702 290.832 110.69 286.59 108.243L191.396 52.4883C187.158 50.0403 183.688 52.0443 183.686 56.9417V223.114Z" fill="#EEF5F9"/>
<path d="M191.396 52.4883L286.59 108.243C290.832 110.69 294.303 116.702 294.303 121.598V128.103L183.686 63.4455V56.9416C183.688 52.0443 187.158 50.0403 191.396 52.4883Z" fill="#2580D3"/>
<path d="M190.391 59.907C190.391 57.8937 191.806 57.0777 193.548 58.083C195.29 59.0897 196.704 61.5377 196.704 63.5497C196.704 65.5643 195.29 66.3803 193.548 65.375C191.806 64.3683 190.391 61.9204 190.391 59.907Z" fill="#EEF5F9"/>
<path d="M201.139 66.1137C201.139 64.1004 202.552 63.2843 204.298 64.2897C206.04 65.2963 207.451 67.7443 207.451 69.7563C207.451 71.771 206.04 72.587 204.298 71.5817C202.552 70.575 201.139 68.127 201.139 66.1137Z" fill="#EEF5F9"/>
<path d="M211.888 72.3189C211.888 70.3069 213.303 69.4883 215.046 70.4963C216.787 71.5043 218.202 73.9496 218.202 75.9643C218.202 77.9776 216.79 78.7923 215.046 77.7869C213.303 76.7803 211.888 74.3323 211.888 72.3189Z" fill="#EEF5F9"/>
<path d="M195.302 96.507L264.668 136.052L264.67 132.422L195.302 92.875V96.507Z" fill="#4387DF"/>
<path d="M195.302 104.922L283.127 155.124L283.128 151.494L195.302 101.291V104.922Z" fill="#4387DF"/>
<path d="M195.302 113.336L283.127 163.539V159.908L195.302 109.706V113.336Z" fill="#4387DF"/>
<path d="M195.302 121.752L283.127 171.955V168.323L195.302 118.12V121.752Z" fill="#4387DF"/>
<path d="M195.302 130.167L283.127 180.368V176.739L195.302 126.536V130.167Z" fill="#4387DF"/>
<path d="M241.102 165.024L283.127 188.784V185.154L241.102 161.394V165.024Z" fill="#4387DF"/>
<path d="M195.302 146.996L264.668 186.543V182.912L195.302 143.366V146.996Z" fill="#4387DF"/>
<path d="M195.302 155.412L283.127 205.615V201.983L195.302 151.782V155.412Z" fill="#4387DF"/>
<path d="M195.302 163.828L283.127 214.031L283.126 210.399L195.302 160.198V163.828Z" fill="#4387DF"/>
<path d="M195.302 172.243L283.127 222.446V218.815L195.302 168.612V172.243Z" fill="#4387DF"/>
<path d="M195.302 180.658L283.127 230.86V227.23L195.302 177.027V180.658Z" fill="#4387DF"/>
<path d="M195.302 189.074L283.127 239.276V235.644L195.302 185.442V189.074Z" fill="#4387DF"/>
<path d="M202.975 201.416L283.126 247.691L283.127 244.06L202.975 197.784V201.416Z" fill="#4387DF"/>
<path d="M498.554 85.2163C498.554 91.9323 503.311 100.174 509.13 103.532L546.968 125.378C552.784 128.735 557.543 125.988 557.543 119.272L557.544 75.5789C557.543 68.8629 552.786 60.6229 546.968 57.2629L509.13 35.4176C503.312 32.0602 498.554 34.8056 498.554 41.5229V85.2163Z" fill="url(#paint15_linear_11_252)"/>
<path d="M557.543 119.272L557.544 75.5789C557.543 68.8629 552.786 60.6229 546.968 57.2629L509.13 35.4176C506.57 33.9402 504.219 33.6469 502.384 34.3496V34.3482L508.763 30.4403C510.691 29.219 513.408 29.3269 516.408 31.0576L554.248 52.9029C560.066 56.2629 564.822 64.5042 564.826 71.2202L564.822 114.914C564.822 118.358 563.571 120.756 561.568 121.824L554.568 126.015V126.011C556.404 124.87 557.543 122.548 557.543 119.272Z" fill="url(#paint16_linear_11_252)"/>
<path d="M118.911 62.535C118.911 67.223 122.23 72.9736 126.29 75.3163L152.694 90.5603C156.751 92.903 160.072 90.9869 160.072 86.3003V55.8109C160.072 51.1243 156.754 45.375 152.694 43.0296L126.29 27.7869C122.23 25.4429 118.911 27.3603 118.911 32.0469V62.535Z" fill="url(#paint17_linear_11_252)"/>
<path d="M160.072 86.3002V55.8109C160.072 51.1242 156.754 45.3749 152.694 43.0296L126.29 27.7869C124.504 26.7562 122.863 26.5509 121.584 27.0416V27.0403L126.034 24.3136C127.38 23.4603 129.275 23.5362 131.368 24.7456L157.774 39.9883C161.834 42.3323 165.152 48.0829 165.154 52.7696L165.152 83.2576C165.152 85.6616 164.279 87.3349 162.882 88.0816L157.998 91.0043V91.0016C159.276 90.2056 160.072 88.5856 160.072 86.3002Z" fill="url(#paint18_linear_11_252)"/>
<path d="M309.135 72.8029C309.135 79.5202 313.891 87.7616 319.711 91.1189L357.55 112.964C363.366 116.323 368.123 113.575 368.123 106.859L368.124 63.1669C368.123 56.4509 363.367 48.2095 357.55 44.8509L319.711 23.0056C313.892 19.6469 309.135 22.3936 309.135 29.1109V72.8029Z" fill="url(#paint19_linear_11_252)"/>
<path d="M368.123 106.859L368.124 63.1669C368.123 56.4509 363.367 48.2095 357.55 44.8509L319.711 23.0056C317.151 21.5269 314.8 21.2336 312.966 21.9376V21.9362L319.343 18.0269C321.272 16.8056 323.99 16.9149 326.99 18.6455L364.83 40.4909C370.647 43.8496 375.402 52.0909 375.406 58.8082L375.402 102.5C375.402 105.944 374.152 108.343 372.15 109.412L365.15 113.603V113.598C366.986 112.458 368.123 110.136 368.123 106.859Z" fill="url(#paint20_linear_11_252)"/>
<path d="M105.087 576.955C105.087 576.955 115.552 575.278 119.39 576.555C123.226 577.834 124.824 582.228 122.827 586.863C120.828 591.5 116.672 593.975 114.834 594.134C112.998 594.294 107.084 596.451 105.964 598.051C104.846 599.647 100.212 605.883 95.3365 606.442C90.4631 607 86.3871 604.044 86.4671 601.089C86.4925 600.151 86.8631 598.428 87.3578 596.51C88.4231 592.378 87.3497 585.716 87.3497 585.716L105.087 576.955Z" fill="#097ABE"/>
<path d="M105.964 598.051C104.846 599.647 100.212 605.883 95.3364 606.442C90.463 607 86.387 604.044 86.467 601.089C86.4884 600.346 86.7243 599.107 87.0683 597.672C87.695 598.71 88.959 599.995 91.5004 600.608C96.1364 601.727 96.535 602.766 100.212 600.608C103.887 598.45 105.566 594.855 108.282 594.055C110.55 593.388 120.051 591.882 123.643 583.732C123.548 584.742 123.287 585.792 122.827 586.863C120.828 591.5 116.672 593.975 114.834 594.134C112.998 594.294 107.084 596.451 105.964 598.051Z" fill="#EEEEEE"/>
<path d="M165.142 583.987C165.142 583.987 171.612 584.626 174.251 584.546C176.887 584.466 185.996 585.267 187.835 588.383C189.672 591.5 190.552 596.132 186.158 599.889C181.763 603.643 175.29 605.163 172.014 604.923C168.736 604.683 163.782 606.361 160.906 607.479C158.028 608.599 147.32 611.396 144.284 610.835C141.247 610.277 141.962 602.04 142.324 597.448C142.687 592.856 165.142 583.987 165.142 583.987Z" fill="#097ABE"/>
<path d="M172.014 604.923C168.736 604.683 163.782 606.361 160.906 607.479C158.028 608.599 147.32 611.396 144.284 610.835C142.772 610.558 142.19 608.372 142.032 605.679C143.363 605.834 145.256 606.059 147 606.283C150.118 606.68 155.391 606.043 159.467 604.283C163.543 602.527 166.898 602.527 171.694 602.527C176 602.527 184.498 601.942 189.31 592.843C189.495 595.171 188.742 597.68 186.158 599.889C181.763 603.643 175.29 605.163 172.014 604.923Z" fill="#EEEEEE"/>
<path d="M177.108 456.967C177.108 456.967 180.33 457.476 181.852 458.239C183.378 459.002 184.731 462.474 184.731 462.474C184.731 462.474 189.475 468.572 189.898 470.011C190.323 471.451 189.898 476.111 189.898 476.111L188.627 479.075C188.627 479.075 185.62 482.082 184.987 482.718C184.351 483.352 182.954 485.003 182.36 485.342C181.768 485.682 177.448 485.851 177.108 485.851C176.77 485.851 173.806 485.596 173.383 485.851C172.959 486.104 170.758 485.004 171.096 484.58C171.435 484.156 173.298 481.362 173.298 480.852C173.298 480.344 167.623 472.891 169.063 465.692C170.502 458.492 177.108 456.967 177.108 456.967Z" fill="#FFCDA8"/>
<path d="M173.298 480.852L173.29 480.82C174.334 480.912 175.196 481.084 175.162 481.192C175.076 481.446 179.456 480.344 179.456 480.344C179.456 480.344 185.579 476.872 185.579 476.111C185.579 475.347 187.527 473.907 188.544 472.807C189.054 472.254 189.159 470.331 189.082 468.49C189.499 469.147 189.804 469.694 189.898 470.011C190.323 471.451 189.898 476.111 189.898 476.111L188.627 479.075C188.627 479.075 185.62 482.082 184.987 482.718C184.351 483.352 182.954 485.003 182.36 485.342C181.768 485.682 177.448 485.851 177.108 485.851C176.77 485.851 173.806 485.596 173.383 485.851C172.959 486.104 170.758 485.004 171.096 484.58C171.435 484.156 173.298 481.362 173.298 480.852Z" fill="#D9A782"/>
<path d="M124.371 468.49C124.371 468.49 122.735 488.482 121.518 497.56C120.302 506.639 113.759 516.715 111.99 522.914C110.216 529.115 108.112 553.475 108.334 562.663C108.555 571.851 111.103 578.828 111.103 578.828C111.103 578.828 112.986 587.463 104.682 592.003C96.3777 596.542 87.2284 592.843 87.2284 592.843C87.2284 592.843 85.743 552.74 85.7857 540.959C85.8243 530.748 88.6271 525.46 90.6204 519.04C92.6124 512.618 92.2817 499.111 92.2817 489.036C92.2817 478.96 91.2857 461.799 91.2857 461.799C91.2857 461.799 88.1577 446.272 89.1684 441.747C90.179 437.22 115.754 442.867 115.754 442.867L124.371 468.49Z" fill="#003C5F"/>
<path d="M154.334 453.982C154.334 453.982 158.718 469.92 160.355 484.464C161.991 499.01 158.172 516.282 158.172 524.644C158.172 533.007 159.928 565.874 162.364 573.955C164.799 582.039 167.014 585.139 167.014 585.139C167.014 585.139 164.467 599.863 142.324 598.426C142.324 598.426 138.448 572.85 137.452 567.312C136.456 561.779 132.359 549.044 133.356 537.528C134.352 526.014 135.128 515.607 133.799 511.178C132.471 506.751 122.063 475.639 122.063 475.639C122.063 475.639 108.446 464.651 108.334 453.982H154.334Z" fill="#0F5578"/>
<path d="M154.334 453.982C154.334 453.982 158.718 469.92 160.355 484.464C161.991 499.01 158.172 516.282 158.172 524.644C158.172 533.007 159.928 565.874 162.364 573.955C164.799 582.039 167.014 585.139 167.014 585.139C167.014 585.139 166 590.967 159.74 594.93C154.855 578.652 152.475 547.55 152.372 543.918C152.255 539.652 148.979 532.879 148.979 528.864C148.979 524.852 150.735 504.282 150.735 484.714C150.735 465.146 141.203 456.967 141.203 456.967L139.958 453.982H154.334Z" fill="#003C5F"/>
<path d="M96.619 331.699C96.619 331.699 93.4204 334.507 103.926 337.142C114.434 339.776 124.559 339.47 124.559 339.47C124.559 339.47 136.311 348.894 140.136 353.95C143.962 359.006 146.284 384.147 146.15 391.116C146.012 398.086 148.199 434.159 148.746 435.39C149.292 436.618 155.167 456.842 155.167 456.842C155.167 456.842 143.963 464.494 127.292 463.675C110.622 462.855 86.983 446.054 86.8457 444.07C86.7097 442.086 89.3071 428.147 90.1257 423.639C90.9457 419.128 92.7217 403.143 91.2177 399.451C89.7164 395.763 75.095 366.931 73.0443 357.092C70.9963 347.255 71.4044 337.963 80.6977 334.683C89.9884 331.403 96.619 331.699 96.619 331.699Z" fill="#B61678"/>
<path d="M131.248 374.063C131.248 374.063 138.188 382.894 146.155 393.067C146.322 403.131 148.238 434.25 148.746 435.39C149.292 436.618 155.167 456.842 155.167 456.842C155.167 456.842 148.507 461.386 137.82 463.094C137.347 457.72 136.404 448.818 135.031 444.07C132.979 436.972 125.731 414.68 124.5 404.286C123.27 393.894 131.248 374.063 131.248 374.063Z" fill="#900052"/>
<path d="M123.415 337.144C122.946 335.674 122.279 326.788 123.948 325.252C125.62 323.715 129.762 323.715 131.298 320.375C132.835 317.034 134.638 310.487 134.707 308.95C134.774 307.414 133.036 304.675 134.239 302.27C135.442 299.866 134.638 294.587 133.235 291.046C131.834 287.504 129.095 280.623 118.872 280.09C108.651 279.554 99.8311 282.627 95.8898 290.311C91.9484 297.995 92.2151 304.006 94.2844 309.887C96.3578 315.764 99.5644 320.24 99.6978 323.448C99.8311 326.655 97.6924 331.198 95.0204 333.335C95.0204 333.335 94.6204 337.611 104.24 341.219C113.862 344.826 125.42 341.219 125.42 341.219L123.415 337.144Z" fill="#FFCDA8"/>
<path d="M131.248 320.467C129.499 320.724 127.504 320.582 126.236 319.146C126.02 319.814 125.723 320.242 125.32 320.242C124.076 320.242 123.275 316.423 123.403 313.503C121.45 310.443 119.116 308.631 119.116 308.631L113.272 312.12C113.272 312.12 116.772 330.536 113.855 342.82C120.199 342.846 125.42 341.219 125.42 341.219L123.415 337.144C122.946 335.674 122.279 326.788 123.948 325.252C125.604 323.73 129.676 323.711 131.248 320.467Z" fill="#D9A782"/>
<path d="M125.107 278.22C118.872 275.68 105.242 274.744 97.9604 282.227C90.6777 289.71 89.6978 302.144 94.8671 311.426L94.875 311.442C96.9004 316.531 99.543 320.483 99.691 323.396C100.662 323.94 102.084 324.468 104.172 324.784C109.92 325.652 113.995 324.784 116.602 322.112C119.206 319.439 120.142 312.824 122.079 310.954C124.016 309.084 127.29 309.962 128.159 309.956C129.026 309.952 129.627 308.416 129.695 307.815C129.76 307.214 129.292 302.27 130.428 300.732C131.564 299.196 131.966 296.924 131.698 295.991C131.432 295.055 131.23 293.719 131.23 292.048C131.23 291.236 131.562 289.556 131.903 288.044C131.903 288.044 133.183 287.174 133.27 285.435C133.406 282.766 131.342 280.758 125.107 278.22Z" fill="#563317"/>
<path d="M94.2844 309.887C96.3457 315.735 99.527 320.192 99.691 323.396C100.662 323.94 102.084 324.468 104.172 324.784C109.92 325.652 113.995 324.784 116.602 322.112C119.206 319.439 120.142 312.824 122.079 310.954C124.016 309.084 127.29 309.962 128.159 309.956C129.026 309.952 129.627 308.416 129.695 307.815C129.748 307.33 129.456 304.022 129.936 301.952C126.824 303.626 117.19 308.418 107.295 309.366C101.575 309.912 97.3217 309.45 93.8737 308.616C94.0004 309.04 94.1364 309.463 94.2844 309.887Z" fill="#634024"/>
<path d="M178.496 457.216C178.496 457.216 178.115 466.127 166.551 467.55C166.551 467.55 145.507 441.291 141.051 435.034C136.596 428.778 129.771 407.259 128.064 399.959C126.358 392.662 125.599 373.795 126.927 368.678C128.255 363.559 134.904 347.046 139.77 352.099C147.418 360.05 149.774 367.919 150.816 380.432C151.858 392.944 152.712 401.571 153.943 407.732C155.175 413.894 158.304 423.563 158.304 423.563L178.496 457.216Z" fill="#B61678"/>
<path d="M100.768 337.83C105.954 339.848 108.946 340.404 114.723 340.824C120.499 341.243 127.448 339.79 131.428 346.21C133.295 349.227 122.466 373.064 94.6884 366.806C80.9204 363.703 79.8178 350.57 82.4404 343.503C85.1058 336.308 94.9311 333.4 96.3164 334.786C99.0644 337.534 99.4311 337.31 100.768 337.83Z" fill="#900052"/>
<path d="M100.768 334.44C105.954 336.459 108.946 337.015 114.723 337.435C120.499 337.854 127.448 336.4 131.428 342.82C133.295 345.838 122.466 369.675 94.6884 363.416C80.9204 360.314 79.8178 347.182 82.4404 340.112C85.1058 332.918 94.9311 330.01 96.3164 331.396C99.0644 334.144 99.4311 333.92 100.768 334.44Z" fill="#B61678"/>
<path d="M124.371 343.579C124.371 343.579 116.212 355.127 99.9857 352.738C83.7617 350.348 90.6284 335.815 90.6284 335.815C90.6284 335.815 86.5897 348.7 100.086 351.148C110.066 352.962 124.371 343.579 124.371 343.579Z" fill="#900052"/>
<path d="M558.095 213.3C558.095 218.426 561.724 224.714 566.163 227.278L595.035 243.946C599.472 246.508 603.103 244.412 603.103 239.287L603.104 205.948C603.103 200.823 599.474 194.535 595.035 191.972L566.163 175.303C561.724 172.74 558.095 174.836 558.095 179.962V213.3Z" fill="url(#paint21_linear_11_252)"/>
<path d="M603.103 239.287L603.104 205.948C603.103 200.823 599.474 194.535 595.035 191.972L566.163 175.303C564.212 174.176 562.415 173.951 561.016 174.488L565.882 171.506C567.355 170.572 569.428 170.655 571.718 171.976L600.59 188.646C605.028 191.208 608.658 197.496 608.66 202.622L608.658 235.962C608.658 238.588 607.703 240.42 606.175 241.235L600.836 244.432V244.428C602.235 243.559 603.103 241.787 603.103 239.287Z" fill="url(#paint22_linear_11_252)"/>
<path d="M144.398 132.54L30.9711 198.024C24.5631 201.726 19.3217 210.804 19.3217 218.204V273.57C19.3217 280.968 24.5631 283.998 30.9711 280.298L51.3364 268.54V298.559L76.6137 253.946L144.398 214.812C150.806 211.114 156.048 202.034 156.048 194.634V139.267C156.048 131.868 150.806 128.84 144.398 132.54Z" fill="url(#paint23_linear_11_252)"/>
<path d="M19.3217 273.57V218.204C19.3217 210.804 24.5631 201.726 30.9711 198.024L144.398 132.54C147.499 130.75 150.322 130.548 152.414 131.642L152.42 131.639L144.638 126.956C142.523 125.719 139.596 125.88 136.379 127.738L22.9497 193.222C16.5444 196.922 11.3017 206.003 11.3017 213.4V268.766C11.3017 272.612 12.7164 275.275 14.9764 276.43L22.6537 281.039V281.034C20.5977 279.792 19.3217 277.215 19.3217 273.57Z" fill="url(#paint24_linear_11_252)"/>
<path d="M51.3364 268.54L43.315 273.17V293.755L51.3364 298.239V268.54Z" fill="url(#paint25_linear_11_252)"/>
<path d="M84.3817 218.619C84.383 222.44 81.6991 227.088 78.3897 228.999C75.0791 230.91 72.399 229.359 72.399 225.539C72.399 221.719 75.0791 217.07 78.3897 215.159C81.6991 213.25 84.3817 214.8 84.3817 218.619Z" fill="white"/>
<path d="M106.846 205.65C106.846 209.471 104.163 214.116 100.855 216.027C97.5471 217.938 94.8631 216.388 94.8631 212.567C94.8604 208.748 97.5457 204.102 100.855 202.192C104.163 200.282 106.846 201.828 106.846 205.65Z" fill="white"/>
<path d="M129.312 192.679C129.312 196.499 126.63 201.148 123.32 203.058C120.01 204.968 117.328 203.419 117.328 199.598C117.327 195.778 120.01 191.132 123.32 189.22C126.63 187.31 129.312 188.86 129.312 192.679Z" fill="white"/>
<defs>
<linearGradient id="paint0_linear_11_252" x1="594.215" y1="491.732" x2="0.000380904" y2="491.732" gradientUnits="userSpaceOnUse">
<stop stop-color="white"/>
<stop offset="1" stop-color="#F5F5F5"/>
</linearGradient>
<linearGradient id="paint1_linear_11_252" x1="394.939" y1="401.367" x2="394.939" y2="6.01359" gradientUnits="userSpaceOnUse">
<stop stop-color="#2580D3"/>
<stop offset="1" stop-color="#0A208F"/>
</linearGradient>
<linearGradient id="paint2_linear_11_252" x1="394.939" y1="401.367" x2="394.939" y2="6.01365" gradientUnits="userSpaceOnUse">
<stop stop-color="#1A5EB7"/>
<stop offset="1" stop-color="#07187C"/>
</linearGradient>
<linearGradient id="paint3_linear_11_252" x1="202.516" y1="532.284" x2="280.442" y2="532.284" gradientUnits="userSpaceOnUse">
<stop stop-color="#009DFF"/>
<stop offset="1" stop-color="#0A20CB"/>
</linearGradient>
<linearGradient id="paint4_linear_11_252" x1="308.082" y1="510.643" x2="-114.694" y2="633.579" gradientUnits="userSpaceOnUse">
<stop stop-color="#2898F4"/>
<stop offset="0.285995" stop-color="#2898F4"/>
<stop offset="1" stop-color="#0A20CC"/>
</linearGradient>
<linearGradient id="paint5_linear_11_252" x1="237.502" y1="507.614" x2="245.463" y2="507.614" gradientUnits="userSpaceOnUse">
<stop stop-color="#009DFF"/>
<stop offset="1" stop-color="#0A20CB"/>
</linearGradient>
<linearGradient id="paint6_linear_11_252" x1="239.638" y1="420.503" x2="214.648" y2="485.859" gradientUnits="userSpaceOnUse">
<stop stop-color="#009DFF"/>
<stop offset="1" stop-color="#0A20CB"/>
</linearGradient>
<linearGradient id="paint7_linear_11_252" x1="194.424" y1="403.215" x2="169.434" y2="468.571" gradientUnits="userSpaceOnUse">
<stop stop-color="#009DFF"/>
<stop offset="1" stop-color="#0A20CB"/>
</linearGradient>
<linearGradient id="paint8_linear_11_252" x1="199.911" y1="397.208" x2="283.048" y2="397.208" gradientUnits="userSpaceOnUse">
<stop stop-color="#009DFF"/>
<stop offset="1" stop-color="#0A20CB"/>
</linearGradient>
<linearGradient id="paint9_linear_11_252" x1="199.911" y1="397.208" x2="283.048" y2="397.208" gradientUnits="userSpaceOnUse">
<stop stop-color="#CCCCCC"/>
<stop offset="1" stop-color="#CCCCCC"/>
</linearGradient>
<linearGradient id="paint10_linear_11_252" x1="199.911" y1="397.208" x2="283.048" y2="397.208" gradientUnits="userSpaceOnUse">
<stop stop-color="#007ECC"/>
<stop offset="1" stop-color="#081AA2"/>
</linearGradient>
<linearGradient id="paint11_linear_11_252" x1="198.172" y1="422.024" x2="284.792" y2="422.024" gradientUnits="userSpaceOnUse">
<stop stop-color="#009DFF"/>
<stop offset="1" stop-color="#0A20CB"/>
</linearGradient>
<linearGradient id="paint12_linear_11_252" x1="277.998" y1="435.171" x2="253.008" y2="500.526" gradientUnits="userSpaceOnUse">
<stop stop-color="#009DFF"/>
<stop offset="1" stop-color="#0A20CB"/>
</linearGradient>
<linearGradient id="paint13_linear_11_252" x1="275.376" y1="434.168" x2="250.387" y2="499.523" gradientUnits="userSpaceOnUse">
<stop stop-color="#009DFF"/>
<stop offset="1" stop-color="#0A20CB"/>
</linearGradient>
<linearGradient id="paint14_linear_11_252" x1="394.939" y1="401.367" x2="394.939" y2="6.0136" gradientUnits="userSpaceOnUse">
<stop stop-color="#1A5EB7"/>
<stop offset="1" stop-color="#07187C"/>
</linearGradient>
<linearGradient id="paint15_linear_11_252" x1="532.871" y1="15.6856" x2="522.792" y2="150.93" gradientUnits="userSpaceOnUse">
<stop stop-color="#FFE71F"/>
<stop offset="1" stop-color="#FF8602"/>
</linearGradient>
<linearGradient id="paint16_linear_11_252" x1="537.971" y1="59.3656" x2="550.991" y2="85.4075" gradientUnits="userSpaceOnUse">
<stop stop-color="#FFF78C"/>
<stop offset="1" stop-color="#E76008"/>
</linearGradient>
<linearGradient id="paint17_linear_11_252" x1="140.096" y1="84.6723" x2="138.646" y2="23.5401" gradientUnits="userSpaceOnUse">
<stop stop-color="#C100FF"/>
<stop offset="1" stop-color="#6E00FF"/>
</linearGradient>
<linearGradient id="paint18_linear_11_252" x1="153.29" y1="60.0843" x2="147.28" y2="47.0291" gradientUnits="userSpaceOnUse">
<stop stop-color="#F532FF"/>
<stop offset="1" stop-color="#A232FF"/>
</linearGradient>
<linearGradient id="paint19_linear_11_252" x1="343.452" y1="3.27357" x2="333.373" y2="138.518" gradientUnits="userSpaceOnUse">
<stop stop-color="#A9FB00"/>
<stop offset="1" stop-color="#12DE13"/>
</linearGradient>
<linearGradient id="paint20_linear_11_252" x1="348.552" y1="46.9536" x2="361.572" y2="72.9954" gradientUnits="userSpaceOnUse">
<stop stop-color="#D9FF89"/>
<stop offset="1" stop-color="#25FF26"/>
</linearGradient>
<linearGradient id="paint21_linear_11_252" x1="584.279" y1="160.247" x2="576.588" y2="263.444" gradientUnits="userSpaceOnUse">
<stop stop-color="#2962FF"/>
<stop offset="1" stop-color="#29FFEE"/>
</linearGradient>
<linearGradient id="paint22_linear_11_252" x1="588.17" y1="193.576" x2="598.105" y2="213.447" gradientUnits="userSpaceOnUse">
<stop stop-color="#6D99FE"/>
<stop offset="1" stop-color="#98FFFE"/>
</linearGradient>
<linearGradient id="paint23_linear_11_252" x1="75.7724" y1="164.724" x2="110.311" y2="285.613" gradientUnits="userSpaceOnUse">
<stop stop-color="#00C855"/>
<stop offset="1" stop-color="#009EC8"/>
</linearGradient>
<linearGradient id="paint24_linear_11_252" x1="55.5017" y1="207.91" x2="38.2788" y2="233.188" gradientUnits="userSpaceOnUse">
<stop stop-color="#38F687"/>
<stop offset="1" stop-color="#76EAFF"/>
</linearGradient>
<linearGradient id="paint25_linear_11_252" x1="53.6257" y1="194.923" x2="46.1266" y2="302.979" gradientUnits="userSpaceOnUse">
<stop stop-color="#38F687"/>
<stop offset="1" stop-color="#76EAFF"/>
</linearGradient>
</defs>
</svg>
