<svg width="1036" height="986" viewBox="0 0 1036 986" fill="none" xmlns="http://www.w3.org/2000/svg">
<path d="M486.485 485.795C496.844 475.003 504.039 461.805 509.32 448.136C510.769 465.572 500.144 485.267 487.241 496.975C480.487 503.105 470.493 508.756 462.08 505.752C456.92 503.909 454.065 498.932 453.916 493.091C462.157 504.373 477.26 495.405 486.485 485.795" fill="white"/>
<mask id="path-2-inside-1_104_228" fill="white">
<path d="M226.343 506.211C222.671 527.743 220.329 549.573 220.985 571.451C221.552 590.393 224.175 608.619 228.503 627.041C221.549 591.557 221.453 556.364 226.925 520.621C232.912 481.5 245.031 443.129 260.811 406.884C293.18 332.535 342.007 263.64 404.711 211.892C435.761 186.268 470.4 166.897 508.951 155.301C474.372 164.304 442.929 179.72 414.139 200.913C381.62 224.852 353.577 253.396 328.411 284.888C302.576 317.215 280.791 353.191 263.476 390.752C246.509 427.556 233.171 466.185 226.343 506.211ZM594.615 622.657C626.131 585.505 651.655 543.704 670.937 499.009C693.983 445.593 707.428 385.969 703.88 327.617C700.585 273.423 681.053 216.928 634.564 185.117C631.021 182.693 627.256 180.621 623.552 178.457C642.596 191.769 658.376 207.953 669.697 228.397C682.945 252.323 689.952 279.4 692.697 306.481C698.452 363.247 686.831 420.884 666.696 473.851C650.064 517.603 626.867 559.016 598.64 596.323C564.24 641.787 521.209 682.725 470.405 709.3C423.383 733.895 367.993 746.348 317.196 725.816C313.427 724.292 309.804 722.416 306.144 720.651C327.457 733.148 349.98 740.368 374.812 741.303C402.655 742.352 430.187 736.311 456.019 726.195C510.088 705.02 557.295 666.652 594.615 622.657ZM608.861 675.999C602.753 680.364 596.431 684.252 589.927 687.743C602.439 684.673 614.591 680.329 626.384 674.324C648.251 663.188 666.955 647.723 683.635 629.865C668.456 650.825 650.709 669.135 629.109 683.553C623.437 687.341 617.588 690.701 611.597 693.715C623.715 691.195 635.544 687.403 647.107 682.019C669.079 671.787 687.881 656.848 704.569 639.44C689.243 660.039 671.201 677.895 649.219 691.376C643.94 694.613 638.543 697.495 633.039 700.068C643.792 698.256 654.368 695.364 664.777 691.136C688.081 681.671 707.979 666.859 725.504 649.015C709.801 669.588 691.152 687.245 668.387 699.848C663.776 702.401 659.095 704.677 654.353 706.728C665.119 705.348 675.745 702.804 686.196 698.821C709.305 690.012 729.013 675.941 746.439 658.589C730.428 679.067 711.252 696.549 687.847 708.256C683.917 710.223 679.951 711.988 675.951 713.588C686.349 712.617 696.663 710.468 706.859 706.931C730.112 698.86 749.863 685.241 767.373 668.164C750.867 688.801 730.959 706.187 706.621 717.02C703.664 718.337 700.695 719.545 697.712 720.653C707.389 720.045 717.047 718.365 726.673 715.431C750.409 708.193 770.521 694.753 788.309 677.739C771.927 697.787 752.312 714.404 728.287 724.608C725.309 725.873 722.316 727.02 719.309 728.063C728.765 727.752 738.237 726.34 747.692 723.655C771.419 716.913 791.397 704.083 809.244 687.313C792.663 707.193 773.212 722.617 749.235 732.645C745.52 734.199 741.76 735.525 737.972 736.681C777.131 732.28 814.337 708.193 836.616 670.136C865.305 621.131 861.188 560.461 827.772 521.452C787.076 495.111 752.944 459.165 726.227 424.623C716.651 472.628 698.665 521.58 671.044 568.763C647.071 609.715 618.451 645.639 587.04 675.653C593.631 673.003 600.099 669.947 606.431 666.405C627.895 654.404 646.232 638.428 662.7 620.291C647.672 641.656 630.193 660.755 608.861 675.999ZM918.493 662.472C924.755 633.817 924.625 604.928 914.735 577.019C917.572 581.455 920.229 586.047 922.516 590.945C934.575 616.775 937.492 644.12 934.455 672.207C940.716 643.552 940.587 614.663 930.696 586.752C933.533 591.189 936.191 595.781 938.477 600.68C950.537 626.509 953.455 653.856 950.417 681.943C956.679 653.287 956.549 624.397 946.659 596.487C949.496 600.924 952.153 605.516 954.44 610.415C966.5 636.244 969.416 663.591 966.38 691.677C972.641 663.021 972.511 634.132 962.62 606.221C965.457 610.659 968.115 615.251 970.403 620.151C982.463 645.979 985.379 673.325 982.341 701.412C988.604 672.756 988.473 643.867 978.581 615.956C981.42 620.393 984.077 624.985 986.365 629.885C998.424 655.716 1001.34 683.06 998.304 711.147C1004.57 682.48 1004.44 653.577 994.533 625.656C992.22 619.133 989.392 612.964 986.215 607.045C978.293 598.063 968.921 590.213 958.14 583.9L844.467 512.841C850.877 520.869 870.753 553.439 874.629 561.74C886.689 587.568 889.607 614.916 886.568 643.003C892.831 614.348 892.701 585.456 882.809 557.547C885.647 561.984 888.304 566.576 890.592 571.476C902.651 597.304 905.567 624.651 902.531 652.737C908.793 624.083 908.663 595.192 898.772 567.283C901.609 571.72 904.267 576.312 906.553 581.211C918.613 607.039 921.531 634.387 918.493 662.472ZM685.208 772.219C670.577 788.153 656.709 804.818 642.874 821.445C642.706 821.648 642.538 821.85 642.369 822.052C632.783 833.572 623.085 844.643 611.644 854.388C600.767 863.651 588.768 871.24 576.908 879.147C565.809 886.547 551.861 893.411 550.293 908.191C554.876 896.069 565.876 891.14 576.328 884.839C588.471 877.517 600.752 870.193 611.812 861.28C634.144 843.281 651.06 819.016 668.007 796.132C673.851 788.243 679.643 780.307 685.208 772.219ZM644.931 959.616C645.088 959.423 645.253 959.233 645.427 959.055L780.895 816.976L776.741 814.753L746.025 838.263L763.084 807.449L757.625 804.531L727.627 827.492L744.287 797.396L738.511 794.307L709.228 816.72L725.491 787.344L721.349 785.129L657.471 863.673C645.536 878.348 631.405 890.963 615.477 901.164L577.053 925.775C574.667 927.305 573.283 929.804 573.253 932.637C573.223 935.472 574.556 938.003 576.909 939.577L613.476 964.057C622.729 969.329 637.487 968.823 644.931 959.616ZM499.644 671.357L442.423 674.5L521.913 649.52L389.517 647.241L540.24 626.217L423.419 608.063L532.073 603.704L442.379 530.044C441.901 529.651 441.483 529.213 441.104 528.749C423.187 513.185 422.917 479.008 441.464 447.325C445.707 440.079 450.549 433.636 455.757 428.088L360.861 347.311L477.861 411.071C482.477 408.715 487.133 407.02 491.72 406.063L377.177 303.456C383.235 295.389 389.504 287.501 396.003 279.812L507.005 386.044L410.285 263.644C428.476 243.979 448.396 225.849 470.412 209.696C470.795 209.416 471.187 209.151 471.571 208.873L573.309 328.465L482.804 201.288C492.204 195.332 501.968 189.984 511.84 184.807C442.752 205.607 367.407 269.603 313.819 361.14C230.769 503.004 230.955 658.081 314.232 706.833C364.672 736.361 434.2 720.203 499.644 671.357ZM672.972 319.98C668.44 301.024 660.684 282.631 652.535 264.987C644.393 247.357 635.333 229.524 623.776 213.851C628.287 232.815 636.056 251.203 644.213 268.844C652.361 286.469 661.435 304.296 672.972 319.98ZM652.411 345.673C658.731 355.105 665.156 364.495 672.056 373.533C662.296 350.633 650.409 328.585 638.46 306.712C622.759 277.969 605.72 249.764 587.448 222.505C581.127 213.075 574.699 203.687 567.792 194.652C577.535 217.56 589.432 239.603 601.376 261.48C617.068 290.224 634.147 318.415 652.411 345.673ZM455.317 516.476C466.965 523.295 490.871 512.221 506.555 485.429C522.24 458.637 520.192 432.372 508.545 425.553C496.897 418.735 472.991 429.808 457.307 456.6C441.623 483.392 443.669 509.657 455.317 516.476ZM590.989 576.403L515.563 520.789L601.195 559.435L558.859 525.727L611.648 545.053C612.115 544.283 612.576 543.505 613.04 542.731L583.58 519.164L620.899 529.168C621.419 528.239 621.936 527.308 622.449 526.377L598.952 507.223L629.46 513.2C629.995 512.159 630.528 511.119 631.055 510.077L609.884 493.092L637.243 497.377C637.775 496.247 638.289 495.115 638.809 493.983L618.773 477.908L644.18 481.888C644.647 480.796 645.116 479.704 645.573 478.612L535.029 435.519C538.561 452.433 534.461 474.097 522.397 494.704C515.912 505.783 508.031 514.993 499.571 521.963L589.555 578.384C590.032 577.723 590.515 577.068 590.989 576.403ZM452.012 165.108C520.952 127.981 586.993 123.971 637.977 153.817C698.801 189.425 733.205 255.297 734.579 333.587C734.919 352.985 733.864 372.877 731.348 393.045C747.375 415.505 766.859 439.471 789.477 461.351C798.481 464.197 807.12 468.008 815.229 472.756C817.825 474.275 820.451 475.968 823.476 478.072L967.641 568.196C1035.34 607.829 1055.55 699.629 1012.7 772.835C969.847 846.036 879.903 873.347 812.513 833.885L797.693 825.96L658.951 971.471C646.281 986.788 622.225 990.452 603.984 979.772C603.825 979.68 603.667 979.581 603.515 979.477L566.697 954.829C562.675 952.136 559.549 948.465 557.525 944.252C556.785 943.228 556.113 942.148 555.524 941.017C541.773 914.703 541.143 911.549 540.807 909.857C538.633 899.003 543.24 888.14 552.539 882.189L588.653 859.059C604.475 848.924 618.503 836.4 630.348 821.835L678.736 762.337L664.787 754.877C660.44 752.904 656.833 751.063 653.46 749.088C645.36 744.347 637.815 738.649 630.931 732.128C597.723 723.679 563.777 720.288 533.168 719.532C521.376 727.619 509.372 734.937 497.227 741.437C422.688 781.331 360.3 785.439 291.719 745.291C240.736 715.444 211.904 655.892 210.529 577.605C209.209 502.497 233.515 418.376 278.967 340.736C324.417 263.099 385.872 200.725 452.012 165.108Z"/>
<path d="M918.493 662.472C924.755 633.817 924.625 604.928 914.735 577.019C917.572 581.455 920.229 586.047 922.516 590.945C934.575 616.775 937.492 644.12 934.455 672.207C940.716 643.552 940.587 614.663 930.696 586.752C933.533 591.189 936.191 595.781 938.477 600.68C950.537 626.509 953.455 653.856 950.417 681.943C956.679 653.287 956.549 624.397 946.659 596.487C949.496 600.924 952.153 605.516 954.44 610.415C966.5 636.244 969.416 663.591 966.38 691.677C972.641 663.021 972.511 634.132 962.62 606.221C965.457 610.659 968.115 615.251 970.403 620.151C982.463 645.979 985.379 673.325 982.341 701.412C988.604 672.756 988.473 643.867 978.581 615.956C981.42 620.393 984.077 624.985 986.365 629.885C998.424 655.716 1001.34 683.06 998.304 711.147C1004.57 682.48 1004.44 653.577 994.533 625.656C992.22 619.133 989.392 612.964 986.215 607.045C978.293 598.063 968.921 590.213 958.14 583.9L844.467 512.841C850.877 520.869 870.753 553.439 874.629 561.74C886.689 587.568 889.607 614.916 886.568 643.003C892.831 614.348 892.701 585.456 882.809 557.547C885.647 561.984 888.304 566.576 890.592 571.476C902.651 597.304 905.567 624.651 902.531 652.737C908.793 624.083 908.663 595.192 898.772 567.283C901.609 571.72 904.267 576.312 906.553 581.211C918.613 607.039 921.531 634.387 918.493 662.472Z"/>
<path d="M644.931 959.616C645.088 959.423 645.253 959.233 645.427 959.055L780.895 816.976L776.741 814.753L746.025 838.263L763.084 807.449L757.625 804.531L727.627 827.492L744.287 797.396L738.511 794.307L709.228 816.72L725.491 787.344L721.349 785.129L657.471 863.673C645.536 878.348 631.405 890.963 615.477 901.164L577.053 925.775C574.667 927.305 573.283 929.804 573.253 932.637C573.223 935.472 574.556 938.003 576.909 939.577L613.476 964.057C622.729 969.329 637.487 968.823 644.931 959.616Z"/>
<path d="M590.989 576.403L515.563 520.789L601.195 559.435L558.859 525.727L611.648 545.053C612.115 544.283 612.576 543.505 613.04 542.731L583.58 519.164L620.899 529.168C621.419 528.239 621.936 527.308 622.449 526.377L598.952 507.223L629.46 513.2C629.995 512.159 630.528 511.119 631.055 510.077L609.884 493.092L637.243 497.377C637.775 496.247 638.289 495.115 638.809 493.983L618.773 477.908L644.18 481.888C644.647 480.796 645.116 479.704 645.573 478.612L535.029 435.519C538.561 452.433 534.461 474.097 522.397 494.704C515.912 505.783 508.031 514.993 499.571 521.963L589.555 578.384C590.032 577.723 590.515 577.068 590.989 576.403Z"/>
<path d="M455.317 516.476C466.965 523.295 490.871 512.221 506.555 485.429C522.24 458.637 520.192 432.372 508.545 425.553C496.897 418.735 472.991 429.808 457.307 456.6C441.623 483.392 443.669 509.657 455.317 516.476Z"/>
<path d="M499.644 671.357L442.423 674.5L521.913 649.52L389.517 647.241L540.24 626.217L423.419 608.063L532.073 603.704L442.379 530.044C441.901 529.651 441.483 529.213 441.104 528.749C423.187 513.185 422.917 479.008 441.464 447.325C445.707 440.079 450.549 433.636 455.757 428.088L360.861 347.311L477.861 411.071C482.477 408.715 487.133 407.02 491.72 406.063L377.177 303.456C383.235 295.389 389.504 287.501 396.003 279.812L507.005 386.044L410.285 263.644C428.476 243.979 448.396 225.849 470.412 209.696C470.795 209.416 471.187 209.151 471.571 208.873L573.309 328.465L482.804 201.288C492.204 195.332 501.968 189.984 511.84 184.807C442.752 205.607 367.407 269.603 313.819 361.14C230.769 503.004 230.955 658.081 314.232 706.833C364.672 736.361 434.2 720.203 499.644 671.357Z"/>
<path d="M652.411 345.673C658.731 355.105 665.156 364.495 672.056 373.533C662.296 350.633 650.409 328.585 638.46 306.712C622.759 277.969 605.72 249.764 587.448 222.505C581.127 213.075 574.699 203.687 567.792 194.652C577.535 217.56 589.432 239.603 601.376 261.48C617.068 290.224 634.147 318.415 652.411 345.673Z"/>
<path d="M672.972 319.98C668.44 301.024 660.684 282.631 652.535 264.987C644.393 247.357 635.333 229.524 623.776 213.851C628.287 232.815 636.056 251.203 644.213 268.844C652.361 286.469 661.435 304.296 672.972 319.98Z"/>
<path d="M594.615 622.657C626.131 585.505 651.655 543.704 670.937 499.009C693.983 445.593 707.428 385.969 703.88 327.617C700.585 273.423 681.053 216.928 634.564 185.117C631.021 182.693 627.256 180.621 623.552 178.457C642.596 191.769 658.376 207.953 669.697 228.397C682.945 252.323 689.952 279.4 692.697 306.481C698.452 363.247 686.831 420.884 666.696 473.851C650.064 517.603 626.867 559.016 598.64 596.323C564.24 641.787 521.209 682.725 470.405 709.3C423.383 733.895 367.993 746.348 317.196 725.816C313.427 724.292 309.804 722.416 306.144 720.651C327.457 733.148 349.98 740.368 374.812 741.303C402.655 742.352 430.187 736.311 456.019 726.195C510.088 705.02 557.295 666.652 594.615 622.657Z"/>
<path d="M226.343 506.211C222.671 527.743 220.329 549.573 220.985 571.451C221.552 590.393 224.175 608.619 228.503 627.041C221.549 591.557 221.453 556.364 226.925 520.621C232.912 481.5 245.031 443.129 260.811 406.884C293.18 332.535 342.007 263.64 404.711 211.892C435.761 186.268 470.4 166.897 508.951 155.301C474.372 164.304 442.929 179.72 414.139 200.913C381.62 224.852 353.577 253.396 328.411 284.888C302.576 317.215 280.791 353.191 263.476 390.752C246.509 427.556 233.171 466.185 226.343 506.211Z"/>
<path d="M608.861 675.999C602.753 680.364 596.431 684.252 589.927 687.743C602.439 684.673 614.591 680.329 626.384 674.324C648.251 663.188 666.955 647.723 683.635 629.865C668.456 650.825 650.709 669.135 629.109 683.553C623.437 687.341 617.588 690.701 611.597 693.715C623.715 691.195 635.544 687.403 647.107 682.019C669.079 671.787 687.881 656.848 704.569 639.44C689.243 660.039 671.201 677.895 649.219 691.376C643.94 694.613 638.543 697.495 633.039 700.068C643.792 698.256 654.368 695.364 664.777 691.136C688.081 681.671 707.979 666.859 725.504 649.015C709.801 669.588 691.152 687.245 668.387 699.848C663.776 702.401 659.095 704.677 654.353 706.728C665.119 705.348 675.745 702.804 686.196 698.821C709.305 690.012 729.013 675.941 746.439 658.589C730.428 679.067 711.252 696.549 687.847 708.256C683.917 710.223 679.951 711.988 675.951 713.588C686.349 712.617 696.663 710.468 706.859 706.931C730.112 698.86 749.863 685.241 767.373 668.164C750.867 688.801 730.959 706.187 706.621 717.02C703.664 718.337 700.695 719.545 697.712 720.653C707.389 720.045 717.047 718.365 726.673 715.431C750.409 708.193 770.521 694.753 788.309 677.739C771.927 697.787 752.312 714.404 728.287 724.608C725.309 725.873 722.316 727.02 719.309 728.063C728.765 727.752 738.237 726.34 747.692 723.655C771.419 716.913 791.397 704.083 809.244 687.313C792.663 707.193 773.212 722.617 749.235 732.645C745.52 734.199 741.76 735.525 737.972 736.681C777.131 732.28 814.337 708.193 836.616 670.136C865.305 621.131 861.188 560.461 827.772 521.452C787.076 495.111 752.944 459.165 726.227 424.623C716.651 472.628 698.665 521.58 671.044 568.763C647.071 609.715 618.451 645.639 587.04 675.653C593.631 673.003 600.099 669.947 606.431 666.405C627.895 654.404 646.232 638.428 662.7 620.291C647.672 641.656 630.193 660.755 608.861 675.999Z"/>
</mask>
<path d="M226.343 506.211C222.671 527.743 220.329 549.573 220.985 571.451C221.552 590.393 224.175 608.619 228.503 627.041C221.549 591.557 221.453 556.364 226.925 520.621C232.912 481.5 245.031 443.129 260.811 406.884C293.18 332.535 342.007 263.64 404.711 211.892C435.761 186.268 470.4 166.897 508.951 155.301C474.372 164.304 442.929 179.72 414.139 200.913C381.62 224.852 353.577 253.396 328.411 284.888C302.576 317.215 280.791 353.191 263.476 390.752C246.509 427.556 233.171 466.185 226.343 506.211ZM594.615 622.657C626.131 585.505 651.655 543.704 670.937 499.009C693.983 445.593 707.428 385.969 703.88 327.617C700.585 273.423 681.053 216.928 634.564 185.117C631.021 182.693 627.256 180.621 623.552 178.457C642.596 191.769 658.376 207.953 669.697 228.397C682.945 252.323 689.952 279.4 692.697 306.481C698.452 363.247 686.831 420.884 666.696 473.851C650.064 517.603 626.867 559.016 598.64 596.323C564.24 641.787 521.209 682.725 470.405 709.3C423.383 733.895 367.993 746.348 317.196 725.816C313.427 724.292 309.804 722.416 306.144 720.651C327.457 733.148 349.98 740.368 374.812 741.303C402.655 742.352 430.187 736.311 456.019 726.195C510.088 705.02 557.295 666.652 594.615 622.657ZM608.861 675.999C602.753 680.364 596.431 684.252 589.927 687.743C602.439 684.673 614.591 680.329 626.384 674.324C648.251 663.188 666.955 647.723 683.635 629.865C668.456 650.825 650.709 669.135 629.109 683.553C623.437 687.341 617.588 690.701 611.597 693.715C623.715 691.195 635.544 687.403 647.107 682.019C669.079 671.787 687.881 656.848 704.569 639.44C689.243 660.039 671.201 677.895 649.219 691.376C643.94 694.613 638.543 697.495 633.039 700.068C643.792 698.256 654.368 695.364 664.777 691.136C688.081 681.671 707.979 666.859 725.504 649.015C709.801 669.588 691.152 687.245 668.387 699.848C663.776 702.401 659.095 704.677 654.353 706.728C665.119 705.348 675.745 702.804 686.196 698.821C709.305 690.012 729.013 675.941 746.439 658.589C730.428 679.067 711.252 696.549 687.847 708.256C683.917 710.223 679.951 711.988 675.951 713.588C686.349 712.617 696.663 710.468 706.859 706.931C730.112 698.86 749.863 685.241 767.373 668.164C750.867 688.801 730.959 706.187 706.621 717.02C703.664 718.337 700.695 719.545 697.712 720.653C707.389 720.045 717.047 718.365 726.673 715.431C750.409 708.193 770.521 694.753 788.309 677.739C771.927 697.787 752.312 714.404 728.287 724.608C725.309 725.873 722.316 727.02 719.309 728.063C728.765 727.752 738.237 726.34 747.692 723.655C771.419 716.913 791.397 704.083 809.244 687.313C792.663 707.193 773.212 722.617 749.235 732.645C745.52 734.199 741.76 735.525 737.972 736.681C777.131 732.28 814.337 708.193 836.616 670.136C865.305 621.131 861.188 560.461 827.772 521.452C787.076 495.111 752.944 459.165 726.227 424.623C716.651 472.628 698.665 521.58 671.044 568.763C647.071 609.715 618.451 645.639 587.04 675.653C593.631 673.003 600.099 669.947 606.431 666.405C627.895 654.404 646.232 638.428 662.7 620.291C647.672 641.656 630.193 660.755 608.861 675.999ZM918.493 662.472C924.755 633.817 924.625 604.928 914.735 577.019C917.572 581.455 920.229 586.047 922.516 590.945C934.575 616.775 937.492 644.12 934.455 672.207C940.716 643.552 940.587 614.663 930.696 586.752C933.533 591.189 936.191 595.781 938.477 600.68C950.537 626.509 953.455 653.856 950.417 681.943C956.679 653.287 956.549 624.397 946.659 596.487C949.496 600.924 952.153 605.516 954.44 610.415C966.5 636.244 969.416 663.591 966.38 691.677C972.641 663.021 972.511 634.132 962.62 606.221C965.457 610.659 968.115 615.251 970.403 620.151C982.463 645.979 985.379 673.325 982.341 701.412C988.604 672.756 988.473 643.867 978.581 615.956C981.42 620.393 984.077 624.985 986.365 629.885C998.424 655.716 1001.34 683.06 998.304 711.147C1004.57 682.48 1004.44 653.577 994.533 625.656C992.22 619.133 989.392 612.964 986.215 607.045C978.293 598.063 968.921 590.213 958.14 583.9L844.467 512.841C850.877 520.869 870.753 553.439 874.629 561.74C886.689 587.568 889.607 614.916 886.568 643.003C892.831 614.348 892.701 585.456 882.809 557.547C885.647 561.984 888.304 566.576 890.592 571.476C902.651 597.304 905.567 624.651 902.531 652.737C908.793 624.083 908.663 595.192 898.772 567.283C901.609 571.72 904.267 576.312 906.553 581.211C918.613 607.039 921.531 634.387 918.493 662.472ZM685.208 772.219C670.577 788.153 656.709 804.818 642.874 821.445C642.706 821.648 642.538 821.85 642.369 822.052C632.783 833.572 623.085 844.643 611.644 854.388C600.767 863.651 588.768 871.24 576.908 879.147C565.809 886.547 551.861 893.411 550.293 908.191C554.876 896.069 565.876 891.14 576.328 884.839C588.471 877.517 600.752 870.193 611.812 861.28C634.144 843.281 651.06 819.016 668.007 796.132C673.851 788.243 679.643 780.307 685.208 772.219ZM644.931 959.616C645.088 959.423 645.253 959.233 645.427 959.055L780.895 816.976L776.741 814.753L746.025 838.263L763.084 807.449L757.625 804.531L727.627 827.492L744.287 797.396L738.511 794.307L709.228 816.72L725.491 787.344L721.349 785.129L657.471 863.673C645.536 878.348 631.405 890.963 615.477 901.164L577.053 925.775C574.667 927.305 573.283 929.804 573.253 932.637C573.223 935.472 574.556 938.003 576.909 939.577L613.476 964.057C622.729 969.329 637.487 968.823 644.931 959.616ZM499.644 671.357L442.423 674.5L521.913 649.52L389.517 647.241L540.24 626.217L423.419 608.063L532.073 603.704L442.379 530.044C441.901 529.651 441.483 529.213 441.104 528.749C423.187 513.185 422.917 479.008 441.464 447.325C445.707 440.079 450.549 433.636 455.757 428.088L360.861 347.311L477.861 411.071C482.477 408.715 487.133 407.02 491.72 406.063L377.177 303.456C383.235 295.389 389.504 287.501 396.003 279.812L507.005 386.044L410.285 263.644C428.476 243.979 448.396 225.849 470.412 209.696C470.795 209.416 471.187 209.151 471.571 208.873L573.309 328.465L482.804 201.288C492.204 195.332 501.968 189.984 511.84 184.807C442.752 205.607 367.407 269.603 313.819 361.14C230.769 503.004 230.955 658.081 314.232 706.833C364.672 736.361 434.2 720.203 499.644 671.357ZM672.972 319.98C668.44 301.024 660.684 282.631 652.535 264.987C644.393 247.357 635.333 229.524 623.776 213.851C628.287 232.815 636.056 251.203 644.213 268.844C652.361 286.469 661.435 304.296 672.972 319.98ZM652.411 345.673C658.731 355.105 665.156 364.495 672.056 373.533C662.296 350.633 650.409 328.585 638.46 306.712C622.759 277.969 605.72 249.764 587.448 222.505C581.127 213.075 574.699 203.687 567.792 194.652C577.535 217.56 589.432 239.603 601.376 261.48C617.068 290.224 634.147 318.415 652.411 345.673ZM455.317 516.476C466.965 523.295 490.871 512.221 506.555 485.429C522.24 458.637 520.192 432.372 508.545 425.553C496.897 418.735 472.991 429.808 457.307 456.6C441.623 483.392 443.669 509.657 455.317 516.476ZM590.989 576.403L515.563 520.789L601.195 559.435L558.859 525.727L611.648 545.053C612.115 544.283 612.576 543.505 613.04 542.731L583.58 519.164L620.899 529.168C621.419 528.239 621.936 527.308 622.449 526.377L598.952 507.223L629.46 513.2C629.995 512.159 630.528 511.119 631.055 510.077L609.884 493.092L637.243 497.377C637.775 496.247 638.289 495.115 638.809 493.983L618.773 477.908L644.18 481.888C644.647 480.796 645.116 479.704 645.573 478.612L535.029 435.519C538.561 452.433 534.461 474.097 522.397 494.704C515.912 505.783 508.031 514.993 499.571 521.963L589.555 578.384C590.032 577.723 590.515 577.068 590.989 576.403ZM452.012 165.108C520.952 127.981 586.993 123.971 637.977 153.817C698.801 189.425 733.205 255.297 734.579 333.587C734.919 352.985 733.864 372.877 731.348 393.045C747.375 415.505 766.859 439.471 789.477 461.351C798.481 464.197 807.12 468.008 815.229 472.756C817.825 474.275 820.451 475.968 823.476 478.072L967.641 568.196C1035.34 607.829 1055.55 699.629 1012.7 772.835C969.847 846.036 879.903 873.347 812.513 833.885L797.693 825.96L658.951 971.471C646.281 986.788 622.225 990.452 603.984 979.772C603.825 979.68 603.667 979.581 603.515 979.477L566.697 954.829C562.675 952.136 559.549 948.465 557.525 944.252C556.785 943.228 556.113 942.148 555.524 941.017C541.773 914.703 541.143 911.549 540.807 909.857C538.633 899.003 543.24 888.14 552.539 882.189L588.653 859.059C604.475 848.924 618.503 836.4 630.348 821.835L678.736 762.337L664.787 754.877C660.44 752.904 656.833 751.063 653.46 749.088C645.36 744.347 637.815 738.649 630.931 732.128C597.723 723.679 563.777 720.288 533.168 719.532C521.376 727.619 509.372 734.937 497.227 741.437C422.688 781.331 360.3 785.439 291.719 745.291C240.736 715.444 211.904 655.892 210.529 577.605C209.209 502.497 233.515 418.376 278.967 340.736C324.417 263.099 385.872 200.725 452.012 165.108Z" fill="#272727"/>
<path d="M918.493 662.472C924.755 633.817 924.625 604.928 914.735 577.019C917.572 581.455 920.229 586.047 922.516 590.945C934.575 616.775 937.492 644.12 934.455 672.207C940.716 643.552 940.587 614.663 930.696 586.752C933.533 591.189 936.191 595.781 938.477 600.68C950.537 626.509 953.455 653.856 950.417 681.943C956.679 653.287 956.549 624.397 946.659 596.487C949.496 600.924 952.153 605.516 954.44 610.415C966.5 636.244 969.416 663.591 966.38 691.677C972.641 663.021 972.511 634.132 962.62 606.221C965.457 610.659 968.115 615.251 970.403 620.151C982.463 645.979 985.379 673.325 982.341 701.412C988.604 672.756 988.473 643.867 978.581 615.956C981.42 620.393 984.077 624.985 986.365 629.885C998.424 655.716 1001.34 683.06 998.304 711.147C1004.57 682.48 1004.44 653.577 994.533 625.656C992.22 619.133 989.392 612.964 986.215 607.045C978.293 598.063 968.921 590.213 958.14 583.9L844.467 512.841C850.877 520.869 870.753 553.439 874.629 561.74C886.689 587.568 889.607 614.916 886.568 643.003C892.831 614.348 892.701 585.456 882.809 557.547C885.647 561.984 888.304 566.576 890.592 571.476C902.651 597.304 905.567 624.651 902.531 652.737C908.793 624.083 908.663 595.192 898.772 567.283C901.609 571.72 904.267 576.312 906.553 581.211C918.613 607.039 921.531 634.387 918.493 662.472Z" fill="white"/>
<path d="M644.931 959.616C645.088 959.423 645.253 959.233 645.427 959.055L780.895 816.976L776.741 814.753L746.025 838.263L763.084 807.449L757.625 804.531L727.627 827.492L744.287 797.396L738.511 794.307L709.228 816.72L725.491 787.344L721.349 785.129L657.471 863.673C645.536 878.348 631.405 890.963 615.477 901.164L577.053 925.775C574.667 927.305 573.283 929.804 573.253 932.637C573.223 935.472 574.556 938.003 576.909 939.577L613.476 964.057C622.729 969.329 637.487 968.823 644.931 959.616Z" fill="white"/>
<path d="M590.989 576.403L515.563 520.789L601.195 559.435L558.859 525.727L611.648 545.053C612.115 544.283 612.576 543.505 613.04 542.731L583.58 519.164L620.899 529.168C621.419 528.239 621.936 527.308 622.449 526.377L598.952 507.223L629.46 513.2C629.995 512.159 630.528 511.119 631.055 510.077L609.884 493.092L637.243 497.377C637.775 496.247 638.289 495.115 638.809 493.983L618.773 477.908L644.18 481.888C644.647 480.796 645.116 479.704 645.573 478.612L535.029 435.519C538.561 452.433 534.461 474.097 522.397 494.704C515.912 505.783 508.031 514.993 499.571 521.963L589.555 578.384C590.032 577.723 590.515 577.068 590.989 576.403Z" fill="white"/>
<path d="M455.317 516.476C466.965 523.295 490.871 512.221 506.555 485.429C522.24 458.637 520.192 432.372 508.545 425.553C496.897 418.735 472.991 429.808 457.307 456.6C441.623 483.392 443.669 509.657 455.317 516.476Z" fill="white"/>
<path d="M499.644 671.357L442.423 674.5L521.913 649.52L389.517 647.241L540.24 626.217L423.419 608.063L532.073 603.704L442.379 530.044C441.901 529.651 441.483 529.213 441.104 528.749C423.187 513.185 422.917 479.008 441.464 447.325C445.707 440.079 450.549 433.636 455.757 428.088L360.861 347.311L477.861 411.071C482.477 408.715 487.133 407.02 491.72 406.063L377.177 303.456C383.235 295.389 389.504 287.501 396.003 279.812L507.005 386.044L410.285 263.644C428.476 243.979 448.396 225.849 470.412 209.696C470.795 209.416 471.187 209.151 471.571 208.873L573.309 328.465L482.804 201.288C492.204 195.332 501.968 189.984 511.84 184.807C442.752 205.607 367.407 269.603 313.819 361.14C230.769 503.004 230.955 658.081 314.232 706.833C364.672 736.361 434.2 720.203 499.644 671.357Z" fill="white"/>
<path d="M652.411 345.673C658.731 355.105 665.156 364.495 672.056 373.533C662.296 350.633 650.409 328.585 638.46 306.712C622.759 277.969 605.72 249.764 587.448 222.505C581.127 213.075 574.699 203.687 567.792 194.652C577.535 217.56 589.432 239.603 601.376 261.48C617.068 290.224 634.147 318.415 652.411 345.673Z" fill="white"/>
<path d="M672.972 319.98C668.44 301.024 660.684 282.631 652.535 264.987C644.393 247.357 635.333 229.524 623.776 213.851C628.287 232.815 636.056 251.203 644.213 268.844C652.361 286.469 661.435 304.296 672.972 319.98Z" fill="white"/>
<path d="M594.615 622.657C626.131 585.505 651.655 543.704 670.937 499.009C693.983 445.593 707.428 385.969 703.88 327.617C700.585 273.423 681.053 216.928 634.564 185.117C631.021 182.693 627.256 180.621 623.552 178.457C642.596 191.769 658.376 207.953 669.697 228.397C682.945 252.323 689.952 279.4 692.697 306.481C698.452 363.247 686.831 420.884 666.696 473.851C650.064 517.603 626.867 559.016 598.64 596.323C564.24 641.787 521.209 682.725 470.405 709.3C423.383 733.895 367.993 746.348 317.196 725.816C313.427 724.292 309.804 722.416 306.144 720.651C327.457 733.148 349.98 740.368 374.812 741.303C402.655 742.352 430.187 736.311 456.019 726.195C510.088 705.02 557.295 666.652 594.615 622.657Z" fill="white"/>
<path d="M226.343 506.211C222.671 527.743 220.329 549.573 220.985 571.451C221.552 590.393 224.175 608.619 228.503 627.041C221.549 591.557 221.453 556.364 226.925 520.621C232.912 481.5 245.031 443.129 260.811 406.884C293.18 332.535 342.007 263.64 404.711 211.892C435.761 186.268 470.4 166.897 508.951 155.301C474.372 164.304 442.929 179.72 414.139 200.913C381.62 224.852 353.577 253.396 328.411 284.888C302.576 317.215 280.791 353.191 263.476 390.752C246.509 427.556 233.171 466.185 226.343 506.211Z" fill="white"/>
<path d="M608.861 675.999C602.753 680.364 596.431 684.252 589.927 687.743C602.439 684.673 614.591 680.329 626.384 674.324C648.251 663.188 666.955 647.723 683.635 629.865C668.456 650.825 650.709 669.135 629.109 683.553C623.437 687.341 617.588 690.701 611.597 693.715C623.715 691.195 635.544 687.403 647.107 682.019C669.079 671.787 687.881 656.848 704.569 639.44C689.243 660.039 671.201 677.895 649.219 691.376C643.94 694.613 638.543 697.495 633.039 700.068C643.792 698.256 654.368 695.364 664.777 691.136C688.081 681.671 707.979 666.859 725.504 649.015C709.801 669.588 691.152 687.245 668.387 699.848C663.776 702.401 659.095 704.677 654.353 706.728C665.119 705.348 675.745 702.804 686.196 698.821C709.305 690.012 729.013 675.941 746.439 658.589C730.428 679.067 711.252 696.549 687.847 708.256C683.917 710.223 679.951 711.988 675.951 713.588C686.349 712.617 696.663 710.468 706.859 706.931C730.112 698.86 749.863 685.241 767.373 668.164C750.867 688.801 730.959 706.187 706.621 717.02C703.664 718.337 700.695 719.545 697.712 720.653C707.389 720.045 717.047 718.365 726.673 715.431C750.409 708.193 770.521 694.753 788.309 677.739C771.927 697.787 752.312 714.404 728.287 724.608C725.309 725.873 722.316 727.02 719.309 728.063C728.765 727.752 738.237 726.34 747.692 723.655C771.419 716.913 791.397 704.083 809.244 687.313C792.663 707.193 773.212 722.617 749.235 732.645C745.52 734.199 741.76 735.525 737.972 736.681C777.131 732.28 814.337 708.193 836.616 670.136C865.305 621.131 861.188 560.461 827.772 521.452C787.076 495.111 752.944 459.165 726.227 424.623C716.651 472.628 698.665 521.58 671.044 568.763C647.071 609.715 618.451 645.639 587.04 675.653C593.631 673.003 600.099 669.947 606.431 666.405C627.895 654.404 646.232 638.428 662.7 620.291C647.672 641.656 630.193 660.755 608.861 675.999Z" fill="white"/>
<path d="M226.343 506.211L224.864 505.958L224.864 505.959L226.343 506.211ZM220.985 571.451L222.485 571.406L222.485 571.406L220.985 571.451ZM228.503 627.041L227.042 627.384L229.975 626.753L228.503 627.041ZM226.925 520.621L228.408 520.848L228.408 520.848L226.925 520.621ZM260.811 406.884L259.435 406.285L259.435 406.285L260.811 406.884ZM404.711 211.892L403.756 210.735L403.756 210.735L404.711 211.892ZM508.951 155.301L509.383 156.738L508.573 153.85L508.951 155.301ZM414.139 200.913L413.249 199.705L413.249 199.705L414.139 200.913ZM328.411 284.888L329.582 285.824L329.582 285.824L328.411 284.888ZM263.476 390.752L264.838 391.38L264.838 391.38L263.476 390.752ZM594.615 622.657L593.471 621.687L593.471 621.687L594.615 622.657ZM670.937 499.009L669.56 498.415L669.56 498.415L670.937 499.009ZM703.88 327.617L702.383 327.708L702.383 327.708L703.88 327.617ZM634.564 185.117L635.411 183.879L635.411 183.879L634.564 185.117ZM623.552 178.457L624.309 177.162L622.693 179.687L623.552 178.457ZM669.697 228.397L671.01 227.671L671.01 227.671L669.697 228.397ZM692.697 306.481L691.205 306.633L691.205 306.633L692.697 306.481ZM666.696 473.851L668.098 474.384L668.098 474.384L666.696 473.851ZM598.64 596.323L599.836 597.228L599.836 597.228L598.64 596.323ZM470.405 709.3L471.1 710.629L471.101 710.629L470.405 709.3ZM317.196 725.816L316.634 727.207L316.634 727.207L317.196 725.816ZM306.144 720.651L306.796 719.3L305.385 721.945L306.144 720.651ZM374.812 741.303L374.868 739.804L374.868 739.804L374.812 741.303ZM456.019 726.195L456.566 727.591L456.566 727.591L456.019 726.195ZM608.861 675.999L607.989 674.778L607.989 674.778L608.861 675.999ZM589.927 687.743L589.217 686.421L590.284 689.199L589.927 687.743ZM626.384 674.324L627.065 675.661L627.065 675.661L626.384 674.324ZM683.635 629.865L684.85 630.745L682.538 628.841L683.635 629.865ZM629.109 683.553L628.276 682.306L628.276 682.306L629.109 683.553ZM611.597 693.715L610.923 692.375L611.903 695.183L611.597 693.715ZM647.107 682.019L647.74 683.378L647.74 683.378L647.107 682.019ZM704.569 639.44L705.773 640.335L703.486 638.402L704.569 639.44ZM649.219 691.376L648.434 690.097L648.434 690.097L649.219 691.376ZM633.039 700.068L632.403 698.709L633.288 701.547L633.039 700.068ZM664.777 691.136L664.213 689.746L664.213 689.746L664.777 691.136ZM725.504 649.015L726.696 649.925L724.434 647.964L725.504 649.015ZM668.387 699.848L667.66 698.536L667.66 698.536L668.387 699.848ZM654.353 706.728L653.758 705.351L654.544 708.216L654.353 706.728ZM686.196 698.821L686.73 700.223L686.73 700.223L686.196 698.821ZM746.439 658.589L747.62 659.513L745.38 657.526L746.439 658.589ZM687.847 708.256L687.176 706.914L687.175 706.915L687.847 708.256ZM675.951 713.588L675.394 712.195L676.09 715.082L675.951 713.588ZM706.859 706.931L707.35 708.348L707.35 708.348L706.859 706.931ZM767.373 668.164L768.545 669.101L766.326 667.09L767.373 668.164ZM706.621 717.02L706.011 715.65L706.011 715.65L706.621 717.02ZM697.712 720.653L697.19 719.247L697.806 722.15L697.712 720.653ZM726.673 715.431L727.111 716.865L727.111 716.865L726.673 715.431ZM788.309 677.739L789.471 678.688L787.272 676.655L788.309 677.739ZM728.287 724.608L727.7 723.227L727.7 723.227L728.287 724.608ZM719.309 728.063L718.818 726.645L719.359 729.562L719.309 728.063ZM747.692 723.655L748.102 725.098L748.102 725.098L747.692 723.655ZM809.244 687.313L810.396 688.274L808.217 686.22L809.244 687.313ZM749.235 732.645L749.813 734.029L749.813 734.029L749.235 732.645ZM737.972 736.681L737.534 735.247L738.139 738.172L737.972 736.681ZM836.616 670.136L835.321 669.378L835.321 669.378L836.616 670.136ZM827.772 521.452L828.911 520.476L828.77 520.311L828.587 520.193L827.772 521.452ZM726.227 424.623L727.413 423.705L725.399 421.102L724.756 424.329L726.227 424.623ZM671.044 568.763L669.749 568.005L669.749 568.005L671.044 568.763ZM587.04 675.653L586.004 674.569L587.6 677.045L587.04 675.653ZM606.431 666.405L605.699 665.096L605.698 665.096L606.431 666.405ZM662.7 620.291L663.927 621.154L661.589 619.282L662.7 620.291ZM918.493 662.472L917.002 662.311L919.959 662.792L918.493 662.472ZM914.735 577.019L915.998 576.21L913.321 577.52L914.735 577.019ZM922.516 590.945L921.157 591.58L921.157 591.58L922.516 590.945ZM934.455 672.207L932.963 672.045L935.92 672.527L934.455 672.207ZM930.696 586.752L931.96 585.944L929.282 587.253L930.696 586.752ZM938.477 600.68L937.118 601.314L937.118 601.315L938.477 600.68ZM950.417 681.943L948.926 681.781L951.883 682.263L950.417 681.943ZM946.659 596.487L947.922 595.679L945.245 596.988L946.659 596.487ZM954.44 610.415L953.081 611.049L953.081 611.049L954.44 610.415ZM966.38 691.677L964.889 691.516L967.845 691.998L966.38 691.677ZM962.62 606.221L963.884 605.413L961.206 606.722L962.62 606.221ZM970.403 620.151L971.762 619.516L971.762 619.516L970.403 620.151ZM982.341 701.412L980.85 701.251L983.807 701.732L982.341 701.412ZM978.581 615.956L979.845 615.148L977.167 616.457L978.581 615.956ZM986.365 629.885L987.724 629.251L987.724 629.251L986.365 629.885ZM998.304 711.147L996.813 710.986L999.769 711.467L998.304 711.147ZM994.533 625.656L993.12 626.157L993.12 626.157L994.533 625.656ZM986.215 607.045L987.536 606.336L987.454 606.183L987.34 606.053L986.215 607.045ZM958.14 583.9L957.345 585.172L957.363 585.183L957.382 585.194L958.14 583.9ZM844.467 512.841L845.262 511.569L843.294 513.777L844.467 512.841ZM874.629 561.74L873.27 562.375L873.27 562.375L874.629 561.74ZM886.568 643.003L885.077 642.841L888.033 643.323L886.568 643.003ZM882.809 557.547L884.073 556.739L881.395 558.048L882.809 557.547ZM890.592 571.476L891.951 570.841L891.951 570.841L890.592 571.476ZM902.531 652.737L901.039 652.576L903.996 653.058L902.531 652.737ZM898.772 567.283L900.036 566.475L897.358 567.784L898.772 567.283ZM906.553 581.211L905.194 581.845L905.194 581.845L906.553 581.211ZM644.931 959.616L643.767 958.669L643.764 958.673L644.931 959.616ZM645.427 959.055L646.503 960.099L646.512 960.09L645.427 959.055ZM780.895 816.976L781.98 818.011L783.341 816.584L781.602 815.653L780.895 816.976ZM776.741 814.753L777.449 813.431L776.597 812.975L775.83 813.562L776.741 814.753ZM746.025 838.263L744.713 837.536L746.937 839.454L746.025 838.263ZM763.084 807.449L764.396 808.176L765.134 806.844L763.791 806.127L763.084 807.449ZM757.625 804.531L758.333 803.208L757.481 802.752L756.714 803.34L757.625 804.531ZM727.627 827.492L726.314 826.766L728.538 828.683L727.627 827.492ZM744.287 797.396L745.599 798.122L746.336 796.791L744.994 796.073L744.287 797.396ZM738.511 794.307L739.218 792.984L738.366 792.528L737.599 793.116L738.511 794.307ZM709.228 816.72L707.916 815.993L710.14 817.911L709.228 816.72ZM725.491 787.344L726.803 788.071L727.54 786.739L726.198 786.021L725.491 787.344ZM721.349 785.129L722.057 783.807L720.966 783.223L720.186 784.183L721.349 785.129ZM657.471 863.673L656.307 862.727L656.307 862.727L657.471 863.673ZM615.477 901.164L614.668 899.901L614.668 899.901L615.477 901.164ZM577.053 925.775L576.244 924.512L576.244 924.512L577.053 925.775ZM573.253 932.637L574.753 932.654L574.753 932.653L573.253 932.637ZM576.909 939.577L577.744 938.331L577.743 938.331L576.909 939.577ZM613.476 964.057L612.641 965.304L612.686 965.334L612.733 965.361L613.476 964.057ZM499.644 671.357L500.541 672.559L504.524 669.587L499.562 669.86L499.644 671.357ZM442.423 674.5L441.973 673.069L442.505 675.998L442.423 674.5ZM521.913 649.52L522.363 650.951L521.939 648.02L521.913 649.52ZM389.517 647.241L389.31 645.756L389.492 648.741L389.517 647.241ZM540.24 626.217L540.447 627.703L540.47 624.735L540.24 626.217ZM423.419 608.063L423.359 606.564L423.188 609.545L423.419 608.063ZM532.073 603.704L532.133 605.203L536.07 605.045L533.025 602.545L532.073 603.704ZM442.379 530.044L441.425 531.202L441.427 531.203L442.379 530.044ZM441.104 528.749L442.266 527.801L442.185 527.701L442.088 527.617L441.104 528.749ZM441.464 447.325L440.17 446.568L440.169 446.568L441.464 447.325ZM455.757 428.088L456.851 429.115L457.929 427.967L456.73 426.946L455.757 428.088ZM360.861 347.311L361.579 345.994L359.889 348.453L360.861 347.311ZM477.861 411.071L477.144 412.388L477.838 412.766L478.543 412.407L477.861 411.071ZM491.72 406.063L492.026 407.531L494.931 406.925L492.721 404.945L491.72 406.063ZM377.177 303.456L375.978 302.555L375.152 303.655L376.176 304.573L377.177 303.456ZM396.003 279.812L397.04 278.728L395.887 277.625L394.857 278.844L396.003 279.812ZM507.005 386.044L505.968 387.128L508.182 385.114L507.005 386.044ZM410.285 263.644L409.184 262.625L408.313 263.567L409.108 264.574L410.285 263.644ZM470.412 209.696L469.526 208.485L469.525 208.487L470.412 209.696ZM471.571 208.873L472.713 207.901L471.815 206.846L470.692 207.657L471.571 208.873ZM573.309 328.465L572.167 329.437L574.531 327.596L573.309 328.465ZM482.804 201.288L482.001 200.021L480.664 200.868L481.582 202.158L482.804 201.288ZM511.84 184.807L512.537 186.135L511.408 183.37L511.84 184.807ZM313.819 361.14L312.524 360.382L312.524 360.382L313.819 361.14ZM314.232 706.833L313.474 708.128L313.474 708.128L314.232 706.833ZM672.972 319.98L671.764 320.869L674.431 319.631L672.972 319.98ZM652.535 264.987L651.173 265.616L651.173 265.616L652.535 264.987ZM623.776 213.851L624.983 212.96L622.317 214.198L623.776 213.851ZM644.213 268.844L645.575 268.215L645.575 268.215L644.213 268.844ZM652.411 345.673L651.164 346.508L651.164 346.508L652.411 345.673ZM672.056 373.533L670.864 374.444L673.436 372.945L672.056 373.533ZM638.46 306.712L637.144 307.431L637.144 307.431L638.46 306.712ZM587.448 222.505L586.202 223.341L586.202 223.341L587.448 222.505ZM567.792 194.652L568.984 193.741L566.412 195.239L567.792 194.652ZM601.376 261.48L602.693 260.761L602.693 260.761L601.376 261.48ZM506.555 485.429L505.26 484.672L505.26 484.672L506.555 485.429ZM508.545 425.553L509.303 424.259L509.303 424.259L508.545 425.553ZM590.989 576.403L592.21 577.274L593.068 576.072L591.879 575.195L590.989 576.403ZM515.563 520.789L516.18 519.422L514.672 521.997L515.563 520.789ZM601.195 559.435L600.578 560.802L602.129 558.261L601.195 559.435ZM558.859 525.727L559.374 524.318L557.924 526.9L558.859 525.727ZM611.648 545.053L611.132 546.462L612.292 546.886L612.931 545.83L611.648 545.053ZM613.04 542.731L614.327 543.501L615 542.378L613.977 541.559L613.04 542.731ZM583.58 519.164L583.968 517.715L582.643 520.335L583.58 519.164ZM620.899 529.168L620.51 530.617L621.638 530.919L622.208 529.9L620.899 529.168ZM622.449 526.377L623.763 527.102L624.367 526.006L623.397 525.215L622.449 526.377ZM598.952 507.223L599.24 505.751L598.004 508.385L598.952 507.223ZM629.46 513.2L629.172 514.672L630.279 514.889L630.794 513.885L629.46 513.2ZM631.055 510.077L632.393 510.754L632.942 509.669L631.993 508.907L631.055 510.077ZM609.884 493.092L610.116 491.61L604.554 490.739L608.945 494.262L609.884 493.092ZM637.243 497.377L637.01 498.859L638.121 499.033L638.6 498.016L637.243 497.377ZM638.809 493.983L640.172 494.609L640.661 493.545L639.748 492.813L638.809 493.983ZM618.773 477.908L619.005 476.426L613.443 475.555L617.835 479.078L618.773 477.908ZM644.18 481.888L643.948 483.37L645.101 483.551L645.559 482.477L644.18 481.888ZM645.573 478.612L646.957 479.191L647.551 477.773L646.118 477.214L645.573 478.612ZM535.029 435.519L535.574 434.121L532.995 433.116L533.561 435.825L535.029 435.519ZM522.397 494.704L521.103 493.946L521.103 493.946L522.397 494.704ZM499.571 521.963L498.617 520.805L497.011 522.128L498.774 523.234L499.571 521.963ZM589.555 578.384L588.758 579.655L589.948 580.401L590.771 579.262L589.555 578.384ZM224.864 505.959C221.182 527.548 218.826 549.485 219.486 571.496L222.485 571.406C221.833 549.662 224.159 527.937 227.821 506.463L224.864 505.959ZM219.486 571.496C220.056 590.551 222.694 608.876 227.042 627.384L229.963 626.698C225.655 608.361 223.048 590.236 222.485 571.406L219.486 571.496ZM229.975 626.753C223.058 591.456 222.959 556.438 228.408 520.848L225.443 520.394C219.947 556.29 220.041 591.658 227.031 627.33L229.975 626.753ZM228.408 520.848C234.371 481.879 246.447 443.633 262.186 407.483L259.435 406.285C243.614 442.625 231.452 481.121 225.443 520.394L228.408 520.848ZM262.186 407.483C294.474 333.321 343.167 264.628 405.665 213.049L403.756 210.735C340.847 262.652 291.886 331.748 259.435 406.285L262.186 407.483ZM405.665 213.049C436.577 187.539 471.041 168.271 509.383 156.738L508.519 153.865C469.759 165.524 434.945 184.997 403.756 210.735L405.665 213.049ZM508.573 153.85C473.799 162.903 442.184 178.406 413.249 199.705L415.028 202.121C443.674 181.034 474.945 165.705 509.329 156.753L508.573 153.85ZM413.249 199.705C380.603 223.738 352.468 252.381 327.239 283.952L329.582 285.824C354.686 254.411 382.637 225.966 415.028 202.121L413.249 199.705ZM327.239 283.952C301.323 316.38 279.475 352.461 262.114 390.124L264.838 391.38C282.106 353.921 303.829 318.05 329.582 285.824L327.239 283.952ZM262.114 390.124C245.106 427.016 231.719 465.773 224.864 505.958L227.821 506.463C234.622 466.597 247.912 428.096 264.838 391.38L262.114 390.124ZM595.758 623.628C627.375 586.357 652.976 544.428 672.315 499.604L669.56 498.415C650.333 542.98 624.886 584.654 593.471 621.687L595.758 623.628ZM672.315 499.604C695.432 446.021 708.942 386.161 705.377 327.526L702.383 327.708C705.913 385.777 692.534 445.166 669.56 498.415L672.315 499.604ZM705.377 327.526C702.069 273.103 682.441 216.06 635.411 183.879L633.717 186.355C679.666 217.796 699.102 273.743 702.383 327.708L705.377 327.526ZM635.411 183.879C631.81 181.416 627.968 179.3 624.309 177.162L622.795 179.752C626.544 181.943 630.233 183.971 633.717 186.355L635.411 183.879ZM622.693 179.687C641.583 192.892 657.193 208.913 668.385 229.124L671.01 227.671C659.559 206.993 643.609 190.647 624.411 177.228L622.693 179.687ZM668.385 229.124C681.511 252.829 688.475 279.699 691.205 306.633L694.19 306.33C691.429 279.102 684.379 251.816 671.01 227.671L668.385 229.124ZM691.205 306.633C696.929 363.101 685.373 420.498 665.294 473.318L668.098 474.384C688.289 421.27 699.975 363.393 694.19 306.33L691.205 306.633ZM665.294 473.318C648.714 516.932 625.588 558.22 597.444 595.418L599.836 597.228C628.146 559.812 651.414 518.274 668.098 474.384L665.294 473.318ZM597.444 595.418C563.138 640.757 520.268 681.525 469.71 707.971L471.101 710.629C522.151 683.926 565.342 642.817 599.836 597.228L597.444 595.418ZM469.71 707.971C422.887 732.461 367.983 744.726 317.758 724.425L316.634 727.207C368.003 747.97 423.878 735.328 471.1 710.629L469.71 707.971ZM317.758 724.425C314.049 722.926 310.507 721.09 306.796 719.3L305.492 722.002C309.101 723.742 312.804 725.658 316.634 727.207L317.758 724.425ZM305.385 721.945C326.889 734.554 349.651 741.857 374.756 742.802L374.868 739.804C350.309 738.879 328.025 731.742 306.903 719.357L305.385 721.945ZM374.755 742.802C402.851 743.86 430.591 737.763 456.566 727.591L455.472 724.798C429.783 734.858 402.458 740.844 374.868 739.804L374.755 742.802ZM456.566 727.591C510.924 706.304 558.323 667.758 595.759 623.628L593.471 621.687C556.266 665.546 509.252 703.736 455.472 724.798L456.566 727.591ZM607.989 674.778C601.937 679.104 595.669 682.958 589.217 686.421L590.636 689.064C597.192 685.546 603.57 681.624 609.733 677.219L607.989 674.778ZM590.284 689.199C602.897 686.105 615.159 681.723 627.065 675.661L625.703 672.987C614.022 678.936 601.98 683.241 589.569 686.286L590.284 689.199ZM627.065 675.661C649.125 664.426 667.965 648.838 684.731 630.889L682.538 628.841C665.944 646.607 647.376 661.95 625.703 672.987L627.065 675.661ZM682.42 628.986C667.324 649.831 649.701 668.004 628.276 682.306L629.942 684.801C651.718 670.265 669.588 651.82 684.85 630.745L682.42 628.986ZM628.276 682.306C622.66 686.057 616.864 689.386 610.923 692.375L612.271 695.055C618.312 692.016 624.215 688.626 629.942 684.801L628.276 682.306ZM611.903 695.183C624.125 692.642 636.065 688.815 647.74 683.378L646.473 680.659C635.023 685.991 623.305 689.748 611.292 692.246L611.903 695.183ZM647.74 683.378C669.923 673.048 688.873 657.981 705.652 640.478L703.486 638.402C686.89 655.715 668.234 670.525 646.473 680.659L647.74 683.378ZM703.366 638.545C688.128 659.024 670.222 676.736 648.434 690.097L650.003 692.655C672.181 679.054 690.357 661.054 705.773 640.335L703.366 638.545ZM648.434 690.097C643.206 693.304 637.859 696.159 632.403 698.709L633.674 701.427C639.226 698.831 644.674 695.923 650.003 692.655L648.434 690.097ZM633.288 701.547C644.141 699.718 654.824 696.798 665.342 692.526L664.213 689.746C653.912 693.93 643.443 696.794 632.789 698.589L633.288 701.547ZM665.342 692.526C688.88 682.965 708.943 668.018 726.574 650.066L724.434 647.964C707.015 665.7 687.283 680.376 664.213 689.746L665.342 692.526ZM724.312 648.105C708.705 668.552 690.206 686.055 667.66 698.536L669.113 701.16C692.098 688.436 710.898 670.624 726.696 649.925L724.312 648.105ZM667.66 698.536C663.095 701.064 658.458 703.318 653.758 705.351L654.949 708.105C659.731 706.036 664.457 703.739 669.113 701.16L667.66 698.536ZM654.544 708.216C665.418 706.822 676.16 704.251 686.73 700.223L685.662 697.42C675.33 701.357 664.82 703.874 654.163 705.24L654.544 708.216ZM686.73 700.223C710.077 691.323 729.958 677.118 747.497 659.652L745.38 657.526C728.069 674.765 708.533 688.701 685.662 697.42L686.73 700.223ZM745.257 657.665C729.348 678.013 710.336 695.33 687.176 706.914L688.518 709.598C712.168 697.768 731.508 680.12 747.62 659.513L745.257 657.665ZM687.175 706.915C683.286 708.861 679.358 710.61 675.394 712.195L676.508 714.981C680.544 713.366 684.549 711.584 688.518 709.597L687.175 706.915ZM676.09 715.082C686.603 714.1 697.035 711.927 707.35 708.348L706.367 705.514C696.291 709.009 686.096 711.134 675.811 712.095L676.09 715.082ZM707.35 708.348C730.857 700.189 750.791 686.432 768.421 669.238L766.326 667.09C748.935 684.051 729.367 697.531 706.367 705.514L707.35 708.348ZM766.202 667.227C749.804 687.728 730.076 704.937 706.011 715.65L707.231 718.39C731.841 707.436 751.929 689.874 768.545 669.101L766.202 667.227ZM706.011 715.65C703.083 716.954 700.143 718.15 697.19 719.247L698.234 722.059C701.246 720.941 704.245 719.721 707.232 718.39L706.011 715.65ZM697.806 722.15C707.595 721.535 717.368 719.836 727.111 716.865L726.236 713.996C716.726 716.895 707.184 718.555 697.618 719.156L697.806 722.15ZM727.111 716.865C751.125 709.543 771.435 695.955 789.346 678.823L787.272 676.655C769.608 693.551 749.693 706.843 726.236 713.996L727.111 716.865ZM787.148 676.79C770.878 696.699 751.449 713.141 727.7 723.227L728.873 725.989C753.175 715.667 772.975 698.875 789.471 678.688L787.148 676.79ZM727.7 723.227C724.756 724.479 721.794 725.613 718.818 726.645L719.801 729.48C722.838 728.427 725.863 727.268 728.873 725.989L727.7 723.227ZM719.359 729.562C728.932 729.247 738.525 727.818 748.102 725.098L747.282 722.212C737.949 724.862 728.599 726.257 719.26 726.563L719.359 729.562ZM748.102 725.098C772.11 718.276 792.293 705.3 810.271 688.406L808.217 686.22C790.502 702.866 770.727 715.55 747.282 722.212L748.102 725.098ZM808.092 686.353C791.642 706.075 772.38 721.339 748.656 731.261L749.813 734.029C774.044 723.895 793.683 708.311 810.396 688.274L808.092 686.353ZM748.656 731.261C744.993 732.793 741.281 734.103 737.534 735.247L738.41 738.116C742.239 736.947 746.047 735.604 749.813 734.029L748.656 731.261ZM738.139 738.172C777.794 733.715 815.406 709.336 837.91 670.894L835.321 669.378C813.268 707.05 776.467 730.845 737.804 735.191L738.139 738.172ZM837.91 670.894C866.888 621.396 862.786 560.021 828.911 520.476L826.633 522.428C859.59 560.901 863.722 620.865 835.321 669.378L837.91 670.894ZM828.587 520.193C788.081 493.975 754.069 458.168 727.413 423.705L725.04 425.54C751.819 460.163 786.07 496.247 826.957 522.711L828.587 520.193ZM724.756 424.329C715.212 472.173 697.285 520.968 669.749 568.005L672.338 569.52C700.045 522.192 718.089 473.083 727.698 424.916L724.756 424.329ZM669.749 568.005C645.845 608.838 617.312 644.652 586.004 674.569L588.076 676.738C619.589 646.625 648.296 610.591 672.338 569.52L669.749 568.005ZM587.6 677.045C594.246 674.372 600.772 671.289 607.163 667.714L605.698 665.096C599.426 668.604 593.016 671.633 586.48 674.262L587.6 677.045ZM607.163 667.715C628.805 655.613 647.266 639.521 663.811 621.299L661.589 619.282C645.198 637.335 626.984 653.195 605.699 665.096L607.163 667.715ZM661.473 619.428C646.517 640.69 629.152 659.655 607.989 674.778L609.733 677.219C631.234 661.854 648.827 642.622 663.927 621.154L661.473 619.428ZM919.959 662.792C926.266 633.926 926.152 604.744 916.148 576.518L913.321 577.52C923.099 605.112 923.243 633.709 917.028 662.152L919.959 662.792ZM913.471 577.827C916.285 582.226 918.906 586.759 921.157 591.58L923.875 590.311C921.552 585.335 918.859 580.683 915.998 576.21L913.471 577.827ZM921.157 591.58C933.076 617.11 935.978 644.169 932.963 672.045L935.946 672.368C939.006 644.071 936.074 616.439 923.875 590.311L921.157 591.58ZM935.92 672.527C942.228 643.66 942.113 614.479 932.11 586.251L929.282 587.253C939.06 614.847 939.204 643.444 932.989 671.886L935.92 672.527ZM929.432 587.56C932.246 591.961 934.868 596.493 937.118 601.314L939.837 600.046C937.514 595.069 934.82 590.418 931.96 585.944L929.432 587.56ZM937.118 601.315C949.038 626.845 951.941 653.905 948.926 681.781L951.909 682.104C954.969 653.807 952.036 626.174 939.836 600.045L937.118 601.315ZM951.883 682.263C958.19 653.395 958.075 624.213 948.072 595.986L945.245 596.988C955.023 624.581 955.167 653.178 948.952 681.622L951.883 682.263ZM945.395 597.295C948.209 601.695 950.83 606.228 953.081 611.049L955.799 609.78C953.476 604.804 950.783 600.153 947.922 595.679L945.395 597.295ZM953.081 611.049C965.001 636.579 967.902 663.64 964.889 691.516L967.871 691.839C970.93 663.542 967.999 635.909 955.799 609.78L953.081 611.049ZM967.845 691.998C974.153 663.13 974.037 633.948 964.034 605.72L961.206 606.722C970.984 634.316 971.13 662.913 964.915 691.357L967.845 691.998ZM961.356 607.029C964.17 611.43 966.792 615.963 969.044 620.785L971.762 619.516C969.438 614.539 966.745 609.887 963.884 605.413L961.356 607.029ZM969.043 620.785C980.964 646.314 983.865 673.374 980.85 701.251L983.833 701.573C986.893 673.276 983.962 645.643 971.762 619.516L969.043 620.785ZM983.807 701.732C990.116 672.864 990 643.683 979.995 615.455L977.167 616.457C986.947 644.051 987.092 672.648 980.876 701.092L983.807 701.732ZM977.318 616.764C980.133 621.165 982.754 625.697 985.006 630.52L987.724 629.251C985.4 624.273 982.707 619.622 979.845 615.148L977.318 616.764ZM985.006 630.52C996.925 656.051 999.825 683.109 996.813 710.986L999.795 711.308C1002.85 683.011 999.923 655.381 987.724 629.251L985.006 630.52ZM999.769 711.467C1006.08 682.588 1005.96 653.393 995.947 625.155L993.12 626.157C1002.91 653.762 1003.06 682.372 996.839 710.826L999.769 711.467ZM995.947 625.155C993.604 618.55 990.744 612.311 987.536 606.336L984.893 607.755C988.04 613.618 990.835 619.717 993.12 626.157L995.947 625.155ZM987.34 606.053C979.316 596.955 969.821 589.002 958.898 582.606L957.382 585.194C968.021 591.425 977.27 599.171 985.09 608.037L987.34 606.053ZM958.935 582.628L845.262 511.569L843.672 514.113L957.345 585.172L958.935 582.628ZM843.294 513.777C846.432 517.706 852.955 527.773 859.22 537.973C865.484 548.172 871.375 558.315 873.27 562.375L875.988 561.105C874.008 556.863 868.022 546.571 861.777 536.403C855.532 526.237 848.912 516.005 845.639 511.905L843.294 513.777ZM873.27 562.375C885.19 587.903 888.093 614.965 885.077 642.841L888.059 643.164C891.121 614.867 888.188 587.233 875.988 561.105L873.27 562.375ZM888.033 643.323C894.342 614.456 894.228 585.272 884.223 557.046L881.395 558.048C891.175 585.64 891.319 614.24 885.103 642.682L888.033 643.323ZM881.546 558.355C884.359 562.755 886.981 567.288 889.233 572.111L891.951 570.841C889.627 565.864 886.934 561.213 884.073 556.739L881.546 558.355ZM889.233 572.111C901.152 597.639 904.053 624.7 901.039 652.576L904.022 652.899C907.081 624.602 904.15 596.969 891.951 570.841L889.233 572.111ZM903.996 653.058C910.305 624.191 910.189 595.008 900.186 566.782L897.358 567.784C907.136 595.376 907.282 623.974 901.065 652.417L903.996 653.058ZM897.508 568.091C900.322 572.491 902.944 577.024 905.194 581.845L907.913 580.576C905.59 575.6 902.896 570.949 900.036 566.475L897.508 568.091ZM905.194 581.845C917.114 607.374 920.017 634.436 917.002 662.311L919.985 662.633C923.045 634.338 920.112 606.703 907.912 580.576L905.194 581.845ZM646.094 960.563C646.23 960.396 646.366 960.24 646.503 960.099L644.35 958.01C644.14 958.226 643.946 958.449 643.767 958.669L646.094 960.563ZM646.512 960.09L781.98 818.011L779.809 815.941L644.341 958.02L646.512 960.09ZM781.602 815.653L777.449 813.431L776.034 816.076L780.187 818.299L781.602 815.653ZM775.83 813.562L745.114 837.071L746.937 839.454L777.653 815.944L775.83 813.562ZM747.338 838.989L764.396 808.176L761.772 806.723L744.713 837.536L747.338 838.989ZM763.791 806.127L758.333 803.208L756.918 805.853L762.377 808.772L763.791 806.127ZM756.714 803.34L726.715 826.301L728.538 828.683L758.537 805.722L756.714 803.34ZM728.939 828.218L745.599 798.122L742.974 796.67L726.314 826.766L728.939 828.218ZM744.994 796.073L739.218 792.984L737.803 795.629L743.579 798.719L744.994 796.073ZM737.599 793.116L708.316 815.529L710.14 817.911L739.422 795.498L737.599 793.116ZM710.54 817.447L726.803 788.071L724.178 786.617L707.916 815.993L710.54 817.447ZM726.198 786.021L722.057 783.807L720.642 786.452L724.783 788.667L726.198 786.021ZM720.186 784.183L656.307 862.727L658.634 864.62L722.513 786.076L720.186 784.183ZM656.307 862.727C644.473 877.278 630.462 889.786 614.668 899.901L616.286 902.427C632.349 892.14 646.599 879.418 658.634 864.62L656.307 862.727ZM614.668 899.901L576.244 924.512L577.862 927.038L616.286 902.427L614.668 899.901ZM576.244 924.512C573.432 926.315 571.788 929.282 571.753 932.622L574.753 932.653C574.777 930.326 575.901 928.295 577.863 927.037L576.244 924.512ZM571.753 932.621C571.717 935.961 573.3 938.967 576.075 940.824L577.743 938.331C575.811 937.038 574.728 934.982 574.753 932.654L571.753 932.621ZM576.075 940.824L612.641 965.304L614.31 962.811L577.744 938.331L576.075 940.824ZM612.733 965.361C617.655 968.164 623.977 969.407 630.041 968.758C636.114 968.107 642.069 965.541 646.097 960.559L643.764 958.673C640.348 962.898 635.203 965.188 629.722 965.775C624.234 966.362 618.551 965.222 614.219 962.754L612.733 965.361ZM499.562 669.86L442.34 673.002L442.505 675.998L499.726 672.855L499.562 669.86ZM442.872 675.931L522.363 650.951L521.464 648.089L441.973 673.069L442.872 675.931ZM521.939 648.02L389.543 645.742L389.492 648.741L521.887 651.02L521.939 648.02ZM389.725 648.727L540.447 627.703L540.033 624.732L389.31 645.756L389.725 648.727ZM540.47 624.735L423.649 606.58L423.188 609.545L540.01 627.7L540.47 624.735ZM423.479 609.561L532.133 605.203L532.013 602.205L423.359 606.564L423.479 609.561ZM533.025 602.545L443.331 528.885L441.427 531.203L531.121 604.863L533.025 602.545ZM443.333 528.886C442.945 528.567 442.594 528.203 442.266 527.801L439.942 529.698C440.371 530.224 440.858 530.735 441.425 531.202L443.333 528.886ZM442.088 527.617C433.553 520.203 429.099 508.243 429.11 494.083C429.121 479.936 433.6 463.729 442.758 448.083L440.169 446.568C430.782 462.605 426.122 479.328 426.11 494.081C426.098 508.821 430.738 521.732 440.12 529.882L442.088 527.617ZM442.758 448.083C446.946 440.931 451.722 434.579 456.851 429.115L454.664 427.061C449.377 432.693 444.468 439.226 440.17 446.568L442.758 448.083ZM456.73 426.946L361.834 346.169L359.889 348.453L454.785 429.23L456.73 426.946ZM360.144 348.628L477.144 412.388L478.579 409.754L361.579 345.994L360.144 348.628ZM478.543 412.407C483.056 410.103 487.586 408.458 492.026 407.531L491.413 404.594C486.68 405.582 481.898 407.326 477.179 409.735L478.543 412.407ZM492.721 404.945L378.178 302.339L376.176 304.573L490.719 407.18L492.721 404.945ZM378.377 304.357C384.418 296.312 390.669 288.447 397.148 280.78L394.857 278.844C388.339 286.556 382.052 294.467 375.978 302.555L378.377 304.357ZM394.966 280.896L505.968 387.128L508.042 384.96L397.04 278.728L394.966 280.896ZM508.182 385.114L411.462 262.714L409.108 264.574L505.828 386.974L508.182 385.114ZM411.386 264.663C429.518 245.061 449.367 226.997 471.299 210.905L469.525 208.487C447.424 224.702 427.434 242.896 409.184 262.625L411.386 264.663ZM471.298 210.907C471.724 210.595 471.967 210.437 472.449 210.089L470.692 207.657C470.406 207.864 469.866 208.237 469.526 208.485L471.298 210.907ZM470.428 209.845L572.167 329.437L574.452 327.493L472.713 207.901L470.428 209.845ZM574.531 327.596L484.026 200.418L481.582 202.158L572.087 329.335L574.531 327.596ZM483.607 202.555C492.956 196.631 502.678 191.306 512.537 186.135L511.143 183.478C501.258 188.663 491.452 194.033 482.001 200.021L483.607 202.555ZM511.408 183.37C441.853 204.311 366.24 268.626 312.524 360.382L315.113 361.898C368.573 270.58 443.651 206.902 512.272 186.243L511.408 183.37ZM312.524 360.382C270.888 431.504 250.078 505.999 250.153 568.905C250.228 631.77 271.187 683.372 313.474 708.128L314.99 705.539C274 681.543 253.227 631.23 253.153 568.902C253.078 506.616 273.7 432.64 315.113 361.898L312.524 360.382ZM313.474 708.128C364.699 738.115 434.92 721.537 500.541 672.559L498.747 670.155C433.48 718.869 364.645 734.607 314.99 705.539L313.474 708.128ZM674.431 319.631C669.863 300.525 662.055 282.021 653.896 264.358L651.173 265.616C659.313 283.24 667.017 301.523 671.513 320.329L674.431 319.631ZM653.896 264.358C645.744 246.705 636.633 228.76 624.983 212.96L622.569 214.741C634.033 230.288 643.042 248.01 651.173 265.616L653.896 264.358ZM622.317 214.198C626.863 233.314 634.686 251.813 642.852 269.474L645.575 268.215C637.426 250.592 629.71 232.316 625.235 213.504L622.317 214.198ZM642.852 269.473C651.011 287.123 660.135 305.06 671.764 320.869L674.18 319.091C662.735 303.532 653.712 285.816 645.575 268.215L642.852 269.473ZM651.164 346.508C657.488 355.945 663.934 365.367 670.864 374.444L673.248 372.623C666.378 363.623 659.973 354.265 653.657 344.838L651.164 346.508ZM673.436 372.945C663.644 349.97 651.724 327.862 639.776 305.993L637.144 307.431C649.095 329.308 660.948 351.297 670.676 374.122L673.436 372.945ZM639.776 305.993C624.054 277.212 606.992 248.968 588.694 221.67L586.202 223.341C604.448 250.56 621.463 278.727 637.144 307.431L639.776 305.993ZM588.694 221.67C582.369 212.234 575.92 202.814 568.984 193.741L566.6 195.563C573.477 204.559 579.884 213.915 586.202 223.341L588.694 221.67ZM566.412 195.239C576.187 218.224 588.118 240.326 600.059 262.199L602.693 260.761C590.746 238.879 578.882 216.897 569.172 194.065L566.412 195.239ZM600.059 262.199C615.773 290.982 632.875 319.212 651.164 346.508L653.657 344.838C635.418 317.618 618.363 289.466 602.693 260.761L600.059 262.199ZM454.56 517.771C461.071 521.582 470.588 520.228 480.156 514.865C489.811 509.453 499.891 499.782 507.849 486.187L505.26 484.672C497.535 497.869 487.82 507.13 478.689 512.248C469.472 517.415 461.212 518.189 456.075 515.182L454.56 517.771ZM507.849 486.187C515.808 472.592 519.307 459.069 519.299 448C519.292 437.032 515.814 428.071 509.303 424.259L507.787 426.848C512.924 429.855 516.292 437.436 516.299 448.002C516.306 458.469 512.986 471.474 505.26 484.672L507.849 486.187ZM509.303 424.259C502.792 420.447 493.275 421.801 483.706 427.164C474.051 432.576 463.971 442.247 456.012 455.842L458.601 457.358C466.327 444.161 476.042 434.899 485.173 429.781C494.391 424.614 502.651 423.841 507.787 426.848L509.303 424.259ZM456.012 455.842C448.054 469.437 444.555 482.961 444.562 494.029C444.57 504.998 448.048 513.959 454.56 517.771L456.075 515.182C450.938 512.174 447.57 504.594 447.562 494.027C447.556 483.56 450.876 470.555 458.601 457.358L456.012 455.842ZM591.879 575.195L516.453 519.582L514.672 521.997L590.099 577.61L591.879 575.195ZM514.946 522.157L600.578 560.802L601.812 558.067L516.18 519.422L514.946 522.157ZM602.129 558.261L559.793 524.553L557.924 526.9L600.26 560.608L602.129 558.261ZM558.343 527.135L611.132 546.462L612.164 543.645L559.374 524.318L558.343 527.135ZM612.931 545.83C613.4 545.056 613.867 544.269 614.327 543.501L611.753 541.96C611.285 542.742 610.829 543.51 610.365 544.276L612.931 545.83ZM613.977 541.559L584.517 517.993L582.643 520.335L612.103 543.902L613.977 541.559ZM583.192 520.613L620.51 530.617L621.287 527.719L583.968 517.715L583.192 520.613ZM622.208 529.9C622.729 528.969 623.248 528.035 623.763 527.102L621.136 525.653C620.624 526.581 620.108 527.509 619.59 528.436L622.208 529.9ZM623.397 525.215L599.9 506.06L598.004 508.385L621.501 527.54L623.397 525.215ZM598.664 508.695L629.172 514.672L629.748 511.728L599.24 505.751L598.664 508.695ZM630.794 513.885C631.329 512.844 631.864 511.8 632.393 510.754L629.716 509.4C629.192 510.437 628.66 511.474 628.126 512.515L630.794 513.885ZM631.993 508.907L610.823 491.922L608.945 494.262L630.116 511.247L631.993 508.907ZM609.652 494.574L637.01 498.859L637.475 495.895L610.116 491.61L609.652 494.574ZM638.6 498.016C639.136 496.877 639.656 495.734 640.172 494.609L637.446 493.357C636.923 494.496 636.413 495.616 635.885 496.739L638.6 498.016ZM639.748 492.813L619.712 476.738L617.835 479.078L637.871 495.153L639.748 492.813ZM618.541 479.39L643.948 483.37L644.412 480.406L619.005 476.426L618.541 479.39ZM645.559 482.477C646.024 481.389 646.497 480.29 646.957 479.191L644.19 478.033C643.735 479.118 643.269 480.203 642.801 481.299L645.559 482.477ZM646.118 477.214L535.574 434.121L534.484 436.916L645.028 480.01L646.118 477.214ZM533.561 435.825C536.999 452.292 533.027 473.578 521.103 493.946L523.692 495.462C535.896 474.616 540.123 452.574 536.498 435.212L533.561 435.825ZM521.103 493.946C514.701 504.883 506.932 513.955 498.617 520.805L500.524 523.12C509.13 516.031 517.123 506.682 523.692 495.462L521.103 493.946ZM498.774 523.234L588.758 579.655L590.351 577.113L500.367 520.692L498.774 523.234ZM590.771 579.262C591.233 578.621 591.735 577.94 592.21 577.274L589.768 575.532C589.294 576.196 588.83 576.824 588.338 577.506L590.771 579.262ZM641.721 820.486L641.216 821.093L643.522 823.011L644.027 822.405L641.721 820.486ZM685.208 772.219L687.679 773.919L682.998 770.19L685.208 772.219ZM642.369 822.052L644.675 823.971L644.675 823.971L642.369 822.052ZM611.644 854.388L613.589 856.672L613.589 856.672L611.644 854.388ZM576.908 879.147L575.244 876.651L575.244 876.651L576.908 879.147ZM550.293 908.191L547.31 907.874L553.099 909.252L550.293 908.191ZM576.328 884.839L577.877 887.408L577.877 887.408L576.328 884.839ZM611.812 861.28L613.694 863.616L613.695 863.616L611.812 861.28ZM668.007 796.132L665.596 794.346L665.596 794.347L668.007 796.132ZM452.012 165.108L453.434 167.749L453.434 167.749L452.012 165.108ZM637.977 153.817L639.493 151.228L639.493 151.228L637.977 153.817ZM734.579 333.587L737.578 333.534L737.578 333.534L734.579 333.587ZM731.348 393.045L728.371 392.674L728.226 393.835L728.906 394.788L731.348 393.045ZM789.477 461.351L787.391 463.507L787.899 463.998L788.573 464.211L789.477 461.351ZM815.229 472.756L813.713 475.345L813.714 475.345L815.229 472.756ZM823.476 478.072L821.763 480.535L821.823 480.577L821.886 480.616L823.476 478.072ZM967.641 568.196L966.051 570.74L966.088 570.763L966.126 570.785L967.641 568.196ZM1012.7 772.835L1015.29 774.35L1015.29 774.35L1012.7 772.835ZM812.513 833.885L814.029 831.297L813.979 831.267L813.928 831.24L812.513 833.885ZM797.693 825.96L799.108 823.315L797.096 822.239L795.522 823.89L797.693 825.96ZM658.951 971.471L656.779 969.4L656.706 969.477L656.639 969.559L658.951 971.471ZM603.984 979.772L605.5 977.183L605.489 977.177L603.984 979.772ZM603.515 979.477L605.209 977.001L605.196 976.993L605.184 976.984L603.515 979.477ZM566.697 954.829L565.028 957.322L565.028 957.322L566.697 954.829ZM557.525 944.252L560.229 942.953L560.114 942.712L559.957 942.495L557.525 944.252ZM555.524 941.017L558.184 939.631L558.183 939.628L555.524 941.017ZM540.807 909.857L543.749 909.273L543.748 909.268L540.807 909.857ZM552.539 882.189L554.156 884.716L554.157 884.716L552.539 882.189ZM588.653 859.059L590.271 861.585L590.271 861.585L588.653 859.059ZM630.348 821.835L628.021 819.942L628.02 819.942L630.348 821.835ZM678.736 762.337L681.063 764.23L683.359 761.408L680.151 759.692L678.736 762.337ZM664.787 754.877L666.201 752.232L666.115 752.186L666.027 752.146L664.787 754.877ZM653.46 749.088L654.975 746.499L654.975 746.499L653.46 749.088ZM630.931 732.128L632.994 729.95L632.427 729.413L631.67 729.221L630.931 732.128ZM533.168 719.532L533.242 716.533L532.272 716.509L531.471 717.058L533.168 719.532ZM497.227 741.437L495.811 738.792L495.811 738.792L497.227 741.437ZM291.719 745.291L290.203 747.88L290.203 747.88L291.719 745.291ZM210.529 577.605L213.529 577.553L213.529 577.553L210.529 577.605ZM278.967 340.736L276.378 339.22L276.378 339.22L278.967 340.736ZM642.874 821.445L645.18 823.364L645.18 823.364L642.874 821.445ZM640.063 820.133C630.496 831.629 620.934 842.534 609.699 852.104L613.589 856.672C625.236 846.751 635.069 835.515 644.675 823.971L640.063 820.133ZM609.699 852.104C598.993 861.221 587.192 868.685 575.244 876.651L578.572 881.643C590.344 873.795 602.541 866.08 613.589 856.672L609.699 852.104ZM575.244 876.651C569.944 880.184 563.313 883.985 558.038 888.655C552.63 893.442 548.2 899.488 547.31 907.874L553.277 908.507C553.955 902.113 557.282 897.337 562.015 893.147C566.881 888.84 572.773 885.509 578.572 881.643L575.244 876.651ZM553.099 909.252C555.135 903.867 558.598 900.025 562.93 896.716C567.386 893.314 572.436 890.688 577.877 887.408L574.779 882.269C569.768 885.291 564.092 888.28 559.289 891.948C554.362 895.71 550.034 900.393 547.487 907.13L553.099 909.252ZM577.877 887.408C589.977 880.112 602.445 872.682 613.694 863.616L609.929 858.944C599.059 867.705 586.964 874.922 574.779 882.27L577.877 887.408ZM613.695 863.616C636.397 845.318 653.569 820.669 670.418 797.917L665.596 794.347C648.551 817.363 631.891 841.244 609.929 858.944L613.695 863.616ZM670.417 797.918C676.268 790.019 682.084 782.05 687.679 773.919L682.736 770.518C677.201 778.563 671.433 786.466 665.596 794.346L670.417 797.918ZM453.434 167.749C521.792 130.937 586.669 127.257 636.462 156.406L639.493 151.228C587.317 120.684 520.112 125.026 450.59 162.467L453.434 167.749ZM636.462 156.406C696.232 191.398 730.221 256.209 731.579 333.639L737.578 333.534C736.19 254.385 701.371 187.453 639.493 151.228L636.462 156.406ZM731.579 333.639C731.917 352.894 730.87 372.644 728.371 392.674L734.325 393.417C736.858 373.111 737.921 353.077 737.578 333.534L731.579 333.639ZM728.906 394.788C745.01 417.356 764.611 441.47 787.391 463.507L791.563 459.194C769.107 437.471 749.739 413.655 733.79 391.303L728.906 394.788ZM788.573 464.211C797.369 466.992 805.802 470.713 813.713 475.345L816.745 470.167C808.438 465.303 799.594 461.403 790.382 458.49L788.573 464.211ZM813.714 475.345C816.229 476.817 818.788 478.466 821.763 480.535L825.189 475.609C822.114 473.47 819.421 471.733 816.744 470.167L813.714 475.345ZM821.886 480.616L966.051 570.74L969.232 565.652L825.066 475.528L821.886 480.616ZM966.126 570.785C1032.21 609.472 1052.24 699.349 1010.11 771.319L1015.29 774.35C1058.87 699.909 1038.47 606.187 969.157 565.607L966.126 570.785ZM1010.11 771.319C967.978 843.289 879.798 869.809 814.029 831.297L810.997 836.474C880.008 876.885 971.715 848.783 1015.29 774.35L1010.11 771.319ZM813.928 831.24L799.108 823.315L796.279 828.605L811.099 836.531L813.928 831.24ZM795.522 823.89L656.779 969.4L661.122 973.541L799.864 828.03L795.522 823.89ZM656.639 969.559C644.989 983.644 622.586 987.187 605.5 977.183L602.468 982.361C621.865 993.717 647.574 989.932 661.262 973.383L656.639 969.559ZM605.489 977.177C605.383 977.115 605.289 977.056 605.209 977.001L601.821 981.953C602.044 982.106 602.268 982.245 602.479 982.367L605.489 977.177ZM605.184 976.984L568.366 952.336L565.028 957.322L601.846 981.97L605.184 976.984ZM568.366 952.336C564.797 949.947 562.025 946.692 560.229 942.953L554.821 945.551C557.073 950.239 560.552 954.325 565.028 957.322L568.366 952.336ZM559.957 942.495C559.298 941.583 558.703 940.627 558.184 939.631L552.864 942.404C553.523 943.669 554.272 944.873 555.094 946.009L559.957 942.495ZM558.183 939.628C544.368 913.191 543.983 910.453 543.749 909.273L537.864 910.442C538.302 912.646 539.178 916.215 552.865 942.407L558.183 939.628ZM543.748 909.268C541.817 899.622 545.902 889.998 554.156 884.716L550.922 879.662C540.578 886.282 535.45 898.384 537.865 910.446L543.748 909.268ZM554.157 884.716L590.271 861.585L587.035 856.532L550.921 879.663L554.157 884.716ZM590.271 861.585C606.361 851.278 620.629 838.54 632.675 823.727L628.02 819.942C616.377 834.259 602.588 846.57 587.035 856.533L590.271 861.585ZM632.675 823.728L681.063 764.23L676.409 760.444L628.021 819.942L632.675 823.728ZM680.151 759.692L666.201 752.232L663.372 757.523L677.321 764.983L680.151 759.692ZM666.027 752.146C661.753 750.206 658.242 748.411 654.975 746.499L651.944 751.677C655.425 753.714 659.127 755.602 663.546 757.609L666.027 752.146ZM654.975 746.499C647.079 741.877 639.717 736.319 632.994 729.95L628.867 734.306C635.913 740.98 643.641 746.817 651.944 751.677L654.975 746.499ZM631.67 729.221C598.186 720.701 564.006 717.293 533.242 716.533L533.094 722.531C563.548 723.283 597.259 726.656 630.191 735.035L631.67 729.221ZM531.471 717.058C519.766 725.085 507.856 732.346 495.811 738.792L498.642 744.082C510.888 737.528 522.986 730.152 534.865 722.006L531.471 717.058ZM495.811 738.792C458.799 758.601 425.027 769.404 392.15 770.381C359.312 771.357 327.119 762.538 293.234 742.702L290.203 747.88C324.899 768.191 358.192 777.393 392.328 776.378C426.424 775.365 461.115 764.167 498.642 744.082L495.811 738.792ZM293.234 742.702C243.443 713.553 214.892 655.178 213.529 577.553L207.53 577.658C208.916 656.606 238.029 717.335 290.203 747.88L293.234 742.702ZM213.529 577.553C212.22 503.095 236.326 419.511 281.556 342.252L276.378 339.22C230.703 417.241 206.198 501.899 207.53 577.658L213.529 577.553ZM281.556 342.252C326.783 264.995 387.867 203.058 453.434 167.749L450.59 162.467C383.877 198.393 322.051 261.202 276.378 339.22L281.556 342.252ZM682.998 770.19C668.309 786.187 654.395 802.909 640.568 819.526L645.18 823.364C659.023 806.728 672.844 790.119 687.418 774.248L682.998 770.19ZM640.568 819.526C640.4 819.729 640.232 819.931 640.063 820.133L644.675 823.971C644.844 823.769 645.012 823.566 645.18 823.364L640.568 819.526Z" fill="#272727" mask="url(#path-2-inside-1_104_228)"/>
<mask id="path-4-inside-2_104_228" fill="white">
<path d="M390.327 165.027C383.697 157.356 377.583 149.227 371.628 141.027C355.539 118.871 341.269 95.552 327.228 72.0707C336.928 72.4974 346.624 72.92 356.313 73.4893C343.608 49.672 331.461 25.2893 322 -6.43969e-06C330.396 10.1333 338.171 20.8013 345.691 31.596C358.92 50.5826 371.092 70.2093 383.273 89.8693C373.809 89.6333 364.359 89.3747 354.907 88.988C356.12 91.224 357.371 93.4399 358.567 95.6853C370.469 118.036 381.935 141.096 390.327 165.027"/>
</mask>
<path d="M390.327 165.027C383.697 157.356 377.583 149.227 371.628 141.027C355.539 118.871 341.269 95.552 327.228 72.0707C336.928 72.4974 346.624 72.92 356.313 73.4893C343.608 49.672 331.461 25.2893 322 -6.43969e-06C330.396 10.1333 338.171 20.8013 345.691 31.596C358.92 50.5826 371.092 70.2093 383.273 89.8693C373.809 89.6333 364.359 89.3747 354.907 88.988C356.12 91.224 357.371 93.4399 358.567 95.6853C370.469 118.036 381.935 141.096 390.327 165.027" fill="white"/>
<path d="M371.628 141.027L373.246 139.851L373.246 139.851L371.628 141.027ZM327.228 72.0707L327.316 70.0726L323.605 69.9094L325.511 73.0971L327.228 72.0707ZM356.313 73.4893L356.196 75.4859L359.757 75.6951L358.078 72.548L356.313 73.4893ZM322 -6.43969e-06L323.54 -1.27603L320.127 0.700801L322 -6.43969e-06ZM345.691 31.596L344.05 32.7392L344.05 32.7393L345.691 31.596ZM383.273 89.8693L383.223 91.8686L386.922 91.9609L384.973 88.8159L383.273 89.8693ZM354.907 88.988L354.988 86.9897L351.469 86.8457L353.149 89.9419L354.907 88.988ZM358.567 95.6853L360.332 94.7452L360.332 94.745L358.567 95.6853ZM391.84 163.719C385.266 156.113 379.191 148.038 373.246 139.851L370.01 142.202C375.974 150.416 382.128 158.599 388.813 166.334L391.84 163.719ZM373.246 139.851C357.214 117.773 342.983 94.5215 328.944 71.0443L325.511 73.0971C339.555 96.5826 353.864 119.968 370.01 142.202L373.246 139.851ZM327.14 74.0688C336.843 74.4956 346.524 74.9176 356.196 75.4859L356.431 71.4928C346.724 70.9224 337.013 70.4991 327.316 70.0726L327.14 74.0688ZM358.078 72.548C345.386 48.7566 333.288 24.465 323.873 -0.700814L320.127 0.700801C329.634 26.1137 341.83 50.5874 354.549 74.4306L358.078 72.548ZM320.46 1.27601C328.805 11.3481 336.544 21.965 344.05 32.7392L347.332 30.4527C339.797 19.6375 331.987 8.91858 323.54 -1.27603L320.46 1.27601ZM344.05 32.7393C357.243 51.6747 369.388 71.2558 381.573 90.9226L384.973 88.8159C372.796 69.1628 360.597 49.4906 347.332 30.4526L344.05 32.7393ZM383.323 87.8699C373.861 87.6339 364.424 87.3757 354.988 86.9897L354.825 90.9863C364.294 91.3737 373.758 91.6326 383.223 91.8686L383.323 87.8699ZM353.149 89.9419C354.39 92.2293 355.604 94.3769 356.801 96.6255L360.332 94.745C359.138 92.503 357.85 90.2187 356.665 88.0341L353.149 89.9419ZM356.801 96.6254C368.692 118.953 380.099 141.905 388.439 165.688L392.214 164.365C383.77 140.287 372.247 117.119 360.332 94.7452L356.801 96.6254Z" fill="#272727" mask="url(#path-4-inside-2_104_228)"/>
<mask id="path-6-inside-3_104_228" fill="white">
<path d="M275.155 226.246C265.724 221.873 256.589 216.843 247.573 211.68C224.037 198.198 201.654 182.949 179.407 167.467C188.426 163.866 197.437 160.265 206.504 156.798C185.127 140.314 164.027 123.085 145 103.925C156.822 109.708 168.296 116.235 179.591 122.98C199.458 134.847 218.625 147.731 237.814 160.64C229.091 164.318 220.369 167.97 211.595 171.504C213.621 173.043 215.672 174.548 217.685 176.103C237.728 191.58 257.662 207.885 275.155 226.246"/>
</mask>
<path d="M275.155 226.246C265.724 221.873 256.589 216.843 247.573 211.68C224.037 198.198 201.654 182.949 179.407 167.467C188.426 163.866 197.437 160.265 206.504 156.798C185.127 140.314 164.027 123.085 145 103.925C156.822 109.708 168.296 116.235 179.591 122.98C199.458 134.847 218.625 147.731 237.814 160.64C229.091 164.318 220.369 167.97 211.595 171.504C213.621 173.043 215.672 174.548 217.685 176.103C237.728 191.58 257.662 207.885 275.155 226.246" fill="white"/>
<path d="M247.573 211.68L246.579 213.415L246.579 213.415L247.573 211.68ZM179.407 167.467L178.666 165.61L175.216 166.987L178.265 169.109L179.407 167.467ZM206.504 156.798L207.218 158.666L210.55 157.392L207.725 155.214L206.504 156.798ZM145 103.925L145.879 102.128L143.581 105.334L145 103.925ZM179.591 122.98L180.617 121.263L180.617 121.263L179.591 122.98ZM237.814 160.64L238.591 162.483L242.001 161.045L238.931 158.98L237.814 160.64ZM211.595 171.504L210.847 169.649L207.58 170.965L210.385 173.097L211.595 171.504ZM217.685 176.103L216.463 177.686L216.463 177.686L217.685 176.103ZM275.996 224.432C266.645 220.095 257.568 215.099 248.567 209.944L246.579 213.415C255.61 218.587 264.804 223.651 274.313 228.061L275.996 224.432ZM248.567 209.944C225.113 196.51 202.793 181.305 180.55 165.826L178.265 169.109C200.515 184.593 222.96 199.887 246.579 213.415L248.567 209.944ZM180.149 169.325C189.17 165.723 198.167 162.127 207.218 158.666L205.789 154.93C196.706 158.403 187.681 162.01 178.666 165.61L180.149 169.325ZM207.725 155.214C186.371 138.748 165.353 121.583 146.419 102.515L143.581 105.334C162.701 124.588 183.882 141.88 205.282 158.382L207.725 155.214ZM144.121 105.721C155.871 111.47 167.292 117.965 178.566 124.697L180.617 121.263C169.3 114.505 157.772 107.946 145.879 102.128L144.121 105.721ZM178.566 124.697C198.378 136.532 217.502 149.386 236.698 162.299L238.931 158.98C219.748 146.076 200.537 133.162 180.617 121.263L178.566 124.697ZM237.037 158.797C228.315 162.474 219.607 166.121 210.847 169.649L212.342 173.359C221.132 169.818 229.866 166.161 238.591 162.483L237.037 158.797ZM210.385 173.097C212.458 174.672 214.447 176.128 216.463 177.686L218.908 174.52C216.898 172.967 214.783 171.415 212.805 169.912L210.385 173.097ZM216.463 177.686C236.485 193.147 256.321 209.377 273.707 227.626L276.603 224.867C259.002 206.392 238.972 190.014 218.908 174.52L216.463 177.686Z" fill="#272727" mask="url(#path-6-inside-3_104_228)"/>
<mask id="path-8-inside-4_104_228" fill="white">
<path d="M95.8694 332.796C102.455 325.66 109.032 318.524 115.719 311.489C89.324 305.831 62.8587 299.38 37.432 290.292C50.592 290.415 63.7574 291.357 76.8574 292.576C99.8987 294.719 122.748 298.081 145.628 301.459C139.353 308.525 133.067 315.568 126.684 322.528C138.021 324.885 149.315 327.449 160.539 330.303C176.397 334.336 192.296 338.729 207.601 344.56C197.208 344.679 186.796 344.077 176.436 343.305C149.385 341.288 122.617 337.176 95.8694 332.796"/>
</mask>
<path d="M95.8694 332.796C102.455 325.66 109.032 318.524 115.719 311.489C89.324 305.831 62.8587 299.38 37.432 290.292C50.592 290.415 63.7574 291.357 76.8574 292.576C99.8987 294.719 122.748 298.081 145.628 301.459C139.353 308.525 133.067 315.568 126.684 322.528C138.021 324.885 149.315 327.449 160.539 330.303C176.397 334.336 192.296 338.729 207.601 344.56C197.208 344.679 186.796 344.077 176.436 343.305C149.385 341.288 122.617 337.176 95.8694 332.796" fill="white"/>
<path d="M115.719 311.489L117.168 312.867L119.626 310.282L116.138 309.534L115.719 311.489ZM37.432 290.292L37.4506 288.292L36.7589 292.175L37.432 290.292ZM76.8574 292.576L76.6721 294.567L76.6722 294.567L76.8574 292.576ZM145.628 301.459L147.123 302.787L149.58 300.02L145.92 299.48L145.628 301.459ZM126.684 322.528L125.21 321.176L122.832 323.77L126.277 324.486L126.684 322.528ZM160.539 330.303L161.032 328.364L161.031 328.364L160.539 330.303ZM207.601 344.56L207.624 346.56L208.313 342.691L207.601 344.56ZM176.436 343.305L176.287 345.3L176.287 345.3L176.436 343.305ZM97.3391 334.152C103.927 327.014 110.494 319.889 117.168 312.867L114.269 310.111C107.57 317.159 100.982 324.306 94.3996 331.44L97.3391 334.152ZM116.138 309.534C89.772 303.881 63.4076 297.452 38.1051 288.409L36.7589 292.175C62.3097 301.308 88.876 307.78 115.299 313.445L116.138 309.534ZM37.4134 292.292C50.4937 292.414 63.597 293.351 76.6721 294.567L77.0426 290.585C63.9178 289.364 50.6902 288.415 37.4506 288.292L37.4134 292.292ZM76.6722 294.567C99.6513 296.704 122.448 300.059 145.336 303.437L145.92 299.48C123.048 296.104 100.146 292.733 77.0426 290.585L76.6722 294.567ZM144.132 300.131C137.859 307.196 131.581 314.229 125.21 321.176L128.158 323.88C134.552 316.907 140.847 309.855 147.123 302.787L144.132 300.131ZM126.277 324.486C137.591 326.839 148.855 329.396 160.046 332.241L161.031 328.364C149.774 325.503 138.452 322.932 127.091 320.57L126.277 324.486ZM160.046 332.241C175.886 336.27 191.694 340.64 206.889 346.429L208.313 342.691C192.898 336.818 176.909 332.402 161.032 328.364L160.046 332.241ZM207.578 342.56C197.272 342.678 186.928 342.082 176.585 341.311L176.287 345.3C186.664 346.073 197.144 346.679 207.624 346.56L207.578 342.56ZM176.585 341.311C149.629 339.301 122.936 335.202 96.1926 330.822L95.5462 334.77C122.298 339.15 149.142 343.275 176.287 345.3L176.585 341.311Z" fill="#272727" mask="url(#path-8-inside-4_104_228)"/>
<mask id="path-10-inside-5_104_228" fill="white">
<path d="M-0.000123232 464.027C12.7799 460.88 25.7679 458.527 38.7599 456.457C61.6119 452.816 84.5825 450.405 107.584 448C103.259 456.403 98.9172 464.784 94.4612 473.111C106.028 472.581 117.604 472.263 129.184 472.243C145.548 472.215 162.04 472.527 178.313 474.377C168.275 477.072 158.039 479.072 147.811 480.895C121.107 485.651 94.1546 488.309 67.1573 490.703C71.764 482.156 76.3679 473.611 81.0986 465.136C54.1266 466.204 26.8865 466.521 -0.000123232 464.027"/>
</mask>
<path d="M-0.000123232 464.027C12.7799 460.88 25.7679 458.527 38.7599 456.457C61.6119 452.816 84.5825 450.405 107.584 448C103.259 456.403 98.9172 464.784 94.4612 473.111C106.028 472.581 117.604 472.263 129.184 472.243C145.548 472.215 162.04 472.527 178.313 474.377C168.275 477.072 158.039 479.072 147.811 480.895C121.107 485.651 94.1546 488.309 67.1573 490.703C71.764 482.156 76.3679 473.611 81.0986 465.136C54.1266 466.204 26.8865 466.521 -0.000123232 464.027" fill="white"/>
<path d="M38.7599 456.457L39.0745 458.432L39.0746 458.432L38.7599 456.457ZM107.584 448L109.362 448.915L111.055 445.626L107.376 446.011L107.584 448ZM94.4612 473.111L92.6978 472.167L91.0376 475.269L94.5526 475.109L94.4612 473.111ZM129.184 472.243L129.18 470.243L129.18 470.243L129.184 472.243ZM178.313 474.377L178.832 476.309L178.539 472.39L178.313 474.377ZM147.811 480.895L148.161 482.864L148.161 482.864L147.811 480.895ZM67.1573 490.703L65.3968 489.754L63.6347 493.023L67.3339 492.695L67.1573 490.703ZM81.0986 465.136L82.8449 466.111L84.5834 462.996L81.0194 463.138L81.0986 465.136ZM0.478032 465.969C13.1807 462.841 26.1072 460.498 39.0745 458.432L38.4453 454.482C25.4286 456.555 12.379 458.919 -0.478279 462.085L0.478032 465.969ZM39.0746 458.432C61.8649 454.801 84.7824 452.395 107.792 449.989L107.376 446.011C84.3827 448.415 61.3589 450.831 38.4452 454.482L39.0746 458.432ZM105.806 447.085C101.481 455.485 97.146 463.855 92.6978 472.167L96.2246 474.054C100.688 465.713 105.036 457.32 109.362 448.915L105.806 447.085ZM94.5526 475.109C106.095 474.58 117.641 474.263 129.187 474.243L129.18 470.243C117.566 470.263 105.96 470.582 94.3698 471.113L94.5526 475.109ZM129.187 474.243C145.532 474.215 161.931 474.527 178.087 476.365L178.539 472.39C162.149 470.526 145.564 470.215 129.18 470.243L129.187 474.243ZM177.795 472.446C167.84 475.118 157.671 477.106 147.46 478.926L148.161 482.864C158.406 481.038 168.709 479.026 178.832 476.309L177.795 472.446ZM147.46 478.926C120.85 483.665 93.9736 486.318 66.9807 488.71L67.3339 492.695C94.3357 490.301 121.364 487.636 148.161 482.864L147.46 478.926ZM68.9178 491.652C73.5259 483.102 78.1227 474.57 82.8449 466.111L79.3522 464.161C74.6131 472.651 70.0021 481.21 65.3968 489.754L68.9178 491.652ZM81.0194 463.138C54.0769 464.204 26.94 464.518 0.184652 462.035L-0.184899 466.018C26.8331 468.525 54.1763 468.204 81.1777 467.134L81.0194 463.138Z" fill="#272727" mask="url(#path-10-inside-5_104_228)"/>
</svg>
