<svg width="312" height="90" viewBox="0 0 312 90" fill="none" xmlns="http://www.w3.org/2000/svg">
<g clip-path="url(#clip0_6_21)">
<path d="M311.786 0H99.2143V90H311.786V0Z" fill="#00519E"/>
<path d="M90 0H0V90H90V0Z" fill="#00519E"/>
<path d="M115.607 27.1072H124.179V25.1786H117.964V10.8214H115.607V27.1072ZM134.357 25.2857C133.821 25.5 133.179 25.7143 132.214 25.7143C129.107 25.7143 128.143 22.8214 128.143 20.6786H134.679V20.1429C134.679 17.4643 133.393 15.6429 130.607 15.6429C129.214 15.6429 126 16.1786 126 21C126 25.3929 128.143 27.4286 131.571 27.4286C132.75 27.4286 133.5 27.2143 134.357 27V25.2857ZM128.25 19.1786C128.25 18.6429 128.786 17.25 130.5 17.25C132.107 17.25 132.536 18.5357 132.536 19.1786H128.25ZM138.107 27.1072H140.25V15.8572H138.107V27.1072ZM137.893 13.1786H140.464V10.8214H137.893V13.1786ZM145.821 10.8214H143.679V22.3929C143.679 23.7857 143.786 27.3214 148.071 27.3214C151.286 27.3214 152.571 25.0714 152.571 21.5357C152.571 18.6429 151.821 15.5357 148.714 15.5357C146.893 15.5357 146.036 16.7143 145.821 17.3572V10.8214ZM145.821 21.4286C145.821 19.9286 146.464 17.25 148.179 17.25C149.893 17.25 150.214 19.9286 150.214 21.5357C150.214 23.5714 149.786 25.7143 147.857 25.7143C145.929 25.7143 145.821 23.1429 145.821 21.4286ZM155.786 27.1072H157.929V22.3929C157.929 20.1429 159.107 17.7857 160.929 17.7857C162.429 17.7857 162.429 18.9643 162.429 21V27.1072H164.571V19.2857C164.571 17.8929 164.143 15.5357 161.571 15.5357C159.321 15.5357 158.357 17.25 158.036 18.2143V15.8572H155.893L155.786 27.1072ZM168.429 27.1072H170.571V15.8572H168.429V27.1072ZM168.214 13.1786H170.786V10.8214H168.214V13.1786ZM173.464 27.1072H181.714V25.5H176.036L181.5 17.5714V15.9643H173.893V17.5714H178.929L173.464 25.5V27.1072Z" fill="white"/>
<path d="M126.429 36.9643H124.071V48C124.071 49.1786 124.071 51.6429 120.857 51.6429C117.75 51.6429 117.75 49.1786 117.75 48V36.9643H115.393V48.4286C115.393 51.9643 117.75 53.4643 120.857 53.4643C124.071 53.4643 126.429 51.8572 126.429 48.4286V36.9643ZM129.643 53.25H131.786V48.5357C131.786 46.2857 132.964 43.9286 134.786 43.9286C136.286 43.9286 136.286 45.1072 136.286 47.1429V53.25H138.429V45.4286C138.429 44.0357 138 41.6786 135.429 41.6786C133.179 41.6786 132.214 43.3929 131.893 44.3572V42H129.75L129.643 53.25ZM141.964 53.25H144.107V42H141.964V53.25ZM141.75 39.3214H144.321V36.9643H141.75V39.3214ZM150.857 53.25H153L156.857 42H154.5L151.929 50.1429L148.929 42H146.571L150.857 53.25ZM166.5 51.5357C165.964 51.75 165.321 51.9643 164.357 51.9643C161.25 51.9643 160.286 49.0714 160.286 46.9286H166.821V46.3929C166.821 43.7143 165.536 41.8929 162.75 41.8929C161.357 41.8929 158.143 42.4286 158.143 47.25C158.143 51.6429 160.286 53.6786 163.714 53.6786C164.893 53.6786 165.643 53.4643 166.5 53.25V51.5357ZM160.393 45.4286C160.393 44.8929 160.929 43.5 162.643 43.5C164.25 43.5 164.679 44.7857 164.679 45.4286H160.393ZM169.929 53.25H172.071V48.5357C172.071 45.1072 173.679 44.1429 175.607 44.1429V41.7857C173.357 41.7857 172.5 43.3929 172.179 44.3572V42.1072H170.036V53.25H169.929ZM181.071 46.2857C180.321 45.8572 179.464 45.4286 179.464 44.6786C179.464 43.9286 180.429 43.5 181.286 43.5C182.464 43.5 183.536 44.0357 183.857 44.1429V42.2143C183.321 42.1072 182.464 41.7857 181.286 41.7857C178.929 41.7857 177.321 42.8572 177.321 44.8929C177.321 46.5 178.5 47.25 179.571 47.8929L180.643 48.5357C181.393 49.0714 182.464 49.5 182.464 50.3572C182.464 51.5357 181.179 51.75 180.214 51.75C179.036 51.75 177.643 51.2143 177.429 51.1072V52.9286C177.964 53.0357 178.929 53.3572 180.429 53.3572C183 53.3572 184.607 52.2857 184.607 49.9286C184.607 48.1072 183.214 47.3572 182.036 46.6072L181.071 46.2857ZM187.393 53.25H189.536V42H187.393V53.25ZM187.179 39.3214H189.75V36.9643H187.179V39.3214ZM199.393 51.75C199.071 51.8572 198.643 51.9643 198.214 51.9643C196.607 51.9643 196.393 50.7857 196.393 49.8214V43.8214H199.5V42.2143H196.393V38.25L194.25 39.5357V42.2143H192.214V43.8214H194.25V50.8929C194.25 52.3929 194.893 53.5714 197.571 53.5714C198.107 53.5714 198.75 53.5714 199.286 53.3572L199.393 51.75ZM202.071 39.75H204.964V37.1786H202.071V39.75ZM206.893 39.75H209.786V37.1786H206.893V39.75ZM207.643 53.25H209.786V45.5357C209.786 44.5714 209.786 41.7857 206.143 41.7857C203.036 41.7857 201.964 43.3929 201.964 45.1072H204.214C204.214 44.25 204.75 43.3929 206.036 43.3929C206.786 43.3929 207.536 43.7143 207.75 44.7857V46.7143C204.857 46.7143 201.643 47.4643 201.643 50.3572C201.643 52.0714 202.714 53.3572 204.857 53.3572C206.571 53.3572 207.429 52.2857 207.75 51.75L207.643 53.25ZM207.643 48.3214V48.9643C207.643 50.25 206.571 51.9643 205.071 51.9643C204.429 51.9643 203.893 51.4286 203.893 50.5714C203.893 49.1786 205.607 48.4286 207.214 48.4286L207.643 48.3214ZM219.321 51.75C219 51.8572 218.571 51.9643 218.143 51.9643C216.536 51.9643 216.321 50.7857 216.321 49.8214V43.8214H219.429V42.2143H216.321V38.25L214.179 39.5357V42.2143H212.143V43.8214H214.179V50.8929C214.179 52.3929 214.821 53.5714 217.5 53.5714C218.036 53.5714 218.679 53.5714 219.214 53.3572L219.321 51.75Z" fill="white"/>
<path d="M136.071 79.3929H138.214V71.6786C138.214 70.7143 138.214 67.9286 134.571 67.9286C131.464 67.9286 130.393 69.5357 130.393 71.25H132.643C132.643 70.3929 133.179 69.5357 134.464 69.5357C135.214 69.5357 135.964 69.8572 136.179 70.9286V72.9643C133.286 72.9643 130.071 73.7143 130.071 76.6072C130.071 78.3214 131.143 79.6072 133.286 79.6072C135 79.6072 135.857 78.5357 136.179 78L136.071 79.3929ZM136.071 74.3572V75C136.071 76.2857 135 78 133.5 78C132.857 78 132.321 77.4643 132.321 76.6072C132.321 75.2143 134.036 74.4643 135.643 74.4643L136.071 74.3572ZM141.75 79.3929H143.893V74.6786C143.893 72.4286 145.071 70.0714 146.893 70.0714C148.393 70.0714 148.393 71.25 148.393 73.2857V79.3929H150.536V71.5715C150.536 70.1786 150.107 67.8214 147.536 67.8214C145.286 67.8214 144.321 69.5357 144 70.5V68.1429H141.857L141.75 79.3929ZM154.5 79.3929H156.643V74.6786C156.643 72.4286 157.821 70.0714 159.643 70.0714C161.143 70.0714 161.143 71.25 161.143 73.2857V79.3929H163.286V71.5715C163.286 70.1786 162.857 67.8214 160.286 67.8214C158.036 67.8214 157.071 69.5357 156.75 70.5V68.1429H154.607L154.5 79.3929ZM171.107 79.6072C174.429 79.6072 176.036 77.25 176.036 73.7143C176.036 70.1786 174.429 67.8214 171.107 67.8214C167.679 67.8214 166.179 70.0715 166.179 73.7143C166.071 77.3572 167.679 79.6072 171.107 79.6072ZM168.429 73.8214C168.429 72 168.75 69.6429 171 69.6429C173.25 69.6429 173.571 72 173.571 73.8214C173.571 75.6429 173.25 78 171 78C168.75 78 168.429 75.5357 168.429 73.8214ZM181.286 79.3929H183.429L187.286 68.1429H185.036L182.464 76.2857L179.464 68.1429H177.107L181.286 79.3929ZM197.143 77.5714C196.607 77.7857 195.964 78 195 78C191.893 78 190.929 75.1072 190.929 72.9643H197.464V72.4286C197.464 69.75 196.179 67.9286 193.393 67.9286C192 67.9286 188.786 68.4643 188.786 73.2857C188.786 77.6786 190.929 79.7143 194.357 79.7143C195.536 79.7143 196.286 79.5 197.143 79.2857V77.5714ZM191.036 71.5715C191.036 71.0357 191.571 69.6429 193.286 69.6429C194.893 69.6429 195.321 70.9286 195.321 71.5715H191.036ZM200.571 79.3929H202.714V74.6786C202.714 71.25 204.321 70.2857 206.25 70.2857V67.9286C204 67.9286 203.143 69.5357 202.821 70.5V68.25H200.679V79.3929H200.571ZM115.607 79.3929H117.964V71.8929H124.393V79.3929H126.75V63.1072H124.393V69.9643H117.964V63.1072H115.607V79.3929Z" fill="white"/>
<path d="M27.3214 41.1428C27.3214 41.1428 27.4286 39.75 28.6071 39.8571C29.0357 39.8571 29.1428 40.2857 29.25 40.7143C29.7857 41.6786 29.5714 42.5357 29.5714 42.5357C29.5714 42.5357 29.4643 43.5 28.5 44.1428C28.5 44.1428 28.1786 44.4643 28.6071 45C29.0357 45.6428 29.25 46.1786 29.1429 46.8214C29.0357 47.4643 28.7143 47.4643 28.2857 47.4643C27.75 47.4643 27.8571 48.6428 27.8571 48.6428H28.2857C28.2857 48.6428 28.7143 48.1071 29.25 48.1071C29.7857 48.1071 29.6786 49.2857 29.6786 49.2857V51.5357C29.7857 51.9643 29.25 52.1786 29.25 52.5C29.25 52.8214 29.4643 54.6428 28.3929 54.6428C27.4286 54.6428 26.8929 54 26.8929 53.0357C26.8929 52.3928 26.8929 51.6428 26.8929 51.6428C26.8929 51.6428 27 51.2143 26.6786 51.2143C26.5714 51.2143 26.4643 51 26.3571 50.7857C26.3571 50.6786 26.1429 50.4643 26.1429 50.25V49.1786C26.1429 49.1786 25.9286 48.9643 25.9286 48.4286C25.9286 47.8928 26.25 48 26.25 47.6786C26.25 47.25 26.25 45.6428 26.25 45.6428C26.25 45.6428 26.25 45 26.5714 45C26.5714 44.5714 26.8929 44.3571 27.2143 44.3571C27.2143 44.3571 27.3214 44.1428 27.2143 43.9286C27.1071 43.7143 27.1071 43.9286 27.1071 43.2857C27.1071 42.6428 27 42.5357 26.8929 42.2143C26.8929 41.6786 27.3214 41.1428 27.3214 41.1428ZM45.8571 40.6071C46.6071 40.2857 48.5357 39.1071 48.9643 39.5357C49.1786 39.75 49.6071 40.2857 49.6071 40.9286C49.7143 41.8928 49.2857 42.9643 48 43.2857C48 43.2857 47.6786 43.8214 46.9286 44.1428C46.5 44.25 45.9643 45.5357 45.9643 45.5357C45.9643 45.5357 45.5357 46.1786 45.4286 47.0357C45.4286 47.3571 45.4286 47.6786 45.5357 48C45.75 48.5357 46.0714 49.1786 46.6071 49.3928C47.3571 49.7143 47.8928 49.2857 48.4286 48.9643C48.9643 48.6428 49.5 48.2143 49.9286 48.2143C50.7857 48.2143 51.8571 48.2143 51.8571 47.1428C51.8571 46.0714 51.6428 45.4286 52.2857 44.6786C52.2857 44.6786 52.2857 42.9643 52.3929 42.9643C52.6071 42.6428 53.0357 42.6428 53.0357 42C53.0357 41.4643 52.8214 40.9286 52.0714 40.8214C51.8571 40.8214 51.4286 40.1786 51.4286 40.0714C51 39.8571 51 39.4286 51 39.4286C51 39.4286 51 38.7857 52.3929 39C53.7857 39.2143 53.8928 40.3928 53.8928 40.3928C53.8928 40.3928 54.2143 41.25 54 41.7857C53.7857 42.3214 53.6786 42.3214 53.7857 42.75C53.8928 43.1786 54 43.7143 53.8928 44.1428C53.7857 44.5714 53.5714 44.6786 53.5714 45C53.5714 45.3214 54.1071 45.6428 54 46.5C53.8929 47.4643 53.0357 47.7857 53.0357 48.8571C53.1428 49.9286 52.6071 50.4643 51.9643 50.6786C51.2143 50.8928 49.6071 53.5714 47.8928 53.6786C46.1786 53.7857 45.4286 53.8928 43.2857 52.0714C41.0357 50.25 41.4643 49.2857 41.7857 48.75C42.1071 48.3214 42.9643 46.9286 42.6428 46.0714C42.2143 45.2143 42.4286 44.8928 42.75 44.4643C43.1786 44.0357 43.8214 43.7143 44.0357 42.75C44.1428 42.2143 44.6786 42 45 41.25C44.8928 40.8214 45.3214 40.7143 45.8571 40.6071ZM12.9643 65.8928C12.9643 65.8928 13.5 65.4643 13.6071 65.1428C13.7143 64.8214 14.4643 64.8214 14.5714 65.25C14.5714 65.6786 14.7857 66.75 15.5357 67.2857C16.0714 67.7143 15.75 69.2143 15.5357 69.2143C15.3214 69.2143 14.8929 69.5357 15 70.8214C15.1071 72.2143 14.4643 72.9643 14.4643 72.9643C14.4643 72.9643 14.25 73.6071 14.5714 73.7143C14.8929 73.8214 15.4286 74.25 15.2143 74.6786C15 75.1071 14.3571 75.6428 14.5714 76.3928C14.7857 77.1428 14.8929 77.1428 15.5357 77.1428C16.1786 77.1428 17.1429 77.1428 17.1429 78.1071C17.1429 78.75 15.2143 81 13.7143 81.3214C13.7143 81.3214 13.2857 81.1071 12.9643 81C12.75 80.8928 12.5357 81.1071 12.4286 80.8928C11.6786 80.25 11.6786 79.8214 11.6786 78.75C11.6786 78.2143 11.7857 77.4643 11.6786 76.9286C11.6786 76.5 11.4643 76.2857 11.3571 76.0714C11.25 75.8571 11.5714 75.3214 12.1071 74.1428C12.6429 72.9643 12.6429 72.75 12.2143 71.6786C11.7857 70.6071 12 70.8214 12.2143 69.8571C12.3214 68.8928 12 68.1428 12.4286 67.7143C12.8571 67.1786 12.5357 66.6428 12.75 66.4286C12.75 66.2143 12.9643 65.8928 12.9643 65.8928ZM74.1428 14.5714C74.1428 14.5714 73.5 14.0357 74.5714 13.1786C75.1071 12.75 75.9643 12.6428 76.8214 13.3928C77.3571 13.8214 77.25 14.7857 77.0357 15.75C76.3929 16.6071 76.3929 16.5 76.3929 17.1428C76.3929 17.6786 76.3928 18 76.2857 18.2143C76.1786 18.5357 75.9643 18.75 75.9643 19.1786C75.9643 19.6071 76.0714 20.0357 75.75 20.5714C75.4286 20.7857 75.2143 21 75.2143 21.3214V22.5C75.2143 22.5 74.7857 23.1428 74.7857 23.3571V26.1428C74.7857 26.1428 75.1071 26.5714 75.2143 27C75.3214 27.6428 75.5357 27.6428 75.6428 27.75C75.75 27.9643 75.9643 28.1786 75.9643 28.6071C75.9643 29.0357 75.6429 29.25 75.4286 29.4643C75.1071 29.6786 74.8928 29.8928 74.5714 29.8928C73.5 29.8928 72.9643 29.1428 72.9643 28.9286C72.8571 28.5 72.6428 28.5 72.4286 28.3928C72.3214 28.2857 72.1071 27.9643 72.1071 27.2143C72.1071 26.4643 72.2143 25.8214 71.8928 25.5C71.4643 25.0714 71.6786 24.2143 71.8928 23.7857C72.1071 23.4643 72.1071 23.3571 72.1071 22.8214C72.2143 22.5 72.6428 22.0714 72.75 21.5357C72.75 21 72.4286 21 72.4286 20.25C72.4286 19.9286 72.4286 19.6071 72.5357 19.2857C72.6428 18.8571 72.6428 18.75 73.0714 18.1071C73.3928 17.4643 73.8214 17.3571 74.3571 17.0357C74.3571 17.0357 74.3571 16.3928 74.25 15.75C74.25 15.1071 74.25 14.6786 74.1428 14.5714C74.1428 14.6786 74.1428 14.5714 74.1428 14.5714ZM59.25 11.25C59.25 11.25 59.4643 10.7143 59.8928 10.8214C60.3214 10.9286 60.3214 10.9286 61.1786 11.4643C62.1428 12 62.25 11.8928 62.25 12.3214C62.25 12.75 61.9286 13.0714 61.6071 13.2857C61.2857 13.5 60.75 13.6071 60.6428 14.0357C60.5357 14.4643 60.3214 14.8928 59.8928 14.8928C59.4643 14.8928 59.3571 14.4643 59.4643 14.1428C59.5714 13.8214 60 13.6071 59.8928 12.9643C59.7857 12.3214 59.8928 12.1071 59.5714 12C59.25 11.7857 59.1428 11.6786 59.1428 11.5714C59.1428 11.25 59.25 11.25 59.25 11.25ZM59.4643 19.3928C59.4643 19.3928 59.8928 18.8571 60.5357 19.2857C61.1786 19.6071 61.0714 20.25 60.75 20.6786C60.4286 21.1071 60.2143 21.5357 60.2143 22.0714C60.3214 22.6071 60.4286 23.6786 59.8928 23.7857C59.4643 23.8928 59.3571 22.8214 59.4643 22.5C59.5714 22.1786 59.8928 22.1786 59.8928 21.6428C59.7857 21 59.5714 21.4286 59.4643 21C59.3571 20.4643 59.3571 20.4643 59.25 20.1428C59.1428 19.7143 59.4643 19.3928 59.4643 19.3928ZM59.0357 26.5714C59.0357 26.5714 59.0357 25.8214 59.6786 26.0357C60.3214 26.25 60.1071 26.8928 60.3214 27.1071C60.5357 27.3214 61.2857 28.3928 60.75 28.7143C60.3214 29.0357 59.7857 28.3928 59.7857 28.1786C59.7857 27.9643 59.6786 27.5357 59.4643 27.4286C59.25 27.3214 59.0357 27.1071 59.0357 26.8928V26.5714ZM59.0357 29.4643C59.0357 29.4643 58.9286 28.3928 59.5714 28.5C59.5714 28.5 59.7857 28.6071 59.7857 29.0357C59.7857 29.4643 59.6786 29.4643 60 29.7857C60.3214 30.1071 60.1071 30.3214 60.3214 30.5357C60.5357 30.6428 61.0714 31.1786 61.0714 31.6071C61.0714 32.0357 60.6428 32.25 60.6428 32.5714C60.6428 32.8928 60.2143 33.1071 60.2143 33.5357C60.2143 33.9643 60.3214 33.9643 60.4286 34.1786C60.5357 34.5 60.6428 34.9286 60.2143 35.25C59.7857 35.5714 59.3571 36.2143 59.3571 36.4286C59.3571 36.6428 59.25 37.1786 59.0357 37.1786C58.9286 37.1786 58.5 36.8571 58.5 36.5357C58.5 36.2143 58.9286 36.1071 58.9286 35.4643C58.9286 34.8214 58.8214 33.8571 59.0357 33.6428C59.25 33.5357 59.6786 33.2143 59.6786 32.5714C59.6786 31.9286 59.7857 32.0357 59.8928 31.8214C60 31.7143 60 31.3928 59.6786 31.3928C59.3571 31.3928 58.8214 31.2857 58.8214 30.8571C59.0357 30.5357 59.0357 29.4643 59.0357 29.4643ZM58.2857 39.2143C58.2857 39.2143 58.3928 38.6786 58.7143 38.7857C59.0357 38.8928 59.1428 38.8928 59.1428 39C59.25 39.1071 59.4643 39.4286 59.25 39.6428C59.0357 39.8571 58.9286 39.8571 58.7143 39.75C58.3928 39.5357 58.2857 39.2143 58.2857 39.2143ZM58.0714 41.7857C58.0714 41.7857 58.1786 40.9286 58.9286 40.7143C59.6786 40.5 59.8928 42.6428 59.8928 42.6428C59.8928 42.6428 59.8928 43.1786 59.5714 43.2857C59.25 43.5 59.5714 42.9643 58.9286 43.0714C58.3928 43.1786 59.1428 42.2143 58.6071 42.1071C58.0714 42 57.9643 41.8928 58.0714 41.7857ZM57.75 47.4643C57.75 47.0357 57.8571 46.8214 58.0714 46.6071C58.1786 46.2857 58.2857 46.0714 58.6071 45.9643C58.6071 45.9643 58.9286 45.8571 59.1428 46.5C59.25 47.0357 59.5714 47.0357 59.6786 47.5714C59.8928 49.0714 59.4643 47.6786 59.4643 49.1786C59.4643 49.1786 59.5714 49.5 58.9286 50.0357C58.9286 50.0357 58.9286 51.1071 58.6071 51.5357C58.6071 51.5357 58.6071 51.75 58.8214 52.1786C59.0357 52.5 59.4643 53.5714 59.1428 54.1071C58.8214 54.6428 58.7143 54.3214 58.7143 55.1786C58.6071 56.0357 58.6071 57.6428 58.8214 57.8571C59.0357 58.0714 59.0357 58.8214 58.7143 58.9286C58.3928 59.0357 58.0714 58.9286 57.8571 58.6071C57.6428 58.2857 57.4286 58.3928 57.5357 57.6428C57.5357 56.8928 57.5357 55.3928 57.5357 55.3928C57.5357 55.3928 57.75 54.75 57.4286 54.5357C57.1071 54.3214 57.1071 54.3214 57.1071 53.7857C57.1071 53.5714 57.1071 52.9286 57.1071 52.3928C57.1071 51.8571 57.1071 51.6428 57.4286 51.2143C57.6428 50.7857 57.9643 50.3571 58.0714 49.9286C58.2857 49.5 58.7143 49.3928 58.7143 49.0714C58.7143 48.75 58.6071 48.3214 58.2857 48.1071C57.75 47.8928 57.75 47.4643 57.75 47.4643ZM57.4286 60.5357C57.4286 60.5357 57.4286 59.8928 57.8571 59.7857C58.3928 59.6786 58.8214 59.8928 58.7143 60.2143C58.6071 60.6428 58.3928 61.1786 58.0714 61.2857C57.6428 61.3928 57.75 60.8571 57.5357 60.75L57.4286 60.5357ZM56.8928 64.8214C56.8928 64.7143 56.8928 64.1786 57.2143 64.1786C57.5357 64.2857 57.6428 64.2857 57.6428 64.8214C57.6428 65.3571 57.5357 65.25 57.75 65.4643C57.9643 65.6786 58.1786 66.3214 57.9643 66.6428C57.75 67.0714 57.3214 67.1786 57.4286 67.7143C57.4286 68.25 57.2143 68.8928 57 68.8928C56.7857 68.8928 56.5714 68.6786 56.5714 68.25C56.5714 67.8214 56.3571 67.6071 56.3571 67.5C56.25 67.3928 56.3571 66.9643 56.6786 66.8571C57 66.75 57.1071 66.4286 57.1071 66.3214C57.1071 66.1071 57.1071 66 57.5357 65.7857C57.8571 65.5714 57.4286 65.25 57.3214 65.1428C57 65.0357 56.8928 64.8214 56.8928 64.8214ZM55.2857 70.7143C55.2857 70.7143 55.3928 69.9643 55.8214 69.9643C56.25 70.0714 56.3571 70.3928 56.3571 70.8214C56.25 71.1428 56.0357 71.8928 55.7143 71.8928C55.3928 71.8928 55.1786 71.1428 55.1786 71.0357C55.1786 70.8214 55.2857 70.7143 55.2857 70.7143ZM56.3571 76.6071C56.3571 76.6071 56.0357 76.1786 56.3571 76.0714C56.6786 75.9643 57 75.8571 57.3214 76.0714C57.6428 76.3928 58.5 77.1428 57.9643 77.4643C57.2143 77.7857 56.3571 76.6071 56.3571 76.6071ZM25.1786 70.6071C25.1786 70.6071 25.1786 70.6071 24.75 70.8214C24.3214 71.0357 24.3214 71.8928 24.3214 72.2143C24.3214 72.5357 23.8929 72.3214 23.7857 72.9643C23.6786 73.6071 24.5357 74.1428 24.6429 74.3571C24.8571 74.5714 25.3929 74.6786 26.1429 74.8928C27.1071 75.2143 27.6429 75 28.6071 74.3571C30.2143 73.2857 29.8929 71.1428 30 70.2857C30 69.4286 30.1071 69.4286 29.25 69C28.3928 68.5714 28.7143 68.6786 28.1786 68.1428C27.8571 67.8214 27 67.8214 26.6786 68.1428C26.3571 68.4643 26.6786 69.3214 26.4643 69.8571C26.1429 70.1786 25.1786 70.6071 25.1786 70.6071ZM22.1786 70.3928C22.1786 70.3928 22.0714 69.4286 22.9286 69.2143C23.7857 69 23.7857 68.6786 24 67.9286C24.2143 67.0714 26.7857 66.2143 27.75 66.2143C29.0357 66.2143 29.4643 66.8571 30 66.8571C30.5357 66.8571 31.1786 66.1071 32.1429 66.2143C33.1071 66.4286 33.1071 67.1786 32.7857 67.5C32.6786 67.6071 32.6786 68.6786 33 68.7857C33.2143 69 33 69.9643 32.7857 70.2857C32.4643 70.6071 32.25 72.1071 31.9286 72.5357V74.25C31.7143 74.6786 31.1786 74.8928 30.8571 75.3214C30.6428 75.6428 30.8571 75.75 30.75 75.9643C30.3214 77.0357 29.6786 77.4643 28.9286 77.4643C27.9643 77.4643 27.3214 77.3571 27 78C26.6786 78.6428 26.4643 78.75 25.5 78.8571C24.5357 78.8571 23.6786 78.9643 23.3571 78.4286C23.0357 77.8928 22.1786 77.8928 22.1786 77.8928C22.1786 77.8928 21.75 77.7857 21.6429 77.25C21.5357 76.7143 21.3214 76.3928 21.2143 76.2857C20.8929 76.1786 20.8929 74.6786 21 74.5714C21.1071 74.4643 21.2143 74.25 21.3214 73.9286C21.4286 73.5 21.4286 73.0714 21.4286 72.5357C21.4286 72.5357 21.75 72.4286 21.75 71.7857C21.75 71.1428 21.75 71.0357 21.9643 70.8214L22.1786 70.3928ZM46.2857 70.0714C46.2857 70.0714 46.2857 70.1786 45.9643 70.5C45.75 70.8214 43.8214 70.8214 43.6071 70.8214C43.3928 70.8214 42.75 70.9286 42.5357 71.8928C42.5357 72.2143 42.8571 72.8571 43.0714 73.2857C43.5 73.8214 44.0357 74.25 44.5714 74.25C45.3214 74.25 45.1071 74.3571 45.5357 74.0357C45.75 73.9286 45.9643 73.8214 46.3928 73.6071C46.8214 73.3928 47.1428 73.2857 47.3571 72.9643C47.7857 72.3214 47.5714 71.4643 47.8928 71.3571C48.2143 71.1428 48.4286 70.6071 48.4286 70.6071C48.4286 70.6071 48.6428 69.8571 48.4286 69.4286C48.3214 69.2143 48.1071 69.1071 47.7857 69.1071C46.6071 68.8928 46.2857 70.0714 46.2857 70.0714ZM42.75 75.8571C42.6429 75.6428 42.5357 75.6428 42.5357 75.6428V75.8571C42.75 75.9643 42.75 75.8571 42.75 75.8571ZM40.2857 70.7143C40.2857 70.6071 40.2857 70.1786 40.2857 69.75C40.3928 69.2143 40.8214 68.4643 40.9286 68.25C41.25 67.9286 41.8928 67.0714 42.4286 67.0714C43.0714 67.0714 44.1428 66.8571 44.4643 66.3214C44.8928 65.7857 44.7857 65.4643 45.5357 65.4643C46.2857 65.4643 45.8571 65.8928 46.8214 65.7857C47.7857 65.6786 47.3571 65.0357 47.8928 64.8214C48.1071 64.7143 48.75 64.6071 49.0714 64.7143C49.6071 64.8214 49.5 65.1428 50.0357 65.1428C50.6786 65.1428 51 65.1428 51 65.4643C51 65.8928 50.8929 66 50.7857 66C50.6786 66 50.7857 67.0714 50.7857 67.0714C50.7857 67.0714 50.8928 67.8214 50.4643 68.25C50.3571 68.5714 50.3571 68.8928 50.25 69.2143V72C50.25 72 49.7143 72.5357 49.8214 73.9286C49.8214 74.25 49.6071 74.25 49.5 74.4643C49.3928 74.7857 49.1786 75 48.9643 75.5357C48.4286 76.8214 47.1428 77.1428 47.1428 77.1428C47.1428 77.1428 46.3928 77.3571 46.1786 78C45.9643 78.6428 45.6428 78.75 45.1071 78.8571C44.5714 78.8571 44.1428 78.8571 44.0357 79.1786C43.8214 79.3928 43.7143 79.2857 43.5 79.0714C43.2857 78.8571 42.9643 78 41.7857 78C41.25 78 40.6071 78 40.5 77.5714C40.2857 77.0357 39.9643 76.6071 39.9643 76.5C39.8571 76.3928 39.8571 75.75 39.9643 75.4286C39.9643 75.2143 39.9643 75 39.9643 74.7857C40.0714 74.4643 40.5 74.1428 40.7143 74.0357V73.1786C40.7143 73.1786 40.3928 71.8928 40.2857 71.25C40.2857 70.9286 40.2857 70.7143 40.2857 70.7143ZM48.8571 19.7143C48.75 19.8214 48.75 19.9286 48.75 20.0357C48.6428 20.1428 48.6429 20.25 48.6429 20.3571C48.9643 20.25 48.9643 20.1428 48.9643 20.0357C49.0714 19.9286 49.0714 19.7143 49.0714 19.7143H48.8571ZM49.5 12C49.5 12 50.1428 11.1428 50.6786 11.25C51.2143 11.3571 51.4286 11.8928 51.4286 12.4286C51.4286 13.2857 50.25 14.0357 51 15C51 15.3214 51.2143 15.6428 51.2143 15.9643C51.2143 15.9643 51.1071 16.0714 51.1071 16.2857C51.1071 17.25 51 19.8214 51 20.3571C51 20.6786 50.0357 22.8214 50.1428 23.3571C50.1428 23.8928 50.0357 24.2143 49.1786 24.8571C48.9643 25.0714 48 25.2857 48.1071 26.0357C48.2143 26.7857 48.75 27.6428 48.75 27.6428C48.75 27.6428 49.6071 29.0357 48.9643 29.5714C48.6428 29.7857 48.5357 30.2143 48.4286 30.6428C48.3214 31.0714 48.1071 31.5 46.9286 31.2857C46.9286 31.2857 46.6071 30.9643 46.3928 30.75C46.0714 30.4286 45.6428 30.2143 45.6428 29.5714C45.6428 28.3928 45.6428 25.9286 45.6428 25.9286C45.6428 25.5 45.2143 24.9643 45.5357 24.3214C45.8571 23.6786 45.9643 23.1428 46.1786 22.5C46.2857 21.8571 46.9286 21.2143 46.9286 20.7857C46.9286 20.5714 46.9286 20.3571 46.8214 20.0357C46.7143 19.6071 46.5 19.2857 46.6071 18.8571C46.8214 18.1071 47.1428 17.8928 47.7857 18C48.4286 18 49.0714 17.1428 49.0714 16.5C49.0714 15.8571 49.0714 15.3214 49.0714 15C48.9643 14.4643 48.75 14.25 48.9643 13.6071C49.0714 13.2857 49.0714 12.75 49.0714 12.75C49.0714 12.75 49.2857 12.3214 49.5 12.2143V12ZM77.25 40.2857C77.25 40.6071 77.5714 40.9286 77.8928 40.9286C78.2143 40.9286 78.5357 40.6071 78.5357 40.2857C78.5357 39.9643 78.2143 39.6428 77.8928 39.6428C77.4643 39.6428 77.25 39.9643 77.25 40.2857ZM72.1071 38.7857C72.3214 38.7857 72.3214 38.7857 72.4286 38.7857C72.6428 38.6786 72.75 38.5714 72.75 38.4643C72.75 38.3571 72.4286 38.3571 72.4286 38.3571C72.2143 38.6786 72.2143 38.5714 72.1071 38.5714V38.7857ZM75.3214 37.8214C75.5357 37.7143 75.5357 37.6071 75.5357 37.6071H75.3214C75.3214 37.8214 75.3214 37.8214 75.3214 37.8214ZM75.3214 45.9643C75.4286 46.0714 75.5357 46.1786 75.5357 46.2857C75.75 46.3928 75.75 45.9643 75.75 45.9643C75.6428 45.75 75.5357 45.75 75.4286 45.75C75.3214 45.6428 75.3214 45.9643 75.3214 45.9643ZM71.4643 44.3571C71.4643 44.3571 71.0357 44.1428 70.9286 43.3928C70.8214 42.5357 70.9286 42.6428 70.6071 42.4286C70.2857 42.2143 70.1786 42 70.0714 41.4643C69.9643 41.0357 69.75 40.8214 69.75 40.3928C69.75 39.9643 69.75 39.75 69.9643 39.4286C70.0714 39.2143 69.8571 38.3571 70.0714 37.9286C70.2857 37.6071 71.1429 36.5357 72.1071 36.4286C72.9643 36.3214 72.6428 36.1071 73.2857 36.1071C73.9286 36.1071 74.25 35.8928 74.6786 35.6786C75 35.4643 75 35.3571 75.8571 35.25C76.7143 35.1428 77.3571 34.9286 77.7857 34.9286C78 34.9286 78.3214 34.9286 78.4286 34.8214C78.6428 34.7143 79.1786 34.8214 79.1786 35.25C79.1786 35.6786 79.2857 36.1071 79.3928 36.3214C79.6071 36.9643 79.9286 37.1786 79.9286 37.3928C79.9286 37.6071 80.0357 38.1428 79.7143 38.3571C79.7143 38.3571 79.7143 39.3214 79.5 39.5357C79.3928 39.6428 79.2857 39.8571 79.2857 40.0714C79.1786 40.7143 79.3928 41.1428 78.8571 41.3571C78.3214 41.4643 78.1071 41.6786 78 42.3214C78 43.0714 77.8928 43.2857 77.7857 43.3928C77.6786 43.5 77.25 44.5714 76.8214 45C76.3928 45.3214 75.8571 46.6071 75.5357 46.9286C75.2143 47.1428 75.1071 47.5714 74.7857 47.7857C74.5714 48 74.25 48.1071 74.25 48.1071C74.3571 48.2143 74.4643 48.1071 74.5714 48.1071C74.6786 48.2143 74.5714 48.3214 74.4643 48.5357C74.3571 48.8571 73.8214 48.5357 73.7143 48.8571C73.6071 49.1786 73.2857 49.6071 73.7143 49.8214C73.9286 49.9286 74.1428 49.7143 74.1428 50.1428C74.1428 50.5714 74.4643 50.8928 74.8928 50.7857C75.2143 50.7857 75.5357 50.1428 75.2143 49.9286C75 49.8214 76.7143 49.7143 76.7143 49.7143C77.4643 49.8214 79.0714 49.3928 79.0714 49.5C79.0714 49.6071 79.3929 49.7143 79.6071 49.6071C79.7143 49.6071 79.8214 49.5 79.8214 49.3928C79.9286 49.1786 80.7857 49.0714 81 49.0714C81.2143 49.0714 81.6428 49.0714 81.6428 49.5C81.75 49.9286 81.6428 50.1428 81.9643 50.4643C82.2857 50.6786 82.6071 50.8928 82.5 51.3214C82.3928 51.75 81.9643 51.75 81.75 51.75C81.5357 51.75 80.0357 51.9643 79.9286 52.2857C79.8214 52.6071 79.5 53.0357 79.1786 52.9286C78.8571 52.9286 78.75 52.6071 78.5357 52.6071C78.3214 52.6071 78.3214 52.8214 77.7857 52.9286C77.5714 52.9286 76.6071 53.25 76.0714 53.1428C75 53.25 73.9286 53.1428 73.8214 53.1428C73.5 53.3571 72.5357 53.1428 72.5357 53.1428C72.5357 53.1428 71.6786 52.8214 70.9286 52.8214C70.0714 52.8214 69.2143 52.5 69.2143 52.5C69.2143 52.5 68.8928 52.3928 68.25 52.6071C67.6071 52.8214 67.7143 51.9643 67.7143 51.9643C67.7143 51.9643 67.6071 51.4286 68.3571 51.4286C68.5714 51.4286 69 49.9286 69.3214 49.9286C69.75 49.9286 70.6071 48.8571 70.6071 48.75C70.6071 48.6428 71.7857 47.6786 72.1071 47.3571C72.2143 47.25 72.75 46.0714 72.8571 45.9643C72.9643 45.75 73.2857 44.8928 73.2857 44.8928C73.2857 44.8928 73.2857 44.5714 73.6071 44.5714C74.0357 44.5714 74.25 44.5714 74.25 44.3571C74.25 44.0357 74.0357 42.3214 74.3571 42.4286C74.6786 42.5357 75.2143 42.4286 75.2143 42.3214C75.3214 42 75.1071 41.3571 75.6428 41.1428C76.0714 40.9286 76.7143 41.0357 76.7143 40.3928C76.7143 39.75 76.5 39.2143 76.5 38.7857C76.5 38.5714 76.6071 37.9286 76.1786 37.9286C75.75 37.9286 74.3571 38.25 74.1428 38.25C73.9286 38.25 73.1786 38.3571 73.0714 38.7857C72.9643 39.3214 73.0714 39.6428 73.0714 39.6428C73.0714 39.6428 73.2857 40.2857 72.8571 40.6071C72.4286 40.9286 72.75 41.8928 72.9643 42.3214C72.9643 42.3214 72.3214 42.9643 72.3214 43.1786C72.2143 43.8214 71.4643 44.3571 71.4643 44.3571ZM73.6071 63.1071C73.6071 63.1071 73.3928 63.3214 73.2857 63.5357C73.1786 63.8571 73.0714 63.9643 72.9643 63.9643C72.8571 64.0714 72.8571 64.3928 72.8571 64.8214C72.8571 65.25 72 67.1786 71.6786 67.3928C71.3571 67.6071 70.8214 69.2143 70.6071 69.3214C70.3928 69.4286 69.8571 70.2857 69.6428 70.2857C69.4286 70.2857 69.3214 70.8214 69.75 70.8214C70.0714 70.8214 69.8571 70.6071 70.6071 70.7143C71.3571 70.7143 71.3571 71.1428 71.8928 71.1428C72.5357 71.1428 72.4286 71.25 72.8571 71.25C73.2857 71.25 72.9643 71.25 73.5 70.9286C74.0357 70.7143 74.1428 69.6428 74.1428 69.2143C74.1428 68.7857 74.7857 67.9286 74.8928 67.8214C75 67.7143 75.3214 66.3214 75.1071 66.1071C74.8928 65.8928 74.8928 64.2857 74.8928 63.5357C74.8928 62.7857 75 63 75 62.4643C75 61.9286 74.6786 62.0357 74.4643 62.1428C74.25 62.1428 74.25 62.5714 74.0357 62.6786C73.8214 62.8928 73.6071 63.1071 73.6071 63.1071ZM73.2857 76.0714C73.0714 75.9643 73.0714 76.2857 73.0714 76.2857C73.1786 76.1786 73.1786 76.0714 73.2857 76.0714ZM74.25 60C74.25 59.7857 74.4643 59.3571 75.1071 59.3571C75.4286 59.3571 75.6429 59.4643 75.8571 59.4643C76.0714 59.5714 76.2857 59.4643 76.5 59.6786C76.7143 59.7857 76.5 60.6428 75.9643 60.9643C75.75 61.0714 75.9643 61.9286 76.1786 62.0357C76.6071 62.3571 76.7143 62.4643 77.0357 62.5714C77.25 62.5714 77.8929 62.5714 78 63.1071C78 63.6428 77.7857 63.5357 77.7857 63.75C77.7857 63.9643 77.7857 64.0714 78 64.2857C78.2143 64.3928 78.1071 65.3571 78.1071 65.3571C78.1071 65.3571 78 66.1071 77.6786 66.3214C77.4643 66.4286 77.4643 66.75 77.3571 67.0714C77.25 67.5 77.1429 67.5 77.0357 68.1428C76.9286 68.7857 77.1429 69.5357 76.9286 69.75C76.7143 69.9643 76.6071 70.6071 76.6071 70.7143C76.6071 70.9286 76.5 71.1428 76.8214 71.1428C77.25 71.1428 77.3571 71.0357 77.3571 70.9286C77.3571 70.8214 77.8929 70.7143 78 70.8214C78.2143 70.9286 78.3214 71.1428 78.3214 71.3571C78.3214 71.5714 78.2143 71.7857 78.6429 71.7857C78.9643 71.7857 78.6428 71.1428 78.8571 71.1428C78.9643 71.0357 79.0714 70.9286 79.2857 70.9286C79.5 70.9286 80.5714 70.8214 80.6786 71.25C80.7857 71.6786 80.7857 73.6071 80.25 73.6071C79.7143 73.6071 79.7143 73.6071 79.6071 73.8214C79.5 74.0357 77.8928 74.1428 77.6786 74.25C77.4643 74.3571 76.9286 74.3571 76.6071 74.3571C76.5 74.25 76.5 74.0357 76.2857 73.9286C76.0714 73.8214 75.5357 73.9286 75.5357 74.25C75.5357 74.5714 75.1071 74.7857 75.2143 75.3214C75.2143 75.8571 75.3214 78 75.2143 78.2143C75.1071 78.4286 74.7857 78.5357 74.7857 78.8571C74.7857 79.1786 74.5714 79.7143 74.4643 79.9286C74.3571 80.1428 74.3571 81.3214 74.3571 81.3214C74.3571 81.3214 74.3571 81.6428 74.1428 81.75C73.8214 81.75 73.3928 81 72.9643 81.1071C72.5357 81.1071 71.1428 79.8214 70.9286 79.6071C70.9286 79.6071 70.8214 78.1071 71.0357 78.1071C71.25 78.1071 71.7857 77.3571 71.7857 77.1428C71.8928 76.8214 72 75.8571 72.2143 75.8571C72.4286 75.8571 72.9643 75.9643 72.9643 75.6428C72.9643 75.4286 72.9643 75.3214 72.6429 75.1071C72.2143 74.8928 72 74.25 71.7857 74.0357C71.6786 73.9286 71.25 73.9286 71.0357 73.9286C70.7143 73.9286 69.8571 74.1428 69.5357 74.3571C69.2143 74.5714 67.7143 74.8928 67.6071 74.5714C67.5 74.3571 67.2857 73.7143 67.0714 73.7143C66.8571 73.8214 66.6428 74.1428 66.2143 74.1428C65.7857 74.1428 65.4643 73.8214 65.4643 73.2857C65.4643 72.75 65.4643 72.3214 65.7857 72C66.3214 71.4643 66.1071 70.3928 66.3214 70.1786C66.5357 69.9643 66.9643 69.4286 67.7143 69.3214C68.3571 69.2143 68.6786 68.1428 68.8929 67.8214C69.1071 67.5 70.1786 66.2143 70.1786 65.8928C70.1786 65.8928 70.6071 64.3928 70.7143 64.1786C70.8214 63.6428 72 62.8928 72.3214 62.5714C72.4286 62.3571 72.75 62.1428 72.75 62.1428C72.75 61.8214 74.25 60.3214 74.25 60ZM56.1428 79.9286C56.1428 79.9286 56.25 79.1786 56.6786 79.1786C57.1071 79.2857 57.2143 79.6071 57.2143 80.0357C57.1071 80.3571 56.8928 81.1071 56.5714 81.1071C56.25 81.1071 56.0357 80.3571 56.0357 80.25C56.0357 80.0357 56.1428 79.9286 56.1428 79.9286Z" fill="white"/>
</g>
<defs>
<clipPath id="clip0_6_21">
<rect width="311.786" height="90" fill="white"/>
</clipPath>
</defs>
</svg>
