<svg width="448" height="626" viewBox="0 0 448 626" fill="none" xmlns="http://www.w3.org/2000/svg">
<path d="M179.449 613.738C179.449 620.239 144.007 625.511 100.285 625.511C56.5645 625.511 21.1213 620.239 21.1213 613.738C21.1213 607.238 56.5645 601.966 100.285 601.966C144.007 601.966 179.449 607.238 179.449 613.738Z" fill="#E9E8E7"/>
<path d="M61.635 418.246L59.1464 420.523C56.088 423.32 52.8454 426.352 48.6287 430.355C47.0412 431.862 45.3156 433.358 43.6474 434.806C40.6662 437.392 37.5823 440.067 34.9735 443.044C28.6427 450.267 34.712 457.651 38.3375 462.063C42.2678 466.847 46.1724 471.803 49.5219 476.074C51.2636 478.294 53.0214 480.498 54.7927 482.69L56.8828 485.278L57.1594 481.963C58.0875 470.843 58.8183 459.527 59.524 448.584C60.0948 439.738 60.686 430.592 61.376 421.61L61.635 418.246ZM148.165 612.404C143.389 612.293 139.48 606.412 137.573 602.914C132.916 594.366 129.562 584.283 126.869 576.18C124.451 568.912 122.769 561.133 121.142 553.61C118.709 542.357 116.192 530.724 111.146 520.257C109.38 516.591 106.835 512.384 102.804 512.384C100.729 512.384 98.6328 513.484 96.397 515.747C92.5396 519.651 90.7724 525.3 89.2131 530.286L89.1235 530.572C85.9068 540.852 82.1703 551.263 78.874 560.448L78.5798 561.271C74.7938 571.819 70.8807 582.727 66.8162 593.368C66.4443 594.343 66.0746 595.396 65.6907 596.492C63.7282 602.091 61.285 609.059 56.035 611.316C54.9776 611.771 53.8771 612.002 52.762 612.002C48.9604 612.002 45.0902 609.268 43.1318 605.202C40.0531 598.811 41.0454 590.092 41.9214 582.4C42.1339 580.529 42.3396 578.723 42.4803 577.024C44.1542 556.679 47.4698 535.216 52.6188 511.408L52.9208 510.011L51.5042 509.807C44.136 508.752 37.8208 503.441 33.8198 499.174C25.5432 490.34 18.0588 481.59 11.5719 473.166C-1.61404 456.034 -2.01664 437.583 10.4953 423.806C23.4364 409.556 39.6714 395.03 61.5855 378.091L63.1599 376.875L61.436 375.882C44.6318 366.196 34.0516 348.063 34.4812 329.684C34.9683 308.819 46.7755 288.322 63.1938 279.84C70.0672 276.288 80.0016 274.334 91.1656 274.334C92.374 274.334 93.5584 274.356 94.7156 274.399C104.764 274.771 114.131 277.347 123.355 282.271C141.16 291.776 151.725 306.651 152.345 323.08C152.733 333.415 151.395 341.798 148.365 347.999C143.979 356.974 136.955 365.19 128.048 371.759L125.994 373.274L128.411 374.095C138.629 377.567 148.673 382.174 158.384 386.628L160.075 387.404C162.611 388.567 165.14 389.739 167.668 390.915C170.568 392.26 173.465 393.606 176.372 394.932L177.453 395.428C179.017 396.146 180.633 396.888 182.259 397.563C182.369 397.608 182.519 397.684 182.689 397.77C183.551 398.196 184.26 398.523 184.923 398.538C185.411 398.548 185.609 398.558 185.687 398.563L186.317 398.292C188.072 397.258 189.005 394.154 189.959 390.507C190.14 389.808 190.297 389.2 190.437 388.776C191.473 385.623 192.476 382.212 193.5 378.351C195.011 372.662 196.959 367.016 198.844 361.558C200.176 357.7 201.553 353.714 202.773 349.718L202.957 349.12C205.845 339.643 209.803 326.666 220.027 326.666C221.541 326.666 223.187 326.947 224.915 327.503C229.237 328.892 232.277 332.295 233.047 336.608C234.465 344.555 232.519 354.774 231.097 362.236C229.209 372.146 225.735 381.986 222.376 391.502C220.389 397.126 218.337 402.942 216.632 408.711C213.332 419.882 208.864 431.96 197.56 433.872C196.279 434.09 194.94 434.2 193.584 434.2C185.007 434.2 176.308 429.858 168.633 426.028L167.26 425.344C164.595 424.018 161.487 422.487 158.347 421.079C157.773 420.823 157.116 420.488 156.405 420.127C153.892 418.852 150.765 417.267 148.059 417.267C146.265 417.267 143.923 417.966 142.929 421.3C142.327 423.322 142.809 425.724 143.236 427.844C143.373 428.52 143.505 429.174 143.591 429.775C144.567 436.643 145.493 443.518 146.417 450.394C150.831 483.243 154.152 510.35 156.875 535.7C158.519 551.016 160.219 566.854 161.211 582.603C161.693 590.298 161.672 598.305 158.264 604.745C156.249 608.551 152.179 612.404 148.296 612.404H148.165" fill="white"/>
<path d="M50.5724 475.251C46.876 470.539 43.1697 465.843 39.3677 461.215C35.2202 456.17 30.6057 450.051 35.9754 443.923C39.9849 439.35 45.1286 435.516 49.5464 431.323C53.0224 428.023 56.512 424.742 60.0458 421.507C58.5005 441.612 57.5068 461.758 55.8312 481.851C54.063 479.664 52.3093 477.464 50.5724 475.251ZM4.65933 438.267C7.54214 428.456 16.4562 421.536 23.6088 414.775C37.0666 402.056 50.701 389.732 65.4104 378.46C66.4978 377.626 66.8978 375.754 65.4104 375.004C41.4994 362.972 32.0994 336.086 40.8812 311.318C44.9385 299.874 52.1724 289.454 62.814 283.1C73.1292 276.943 88.2202 276.107 99.9202 277.487C121.357 280.018 144.823 294.872 149.141 317.387C153.411 339.638 141.628 359.762 123.408 371.762C121.97 372.708 122.195 374.895 123.886 375.418C137.392 379.59 150.28 385.79 163.084 391.707C168.393 394.16 173.675 396.682 179.028 399.035C180.813 399.819 183.96 401.847 186.064 401.547C189.62 401.039 190.924 395.396 191.923 392.654C194.745 384.9 196.369 376.802 198.909 368.967C200.431 364.278 202.235 359.684 203.829 355.022C205.515 350.098 206.409 344.846 208.313 340.027C210.375 334.811 214.008 329.66 220.139 329.467C226.881 329.256 230.343 334.146 230.577 340.358C231.184 356.35 226.227 371.715 220.873 386.51C218.169 393.983 216.069 401.574 213.711 409.15C211.839 415.168 209.419 422.876 204.869 427.516C195.307 437.271 178.317 427.871 168.684 423.083C163.159 420.336 144.529 408.047 140.768 417.648C139.044 422.047 140.627 427.639 141.275 432.228C142.331 439.716 143.34 447.212 144.34 454.708C147.927 481.619 151.301 508.563 154.2 535.558C155.716 549.682 157.024 563.82 158.18 577.976C158.916 586.982 160.521 599.672 153.493 606.683C143.729 616.422 136.919 595.276 134.505 589.268C127.475 571.755 124.097 553.679 119.225 535.56C117.276 528.309 113.053 508.212 102.473 508.747C96.7958 509.035 92.3349 516.058 90.1036 520.508C87.1202 526.462 85.7604 533.072 83.6489 539.35C77.6156 557.283 70.9562 575.106 64.2046 592.78C62.5921 597.002 61.2797 601.728 58.6729 605.452C55.4806 610.012 49.4562 610.104 46.2885 605.419C44.4593 602.714 44.2026 599.399 44.076 596.255C43.7197 587.446 44.9484 578.292 45.8218 569.536C47.7797 549.928 51.175 530.527 55.365 511.282C55.8213 511.251 56.2776 511.218 56.7385 511.154C63.2218 510.247 66.15 504.108 65.7817 497.928C65.5385 493.848 63.4016 491.048 60.8797 488.015C60.3636 487.394 59.8584 486.764 59.3453 486.142C59.4406 485.932 59.512 485.702 59.5349 485.439C61.5464 462.532 62.5473 439.55 64.425 416.631C64.5765 414.779 62.1937 414.172 61.0098 415.218C51.8484 423.308 42.377 431.636 33.8484 440.387C28.3458 446.032 28.2964 451.383 32.0458 457.991C35.9984 464.958 42.1817 470.982 47.127 477.294C51.6437 483.058 67.3088 496.843 60.4229 504.571C55.024 510.628 45.175 505.719 40.1609 501.586C37.0464 499.019 34.3754 495.899 31.775 492.831C25.1052 484.962 17.6776 477.376 11.7572 468.935C5.55359 460.088 1.48381 449.07 4.65933 438.267ZM10.5161 473.978C17.4005 482.922 25.1229 491.842 32.8469 500.084C37.714 505.279 44.1338 510.099 51.3145 511.127C46.6188 532.84 42.9729 554.763 41.1505 576.915C40.426 585.719 37.9156 597.447 41.9292 605.78C44.5197 611.159 50.6437 615.086 56.5609 612.541C63.4073 609.598 65.6812 600.079 68.063 593.845C72.2349 582.918 76.1786 571.906 80.1292 560.899C83.6989 550.952 87.2412 541.054 90.3964 530.97C91.9254 526.083 93.6437 520.431 97.3453 516.684C103.726 510.227 107.403 515.563 109.945 520.835C118.296 538.157 119.561 558.439 125.603 576.6C128.603 585.62 131.838 595.176 136.403 603.554C138.665 607.704 142.795 613.616 148.135 613.738C152.848 613.843 157.383 609.259 159.443 605.368C163.063 598.527 163.012 590.008 162.541 582.519C161.555 566.843 159.877 551.174 158.201 535.558C155.141 507.062 151.555 478.62 147.739 450.216C146.815 443.338 145.887 436.46 144.911 429.587C144.569 427.183 143.52 423.983 144.207 421.682C146.112 415.294 153.881 420.539 157.801 422.296C160.791 423.638 163.732 425.079 166.665 426.538C176.055 431.204 186.969 437.018 197.783 435.187C210.165 433.091 214.753 419.779 217.911 409.088C222.489 393.595 229.379 378.379 232.407 362.486C233.928 354.506 235.795 344.415 234.36 336.374C233.485 331.467 230.055 327.754 225.321 326.232C209.763 321.231 204.903 338.178 201.497 349.328C198.553 358.967 194.8 368.251 192.211 378.01C191.289 381.484 190.292 384.944 189.171 388.359C188.523 390.332 187.479 396.06 185.64 397.143C185.544 397.199 185.695 397.224 185.78 397.234C185.697 397.227 185.481 397.216 184.953 397.204C184.376 397.191 183.251 396.53 182.769 396.331C180.8 395.515 178.865 394.606 176.925 393.719C171.483 391.235 166.069 388.684 160.631 386.192C150.219 381.419 139.711 376.526 128.838 372.832C137.473 366.464 144.824 358.283 149.564 348.584C153.277 340.983 153.991 331.367 153.677 323.03C152.968 304.231 139.904 289.595 123.983 281.095C114.799 276.192 105.212 273.454 94.7645 273.067C84.4625 272.684 71.8598 273.862 62.5822 278.655C44.451 288.023 33.6114 309.811 33.1478 329.654C32.6958 348.994 44.2224 367.499 60.7702 377.036C42.7978 390.928 24.7464 406.13 9.50725 422.908C-4.7438 438.602 -1.78338 458 10.5161 473.978" fill="#2E2D2D"/>
<path d="M91.6052 447.654C91.6454 447.582 91.6361 447.316 91.6058 446.939C91.2386 442.268 93.1088 436.523 93.8495 431.927C94.838 425.779 95.8605 419.635 96.9079 413.498C97.387 410.688 98.985 406.574 98.6266 403.714C98.3271 401.322 94.7776 399.183 94.5282 397.494C94.3922 396.572 95.7584 394.004 96.0896 393.255C96.9798 391.248 96.0864 391.918 98.187 391.312C99.8344 390.839 101.811 391.588 103.496 391.266C103.543 391.256 104.448 391.198 105.007 391.216C106.519 392.468 108.288 395.622 109.071 397.727C106.165 401.83 103.851 402.016 105.296 407.275C107.476 415.212 110.144 423.011 112.328 430.951C113.405 434.866 114.432 438.804 115.24 442.787C115.446 443.8 116.459 446.671 115.978 447.747C115.68 448.411 112.96 449.996 112.295 450.53C109.556 452.723 106.53 454.951 104.106 457.486C103.856 457.747 103.72 457.927 103.626 458.072C103.597 458.038 103.579 458.004 103.528 457.97C102.566 457.319 101.706 456.463 100.824 455.711C98.2626 453.526 95.7985 451.232 93.2517 449.032C92.8397 448.676 92.0563 448.16 91.6052 447.654V447.654ZM88.7599 448.852C90.149 452.063 96.0979 455.611 98.7017 457.832C100.645 459.492 102.19 461.654 104.721 460.81C106.584 460.188 108.731 457.447 110.196 456.188C112.851 453.912 115.508 451.618 118.452 449.719C118.857 449.459 119.262 448.946 119.195 448.423C117.843 437.859 114.581 427.566 111.493 417.406C110.351 413.647 108.202 409.234 107.863 405.295C107.647 402.778 110.06 401.511 111.86 398.943C112.01 398.796 112.123 398.618 112.189 398.412C112.355 397.999 112.293 397.607 112.097 397.287C111.14 394.336 108.541 389.179 105.596 388.256C102.702 387.35 96.1751 387.358 94.2303 389.919C91.3355 393.732 90.7011 397.659 93.5006 401.198C95.4985 403.724 95.2948 402.835 95.3063 405.274C95.3146 406.964 94.6662 408.903 94.3787 410.575C92.5558 421.163 90.7386 431.762 89.2079 442.395C88.9501 444.184 87.9943 447.083 88.7599 448.852" fill="#2E2D2D"/>
<path d="M117.268 307.19C117.906 312.298 118.204 317.415 118.162 322.564C118.142 325.136 114.14 325.143 114.161 322.564C114.203 317.415 113.905 312.298 113.267 307.19C112.949 304.64 116.953 304.664 117.268 307.19Z" fill="#2E2D2D"/>
<path d="M79.4183 309.307C80.1005 314.074 80.5432 318.803 80.5355 323.623C80.5317 326.196 76.5307 326.202 76.5349 323.623C76.5421 319.17 76.1917 314.779 75.5609 310.371C75.2 307.852 79.0541 306.764 79.4183 309.307Z" fill="#2E2D2D"/>
<path d="M90.2677 445.938C90.0005 446.634 89.7349 447.428 90.051 448.094C90.2093 448.418 90.489 448.67 90.7604 448.911C94.1958 451.951 98.5276 455.866 101.963 458.904C102.415 459.311 102.92 459.735 103.532 459.774C104.091 459.814 104.616 459.51 105.097 459.224C109.614 456.5 113.177 451.148 117.696 448.424C116.049 434.031 109.903 419.23 106.113 405.248C105.949 404.65 105.792 403.999 106.009 403.418C106.184 402.954 106.575 402.599 106.949 402.271C108.33 401.054 110.636 399.238 110.739 397.952C110.795 395.718 106.487 390.138 105.806 389.754C105.411 389.542 96.8041 389.294 96.374 389.463C95.8036 389.68 93.1682 395.728 92.8057 397.72C93.1426 399.706 96.5478 401.027 97.1229 403.716C97.439 405.154 97.6161 406.692 97.2224 408.108C94.1708 419.078 92.2702 433.967 90.2677 445.938" fill="#6B9BD5"/>
<path d="M308.001 255.038C338.465 252.824 372.502 246.914 397.834 228.7C443.662 195.751 460.021 126.42 436.117 75.8016C411.201 23.0376 352.885 0.976272 297.51 0.053605C238.906 -0.923728 171.059 11.0816 140.463 67.3602C125.827 94.2829 122.921 127.407 128.955 157.158C132.005 172.194 137.481 186.872 145.497 199.982C153.854 213.65 165.645 222.775 178.793 231.544C179.509 232.022 179.751 232.728 179.686 233.403C179.69 233.686 179.638 233.98 179.51 234.282C174.263 246.644 168.207 258.518 161.285 269.984C167.151 267.162 172.745 263.598 178.133 260.086C185.663 255.176 193.286 249.93 199.438 243.318C199.469 243.284 199.502 243.263 199.534 243.232C199.559 243.207 199.587 243.186 199.614 243.162C199.682 243.102 199.75 243.04 199.819 242.994C199.845 242.978 199.873 242.966 199.899 242.951C200.362 242.671 200.858 242.642 201.31 242.788C201.335 242.795 201.359 242.795 201.385 242.803C235.634 253.16 272.259 257.635 308.001 255.038" fill="white"/>
<path d="M172.098 78.4929C172.018 77.6908 171.677 77.0677 171.074 76.6236C170.471 76.1794 169.652 75.9574 168.618 75.9574C167.915 75.9574 167.322 76.0568 166.838 76.2557C166.354 76.4479 165.983 76.7164 165.724 77.0611C165.473 77.4058 165.347 77.7969 165.347 78.2344C165.333 78.599 165.41 78.9171 165.575 79.1889C165.748 79.4607 165.983 79.696 166.281 79.8949C166.58 80.0871 166.924 80.2562 167.315 80.402C167.706 80.5412 168.124 80.6605 168.568 80.7599L170.398 81.1974C171.286 81.3963 172.101 81.6615 172.844 81.9929C173.586 82.3243 174.229 82.732 174.773 83.2159C175.316 83.6998 175.737 84.2699 176.036 84.9261C176.34 85.5824 176.496 86.3348 176.503 87.1832C176.496 88.4295 176.178 89.5099 175.548 90.4247C174.925 91.3329 174.024 92.0388 172.844 92.5426C171.67 93.0398 170.255 93.2884 168.598 93.2884C166.954 93.2884 165.522 93.0365 164.303 92.5327C163.089 92.0289 162.142 91.2831 161.459 90.2955C160.783 89.3011 160.428 88.0715 160.395 86.6065H164.561C164.607 87.2893 164.803 87.8594 165.148 88.3168C165.499 88.7675 165.966 89.1089 166.55 89.3409C167.14 89.5663 167.806 89.679 168.548 89.679C169.277 89.679 169.911 89.5729 170.447 89.3608C170.991 89.1487 171.412 88.8537 171.71 88.4759C172.009 88.098 172.158 87.6638 172.158 87.1733C172.158 86.7159 172.022 86.3314 171.75 86.0199C171.485 85.7083 171.094 85.4432 170.577 85.2244C170.066 85.0057 169.44 84.8068 168.697 84.6278L166.48 84.071C164.763 83.6534 163.408 83.0005 162.413 82.1122C161.419 81.224 160.925 80.0275 160.932 78.5227C160.925 77.2898 161.253 76.2126 161.916 75.2912C162.586 74.3698 163.504 73.6506 164.67 73.1335C165.837 72.6165 167.163 72.358 168.648 72.358C170.159 72.358 171.478 72.6165 172.605 73.1335C173.739 73.6506 174.62 74.3698 175.25 75.2912C175.88 76.2126 176.205 77.2798 176.224 78.4929H172.098ZM186.474 93.2884C185.5 93.2884 184.632 93.1193 183.869 92.7812C183.107 92.4366 182.504 91.9295 182.06 91.2599C181.622 90.5838 181.403 89.742 181.403 88.7344C181.403 87.8859 181.559 87.1733 181.871 86.5966C182.182 86.0199 182.606 85.5559 183.143 85.2045C183.68 84.8532 184.29 84.5881 184.973 84.4091C185.662 84.2301 186.385 84.1042 187.141 84.0312C188.029 83.9384 188.745 83.8523 189.288 83.7727C189.832 83.6866 190.226 83.5606 190.472 83.3949C190.717 83.2292 190.839 82.9839 190.839 82.6591V82.5994C190.839 81.9697 190.641 81.4825 190.243 81.1378C189.852 80.7931 189.295 80.6207 188.572 80.6207C187.81 80.6207 187.204 80.7898 186.753 81.1278C186.302 81.4593 186.004 81.8769 185.858 82.3807L181.94 82.0625C182.139 81.1345 182.53 80.3324 183.114 79.6562C183.697 78.9735 184.449 78.4498 185.371 78.0852C186.299 77.714 187.373 77.5284 188.592 77.5284C189.441 77.5284 190.253 77.6278 191.028 77.8267C191.811 78.0256 192.503 78.3338 193.106 78.7514C193.716 79.169 194.197 79.706 194.548 80.3622C194.9 81.0118 195.075 81.7907 195.075 82.6989V93H191.058V90.8821H190.939C190.694 91.3594 190.365 91.7803 189.954 92.1449C189.543 92.5028 189.05 92.7846 188.473 92.9901C187.896 93.1889 187.23 93.2884 186.474 93.2884ZM187.687 90.3651C188.311 90.3651 188.861 90.2424 189.338 89.9972C189.815 89.7453 190.19 89.4072 190.462 88.983C190.733 88.5587 190.869 88.0781 190.869 87.5412V85.9205C190.737 86.0066 190.554 86.0862 190.322 86.1591C190.097 86.2254 189.842 86.2884 189.557 86.348C189.272 86.401 188.987 86.4508 188.702 86.4972C188.417 86.5369 188.158 86.5734 187.926 86.6065C187.429 86.6795 186.995 86.7955 186.624 86.9545C186.252 87.1136 185.964 87.3291 185.758 87.6009C185.553 87.866 185.45 88.1974 185.45 88.5952C185.45 89.1719 185.659 89.6127 186.077 89.9176C186.501 90.2159 187.038 90.3651 187.687 90.3651ZM208.042 99.0455C206.67 99.0455 205.493 98.8565 204.512 98.4787C203.538 98.1075 202.762 97.6004 202.186 96.9574C201.609 96.3144 201.234 95.5919 201.062 94.7898L204.98 94.2628C205.099 94.5677 205.288 94.8527 205.546 95.1179C205.805 95.383 206.146 95.5952 206.571 95.7543C207.001 95.92 207.525 96.0028 208.142 96.0028C209.063 96.0028 209.822 95.7775 210.419 95.3267C211.022 94.8826 211.323 94.1368 211.323 93.0895V90.2955H211.144C210.959 90.7197 210.68 91.1207 210.309 91.4986C209.938 91.8764 209.461 92.1847 208.877 92.4233C208.294 92.6619 207.598 92.7812 206.789 92.7812C205.642 92.7812 204.598 92.5161 203.657 91.9858C202.723 91.4489 201.977 90.6302 201.42 89.5298C200.87 88.4228 200.595 87.0241 200.595 85.3338C200.595 83.6037 200.876 82.1586 201.44 80.9986C202.003 79.8385 202.752 78.9702 203.687 78.3935C204.628 77.8168 205.659 77.5284 206.779 77.5284C207.634 77.5284 208.35 77.6742 208.927 77.9659C209.504 78.2509 209.968 78.6089 210.319 79.0398C210.677 79.464 210.952 79.8816 211.144 80.2926H211.303V77.7273H215.509V93.1491C215.509 94.4484 215.191 95.5355 214.555 96.4105C213.919 97.2855 213.037 97.9418 211.91 98.3793C210.79 98.8234 209.5 99.0455 208.042 99.0455ZM208.132 89.5994C208.814 89.5994 209.391 89.4304 209.862 89.0923C210.339 88.7476 210.704 88.2571 210.955 87.6207C211.214 86.9777 211.343 86.2088 211.343 85.3139C211.343 84.419 211.217 83.6435 210.965 82.9872C210.714 82.3243 210.349 81.8106 209.872 81.446C209.394 81.0814 208.814 80.8991 208.132 80.8991C207.436 80.8991 206.849 81.0881 206.372 81.4659C205.894 81.8371 205.533 82.3542 205.288 83.017C205.043 83.6799 204.92 84.4455 204.92 85.3139C204.92 86.1955 205.043 86.9579 205.288 87.6009C205.54 88.2372 205.901 88.7311 206.372 89.0824C206.849 89.4271 207.436 89.5994 208.132 89.5994ZM230.812 79V76.8523C230.812 76.2424 230.931 75.6193 231.169 74.983C231.408 74.3466 231.723 73.7467 232.114 73.1832C232.505 72.6198 232.929 72.1491 233.387 71.7713L235.256 72.875C234.885 73.4583 234.58 74.0682 234.341 74.7045C234.109 75.3409 233.993 76.0502 233.993 76.8324V79H230.812ZM235.833 79V76.8523C235.833 76.2424 235.952 75.6193 236.191 74.983C236.429 74.3466 236.744 73.7467 237.135 73.1832C237.526 72.6198 237.951 72.1491 238.408 71.7713L240.277 72.875C239.906 73.4583 239.601 74.0682 239.363 74.7045C239.131 75.3409 239.015 76.0502 239.015 76.8324V79H235.833ZM245.653 93V72.6364H249.958V81.0384H258.698V72.6364H262.994V93H258.698V84.5881H249.958V93H245.653ZM273.619 93.2884C272.644 93.2884 271.776 93.1193 271.014 92.7812C270.251 92.4366 269.648 91.9295 269.204 91.2599C268.767 90.5838 268.548 89.742 268.548 88.7344C268.548 87.8859 268.704 87.1733 269.015 86.5966C269.327 86.0199 269.751 85.5559 270.288 85.2045C270.825 84.8532 271.435 84.5881 272.117 84.4091C272.807 84.2301 273.529 84.1042 274.285 84.0312C275.173 83.9384 275.889 83.8523 276.433 83.7727C276.976 83.6866 277.371 83.5606 277.616 83.3949C277.861 83.2292 277.984 82.9839 277.984 82.6591V82.5994C277.984 81.9697 277.785 81.4825 277.387 81.1378C276.996 80.7931 276.439 80.6207 275.717 80.6207C274.955 80.6207 274.348 80.7898 273.897 81.1278C273.447 81.4593 273.148 81.8769 273.002 82.3807L269.085 82.0625C269.284 81.1345 269.675 80.3324 270.258 79.6562C270.841 78.9735 271.594 78.4498 272.515 78.0852C273.443 77.714 274.517 77.5284 275.737 77.5284C276.585 77.5284 277.397 77.6278 278.173 77.8267C278.955 78.0256 279.648 78.3338 280.251 78.7514C280.861 79.169 281.341 79.706 281.693 80.3622C282.044 81.0118 282.22 81.7907 282.22 82.6989V93H278.203V90.8821H278.083C277.838 91.3594 277.51 91.7803 277.099 92.1449C276.688 92.5028 276.194 92.7846 275.617 92.9901C275.041 93.1889 274.375 93.2884 273.619 93.2884ZM274.832 90.3651C275.455 90.3651 276.005 90.2424 276.483 89.9972C276.96 89.7453 277.334 89.4072 277.606 88.983C277.878 88.5587 278.014 88.0781 278.014 87.5412V85.9205C277.881 86.0066 277.699 86.0862 277.467 86.1591C277.242 86.2254 276.986 86.2884 276.701 86.348C276.416 86.401 276.131 86.4508 275.846 86.4972C275.561 86.5369 275.303 86.5734 275.071 86.6065C274.573 86.6795 274.139 86.7955 273.768 86.9545C273.397 87.1136 273.108 87.3291 272.903 87.6009C272.697 87.866 272.595 88.1974 272.595 88.5952C272.595 89.1719 272.804 89.6127 273.221 89.9176C273.645 90.2159 274.182 90.3651 274.832 90.3651ZM292.542 72.6364V93H288.306V72.6364H292.542ZM302.971 72.6364V93H298.735V72.6364H302.971ZM316.064 93.2983C314.52 93.2983 313.184 92.9702 312.057 92.3139C310.937 91.651 310.072 90.7296 309.462 89.5497C308.852 88.3632 308.547 86.9877 308.547 85.4233C308.547 83.8456 308.852 82.4669 309.462 81.2869C310.072 80.1004 310.937 79.179 312.057 78.5227C313.184 77.8598 314.52 77.5284 316.064 77.5284C317.609 77.5284 318.941 77.8598 320.062 78.5227C321.188 79.179 322.057 80.1004 322.667 81.2869C323.276 82.4669 323.581 83.8456 323.581 85.4233C323.581 86.9877 323.276 88.3632 322.667 89.5497C322.057 90.7296 321.188 91.651 320.062 92.3139C318.941 92.9702 317.609 93.2983 316.064 93.2983ZM316.084 90.017C316.787 90.017 317.374 89.8182 317.844 89.4205C318.315 89.0161 318.669 88.4659 318.908 87.7699C319.153 87.0739 319.276 86.2817 319.276 85.3935C319.276 84.5052 319.153 83.7131 318.908 83.017C318.669 82.321 318.315 81.7708 317.844 81.3665C317.374 80.9621 316.787 80.7599 316.084 80.7599C315.375 80.7599 314.778 80.9621 314.294 81.3665C313.817 81.7708 313.456 82.321 313.211 83.017C312.972 83.7131 312.853 84.5052 312.853 85.3935C312.853 86.2817 312.972 87.0739 313.211 87.7699C313.456 88.4659 313.817 89.0161 314.294 89.4205C314.778 89.8182 315.375 90.017 316.084 90.017ZM338.496 93V72.6364H346.649C348.147 72.6364 349.397 72.8584 350.398 73.3026C351.399 73.7467 352.151 74.3632 352.655 75.152C353.159 75.9342 353.41 76.8357 353.41 77.8565C353.41 78.652 353.251 79.3513 352.933 79.9545C352.615 80.5511 352.177 81.0417 351.621 81.4261C351.07 81.804 350.441 82.0724 349.731 82.2315V82.4304C350.507 82.4635 351.233 82.6823 351.909 83.0866C352.592 83.491 353.145 84.0578 353.57 84.7869C353.994 85.5095 354.206 86.3712 354.206 87.3722C354.206 88.4527 353.937 89.4171 353.401 90.2656C352.87 91.1075 352.085 91.7737 351.044 92.2642C350.003 92.7547 348.721 93 347.196 93H338.496ZM342.801 89.4801H346.311C347.511 89.4801 348.386 89.2514 348.936 88.794C349.486 88.33 349.761 87.7135 349.761 86.9446C349.761 86.3812 349.625 85.884 349.354 85.4531C349.082 85.0223 348.694 84.6842 348.19 84.4389C347.693 84.1937 347.1 84.071 346.41 84.071H342.801V89.4801ZM342.801 81.1577H345.993C346.583 81.1577 347.106 81.0549 347.564 80.8494C348.028 80.6373 348.392 80.339 348.658 79.9545C348.929 79.5701 349.065 79.1094 349.065 78.5724C349.065 77.8366 348.803 77.2434 348.28 76.7926C347.763 76.3419 347.027 76.1165 346.072 76.1165H342.801V81.1577ZM366.628 93.2983C365.084 93.2983 363.748 92.9702 362.621 92.3139C361.501 91.651 360.636 90.7296 360.026 89.5497C359.416 88.3632 359.111 86.9877 359.111 85.4233C359.111 83.8456 359.416 82.4669 360.026 81.2869C360.636 80.1004 361.501 79.179 362.621 78.5227C363.748 77.8598 365.084 77.5284 366.628 77.5284C368.173 77.5284 369.505 77.8598 370.626 78.5227C371.752 79.179 372.621 80.1004 373.231 81.2869C373.841 82.4669 374.145 83.8456 374.145 85.4233C374.145 86.9877 373.841 88.3632 373.231 89.5497C372.621 90.7296 371.752 91.651 370.626 92.3139C369.505 92.9702 368.173 93.2983 366.628 93.2983ZM366.648 90.017C367.351 90.017 367.938 89.8182 368.408 89.4205C368.879 89.0161 369.234 88.4659 369.472 87.7699C369.717 87.0739 369.84 86.2817 369.84 85.3935C369.84 84.5052 369.717 83.7131 369.472 83.017C369.234 82.321 368.879 81.7708 368.408 81.3665C367.938 80.9621 367.351 80.7599 366.648 80.7599C365.939 80.7599 365.342 80.9621 364.859 81.3665C364.381 81.7708 364.02 82.321 363.775 83.017C363.536 83.7131 363.417 84.5052 363.417 85.3935C363.417 86.2817 363.536 87.0739 363.775 87.7699C364.02 88.4659 364.381 89.0161 364.859 89.4205C365.342 89.8182 365.939 90.017 366.648 90.017ZM387.823 77.7273V80.9091H378.626V77.7273H387.823ZM380.714 74.0682H384.95V88.3068C384.95 88.6979 385.009 89.0028 385.129 89.2216C385.248 89.4337 385.414 89.5829 385.626 89.669C385.845 89.7552 386.096 89.7983 386.382 89.7983C386.58 89.7983 386.779 89.7817 386.978 89.7486C387.177 89.7088 387.329 89.679 387.436 89.6591L388.102 92.8111C387.89 92.8774 387.591 92.9536 387.207 93.0398C386.822 93.1326 386.355 93.1889 385.805 93.2088C384.784 93.2486 383.889 93.1127 383.12 92.8011C382.358 92.4896 381.765 92.0057 381.34 91.3494C380.916 90.6932 380.707 89.8646 380.714 88.8636V74.0682ZM397.616 72.6364V74.7841C397.616 75.3939 397.497 76.017 397.258 76.6534C397.026 77.2831 396.714 77.8797 396.323 78.4432C395.932 79 395.505 79.474 395.041 79.8651L393.171 78.7614C393.503 78.2377 393.794 77.6577 394.046 77.0213C394.305 76.3849 394.434 75.6458 394.434 74.804V72.6364H397.616ZM402.617 72.6364V74.7841C402.617 75.3939 402.498 76.017 402.259 76.6534C402.027 77.2831 401.716 77.8797 401.325 78.4432C400.934 79 400.503 79.474 400.032 79.8651L398.163 78.7614C398.501 78.2377 398.796 77.6577 399.048 77.0213C399.306 76.3849 399.435 75.6458 399.435 74.804V72.6364H402.617ZM409.536 90.2159L409.427 91.3097C409.341 92.1847 409.175 93.0563 408.93 93.9247C408.691 94.7997 408.439 95.5919 408.174 96.3011C407.915 97.0104 407.707 97.5672 407.548 97.9716H404.803C404.903 97.5805 405.039 97.0336 405.211 96.331C405.383 95.6349 405.546 94.8527 405.698 93.9844C405.851 93.116 405.947 92.2311 405.987 91.3295L406.036 90.2159H409.536ZM228.409 121.497V112.727H232.645V128H228.578V125.226H228.419C228.074 126.121 227.501 126.84 226.699 127.384C225.903 127.927 224.932 128.199 223.785 128.199C222.765 128.199 221.866 127.967 221.091 127.503C220.315 127.039 219.709 126.379 219.271 125.524C218.84 124.669 218.622 123.645 218.615 122.452V112.727H222.851V121.696C222.857 122.598 223.099 123.31 223.577 123.834C224.054 124.357 224.694 124.619 225.496 124.619C226.006 124.619 226.483 124.503 226.927 124.271C227.372 124.033 227.73 123.681 228.001 123.217C228.28 122.753 228.416 122.18 228.409 121.497ZM243.069 119.17V128H238.833V112.727H242.87V115.422H243.049C243.387 114.534 243.954 113.831 244.749 113.314C245.545 112.79 246.509 112.528 247.643 112.528C248.703 112.528 249.628 112.76 250.417 113.224C251.206 113.688 251.819 114.351 252.256 115.213C252.694 116.068 252.912 117.089 252.912 118.276V128H248.677V119.031C248.683 118.097 248.445 117.367 247.961 116.844C247.477 116.313 246.811 116.048 245.962 116.048C245.392 116.048 244.888 116.171 244.451 116.416C244.02 116.661 243.682 117.019 243.437 117.49C243.198 117.954 243.075 118.514 243.069 119.17ZM264.679 128.249C263.519 128.249 262.468 127.95 261.527 127.354C260.592 126.75 259.85 125.866 259.299 124.699C258.756 123.526 258.484 122.087 258.484 120.384C258.484 118.634 258.766 117.179 259.329 116.018C259.893 114.852 260.642 113.98 261.576 113.403C262.518 112.82 263.549 112.528 264.669 112.528C265.524 112.528 266.236 112.674 266.807 112.966C267.383 113.251 267.847 113.609 268.199 114.04C268.557 114.464 268.828 114.882 269.014 115.293H269.143V107.636H273.369V128H269.193V125.554H269.014C268.815 125.978 268.533 126.399 268.169 126.817C267.811 127.228 267.343 127.569 266.767 127.841C266.197 128.113 265.501 128.249 264.679 128.249ZM266.021 124.878C266.704 124.878 267.281 124.692 267.751 124.321C268.228 123.943 268.593 123.416 268.845 122.74C269.103 122.064 269.233 121.272 269.233 120.364C269.233 119.455 269.107 118.667 268.855 117.997C268.603 117.328 268.238 116.811 267.761 116.446C267.284 116.081 266.704 115.899 266.021 115.899C265.325 115.899 264.738 116.088 264.261 116.466C263.784 116.844 263.423 117.367 263.177 118.037C262.932 118.706 262.809 119.482 262.809 120.364C262.809 121.252 262.932 122.037 263.177 122.72C263.429 123.396 263.79 123.927 264.261 124.311C264.738 124.689 265.325 124.878 266.021 124.878ZM294.56 128.249C293.4 128.249 292.349 127.95 291.408 127.354C290.473 126.75 289.731 125.866 289.181 124.699C288.637 123.526 288.365 122.087 288.365 120.384C288.365 118.634 288.647 117.179 289.211 116.018C289.774 114.852 290.523 113.98 291.458 113.403C292.399 112.82 293.43 112.528 294.55 112.528C295.405 112.528 296.118 112.674 296.688 112.966C297.265 113.251 297.729 113.609 298.08 114.04C298.438 114.464 298.71 114.882 298.895 115.293H299.024V107.636H303.25V128H299.074V125.554H298.895C298.696 125.978 298.415 126.399 298.05 126.817C297.692 127.228 297.225 127.569 296.648 127.841C296.078 128.113 295.382 128.249 294.56 128.249ZM295.902 124.878C296.585 124.878 297.162 124.692 297.632 124.321C298.11 123.943 298.474 123.416 298.726 122.74C298.985 122.064 299.114 121.272 299.114 120.364C299.114 119.455 298.988 118.667 298.736 117.997C298.484 117.328 298.12 116.811 297.642 116.446C297.165 116.081 296.585 115.899 295.902 115.899C295.206 115.899 294.62 116.088 294.142 116.466C293.665 116.844 293.304 117.367 293.059 118.037C292.813 118.706 292.691 119.482 292.691 120.364C292.691 121.252 292.813 122.037 293.059 122.72C293.31 123.396 293.672 123.927 294.142 124.311C294.62 124.689 295.206 124.878 295.902 124.878ZM316.493 128.298C314.922 128.298 313.57 127.98 312.436 127.344C311.309 126.701 310.441 125.793 309.831 124.619C309.221 123.439 308.916 122.044 308.916 120.433C308.916 118.862 309.221 117.483 309.831 116.297C310.441 115.11 311.299 114.186 312.406 113.523C313.52 112.86 314.826 112.528 316.324 112.528C317.332 112.528 318.27 112.691 319.138 113.016C320.013 113.334 320.775 113.814 321.425 114.457C322.081 115.1 322.592 115.909 322.956 116.884C323.321 117.851 323.503 118.985 323.503 120.284V121.447H310.607V118.822H319.516C319.516 118.213 319.383 117.672 319.118 117.202C318.853 116.731 318.485 116.363 318.014 116.098C317.55 115.826 317.01 115.69 316.394 115.69C315.751 115.69 315.181 115.839 314.683 116.138C314.193 116.429 313.808 116.824 313.53 117.321C313.252 117.812 313.109 118.358 313.103 118.962V121.457C313.103 122.213 313.242 122.866 313.52 123.416C313.805 123.966 314.206 124.391 314.723 124.689C315.24 124.987 315.853 125.136 316.563 125.136C317.033 125.136 317.464 125.07 317.855 124.938C318.246 124.805 318.581 124.606 318.86 124.341C319.138 124.076 319.35 123.751 319.496 123.366L323.414 123.625C323.215 124.566 322.807 125.388 322.191 126.091C321.581 126.787 320.792 127.33 319.824 127.722C318.863 128.106 317.753 128.298 316.493 128.298ZM333.303 119.17V128H329.067V112.727H333.104V115.422H333.283C333.621 114.534 334.188 113.831 334.983 113.314C335.779 112.79 336.743 112.528 337.877 112.528C338.938 112.528 339.862 112.76 340.651 113.224C341.44 113.688 342.053 114.351 342.491 115.213C342.928 116.068 343.147 117.089 343.147 118.276V128H338.911V119.031C338.918 118.097 338.679 117.367 338.195 116.844C337.711 116.313 337.045 116.048 336.197 116.048C335.626 116.048 335.123 116.171 334.685 116.416C334.254 116.661 333.916 117.019 333.671 117.49C333.432 117.954 333.31 118.514 333.303 119.17ZM170.573 146.186V142.636H187.298V146.186H181.063V163H176.808V146.186H170.573ZM200.488 156.497V147.727H204.724V163H200.657V160.226H200.498C200.154 161.121 199.58 161.84 198.778 162.384C197.983 162.927 197.011 163.199 195.865 163.199C194.844 163.199 193.946 162.967 193.17 162.503C192.395 162.039 191.788 161.379 191.35 160.524C190.92 159.669 190.701 158.645 190.694 157.452V147.727H194.93V156.696C194.937 157.598 195.179 158.31 195.656 158.834C196.133 159.357 196.773 159.619 197.575 159.619C198.085 159.619 198.563 159.503 199.007 159.271C199.451 159.033 199.809 158.681 200.081 158.217C200.359 157.753 200.495 157.18 200.488 156.497ZM219.036 147.727V150.909H209.838V147.727H219.036ZM211.926 144.068H216.162V158.307C216.162 158.698 216.222 159.003 216.341 159.222C216.461 159.434 216.626 159.583 216.838 159.669C217.057 159.755 217.309 159.798 217.594 159.798C217.793 159.798 217.992 159.782 218.191 159.749C218.389 159.709 218.542 159.679 218.648 159.659L219.314 162.811C219.102 162.877 218.804 162.954 218.419 163.04C218.035 163.133 217.568 163.189 217.017 163.209C215.996 163.249 215.102 163.113 214.333 162.801C213.57 162.49 212.977 162.006 212.553 161.349C212.129 160.693 211.92 159.865 211.926 158.864V144.068ZM231.332 163.298C229.787 163.298 228.451 162.97 227.324 162.314C226.204 161.651 225.339 160.73 224.729 159.55C224.119 158.363 223.814 156.988 223.814 155.423C223.814 153.846 224.119 152.467 224.729 151.287C225.339 150.1 226.204 149.179 227.324 148.523C228.451 147.86 229.787 147.528 231.332 147.528C232.876 147.528 234.208 147.86 235.329 148.523C236.456 149.179 237.324 150.1 237.934 151.287C238.544 152.467 238.849 153.846 238.849 155.423C238.849 156.988 238.544 158.363 237.934 159.55C237.324 160.73 236.456 161.651 235.329 162.314C234.208 162.97 232.876 163.298 231.332 163.298ZM231.351 160.017C232.054 160.017 232.641 159.818 233.111 159.42C233.582 159.016 233.937 158.466 234.175 157.77C234.421 157.074 234.543 156.282 234.543 155.393C234.543 154.505 234.421 153.713 234.175 153.017C233.937 152.321 233.582 151.771 233.111 151.366C232.641 150.962 232.054 150.76 231.351 150.76C230.642 150.76 230.046 150.962 229.562 151.366C229.084 151.771 228.723 152.321 228.478 153.017C228.239 153.713 228.12 154.505 228.12 155.393C228.12 156.282 228.239 157.074 228.478 157.77C228.723 158.466 229.084 159.016 229.562 159.42C230.046 159.818 230.642 160.017 231.351 160.017ZM244.403 163V147.727H248.509V150.392H248.668C248.947 149.444 249.414 148.728 250.07 148.244C250.727 147.754 251.482 147.509 252.337 147.509C252.55 147.509 252.778 147.522 253.024 147.548C253.269 147.575 253.484 147.611 253.67 147.658V151.416C253.471 151.357 253.196 151.304 252.845 151.257C252.493 151.211 252.172 151.188 251.88 151.188C251.257 151.188 250.7 151.323 250.21 151.595C249.726 151.86 249.341 152.232 249.056 152.709C248.778 153.186 248.639 153.736 248.639 154.359V163H244.403ZM258.66 163V147.727H262.896V163H258.66ZM260.788 145.759C260.158 145.759 259.618 145.55 259.167 145.132C258.723 144.708 258.501 144.201 258.501 143.611C258.501 143.027 258.723 142.527 259.167 142.109C259.618 141.685 260.158 141.473 260.788 141.473C261.417 141.473 261.954 141.685 262.399 142.109C262.849 142.527 263.075 143.027 263.075 143.611C263.075 144.201 262.849 144.708 262.399 145.132C261.954 145.55 261.417 145.759 260.788 145.759ZM273.444 163.288C272.469 163.288 271.601 163.119 270.839 162.781C270.076 162.437 269.473 161.929 269.029 161.26C268.592 160.584 268.373 159.742 268.373 158.734C268.373 157.886 268.529 157.173 268.84 156.597C269.152 156.02 269.576 155.556 270.113 155.205C270.65 154.853 271.26 154.588 271.942 154.409C272.632 154.23 273.354 154.104 274.11 154.031C274.998 153.938 275.714 153.852 276.258 153.773C276.801 153.687 277.196 153.561 277.441 153.395C277.686 153.229 277.809 152.984 277.809 152.659V152.599C277.809 151.97 277.61 151.482 277.212 151.138C276.821 150.793 276.264 150.621 275.542 150.621C274.78 150.621 274.173 150.79 273.722 151.128C273.272 151.459 272.973 151.877 272.827 152.381L268.91 152.062C269.109 151.134 269.5 150.332 270.083 149.656C270.666 148.973 271.419 148.45 272.34 148.085C273.268 147.714 274.342 147.528 275.562 147.528C276.41 147.528 277.222 147.628 277.998 147.827C278.78 148.026 279.473 148.334 280.076 148.751C280.686 149.169 281.166 149.706 281.518 150.362C281.869 151.012 282.045 151.791 282.045 152.699V163H278.028V160.882H277.908C277.663 161.359 277.335 161.78 276.924 162.145C276.513 162.503 276.019 162.785 275.442 162.99C274.866 163.189 274.2 163.288 273.444 163.288ZM274.657 160.365C275.28 160.365 275.83 160.242 276.308 159.997C276.785 159.745 277.159 159.407 277.431 158.983C277.703 158.559 277.839 158.078 277.839 157.541V155.92C277.706 156.007 277.524 156.086 277.292 156.159C277.067 156.225 276.811 156.288 276.526 156.348C276.241 156.401 275.956 156.451 275.671 156.497C275.386 156.537 275.128 156.573 274.896 156.607C274.398 156.679 273.964 156.795 273.593 156.955C273.222 157.114 272.933 157.329 272.728 157.601C272.522 157.866 272.42 158.197 272.42 158.595C272.42 159.172 272.629 159.613 273.046 159.918C273.47 160.216 274.007 160.365 274.657 160.365ZM292.367 142.636V163H288.131V142.636H292.367ZM302.796 154.17V163H298.56V147.727H302.597V150.422H302.776C303.114 149.534 303.681 148.831 304.476 148.314C305.272 147.79 306.236 147.528 307.37 147.528C308.43 147.528 309.355 147.76 310.144 148.224C310.933 148.688 311.546 149.351 311.983 150.213C312.421 151.068 312.639 152.089 312.639 153.276V163H308.404V154.031C308.41 153.097 308.172 152.367 307.688 151.844C307.204 151.313 306.538 151.048 305.689 151.048C305.119 151.048 304.615 151.171 304.178 151.416C303.747 151.661 303.409 152.019 303.164 152.49C302.925 152.954 302.802 153.514 302.796 154.17ZM323.133 163.288C322.159 163.288 321.29 163.119 320.528 162.781C319.766 162.437 319.162 161.929 318.718 161.26C318.281 160.584 318.062 159.742 318.062 158.734C318.062 157.886 318.218 157.173 318.529 156.597C318.841 156.02 319.265 155.556 319.802 155.205C320.339 154.853 320.949 154.588 321.632 154.409C322.321 154.23 323.043 154.104 323.799 154.031C324.687 153.938 325.403 153.852 325.947 153.773C326.49 153.687 326.885 153.561 327.13 153.395C327.375 153.229 327.498 152.984 327.498 152.659V152.599C327.498 151.97 327.299 151.482 326.901 151.138C326.51 150.793 325.953 150.621 325.231 150.621C324.469 150.621 323.862 150.79 323.411 151.128C322.961 151.459 322.662 151.877 322.516 152.381L318.599 152.062C318.798 151.134 319.189 150.332 319.772 149.656C320.355 148.973 321.108 148.45 322.029 148.085C322.957 147.714 324.031 147.528 325.251 147.528C326.099 147.528 326.911 147.628 327.687 147.827C328.469 148.026 329.162 148.334 329.765 148.751C330.375 149.169 330.855 149.706 331.207 150.362C331.558 151.012 331.734 151.791 331.734 152.699V163H327.717V160.882H327.597C327.352 161.359 327.024 161.78 326.613 162.145C326.202 162.503 325.708 162.785 325.132 162.99C324.555 163.189 323.889 163.288 323.133 163.288ZM324.346 160.365C324.969 160.365 325.519 160.242 325.997 159.997C326.474 159.745 326.848 159.407 327.12 158.983C327.392 158.559 327.528 158.078 327.528 157.541V155.92C327.395 156.007 327.213 156.086 326.981 156.159C326.756 156.225 326.5 156.288 326.215 156.348C325.93 156.401 325.645 156.451 325.36 156.497C325.075 156.537 324.817 156.573 324.585 156.607C324.087 156.679 323.653 156.795 323.282 156.955C322.911 157.114 322.623 157.329 322.417 157.601C322.212 157.866 322.109 158.197 322.109 158.595C322.109 159.172 322.318 159.613 322.735 159.918C323.159 160.216 323.696 160.365 324.346 160.365ZM337.82 163V147.727H341.857V150.422H342.036C342.354 149.527 342.884 148.821 343.627 148.304C344.369 147.787 345.258 147.528 346.292 147.528C347.339 147.528 348.231 147.79 348.966 148.314C349.702 148.831 350.193 149.534 350.438 150.422H350.597C350.909 149.547 351.472 148.848 352.287 148.324C353.109 147.794 354.08 147.528 355.201 147.528C356.626 147.528 357.783 147.982 358.671 148.891C359.566 149.792 360.013 151.071 360.013 152.729V163H355.787V153.564C355.787 152.715 355.562 152.079 355.111 151.655C354.66 151.231 354.097 151.018 353.421 151.018C352.652 151.018 352.052 151.264 351.621 151.754C351.19 152.238 350.975 152.878 350.975 153.673V163H346.868V153.474C346.868 152.725 346.653 152.129 346.222 151.685C345.798 151.241 345.238 151.018 344.542 151.018C344.071 151.018 343.647 151.138 343.269 151.376C342.898 151.608 342.603 151.937 342.384 152.361C342.165 152.778 342.056 153.269 342.056 153.832V163H337.82ZM373.119 163.298C371.548 163.298 370.196 162.98 369.062 162.344C367.936 161.701 367.067 160.793 366.457 159.619C365.848 158.439 365.543 157.044 365.543 155.433C365.543 153.862 365.848 152.483 366.457 151.297C367.067 150.11 367.926 149.186 369.033 148.523C370.146 147.86 371.452 147.528 372.95 147.528C373.958 147.528 374.896 147.691 375.764 148.016C376.639 148.334 377.402 148.814 378.051 149.457C378.707 150.1 379.218 150.909 379.582 151.884C379.947 152.851 380.129 153.985 380.129 155.284V156.447H367.233V153.822H376.142C376.142 153.213 376.009 152.672 375.744 152.202C375.479 151.731 375.111 151.363 374.641 151.098C374.177 150.826 373.636 150.69 373.02 150.69C372.377 150.69 371.807 150.839 371.31 151.138C370.819 151.429 370.435 151.824 370.156 152.321C369.878 152.812 369.735 153.358 369.729 153.962V156.457C369.729 157.213 369.868 157.866 370.146 158.416C370.431 158.966 370.832 159.391 371.349 159.689C371.866 159.987 372.48 160.136 373.189 160.136C373.66 160.136 374.09 160.07 374.482 159.938C374.873 159.805 375.207 159.606 375.486 159.341C375.764 159.076 375.976 158.751 376.122 158.366L380.04 158.625C379.841 159.566 379.433 160.388 378.817 161.091C378.207 161.787 377.418 162.33 376.45 162.722C375.489 163.106 374.379 163.298 373.119 163.298ZM389.929 154.17V163H385.693V147.727H389.73V150.422H389.909C390.247 149.534 390.814 148.831 391.61 148.314C392.405 147.79 393.37 147.528 394.503 147.528C395.564 147.528 396.488 147.76 397.277 148.224C398.066 148.688 398.679 149.351 399.117 150.213C399.554 151.068 399.773 152.089 399.773 153.276V163H395.537V154.031C395.544 153.097 395.305 152.367 394.821 151.844C394.337 151.313 393.671 151.048 392.823 151.048C392.253 151.048 391.749 151.171 391.311 151.416C390.88 151.661 390.542 152.019 390.297 152.49C390.059 152.954 389.936 153.514 389.929 154.17Z" fill="black"/>
</svg>
