<svg width="498" height="636" viewBox="0 0 498 636" fill="none" xmlns="http://www.w3.org/2000/svg">
<path d="M472.772 623.738C472.772 630.239 437.283 635.511 393.504 635.511C349.727 635.511 314.238 630.239 314.238 623.738C314.238 617.238 349.727 611.966 393.504 611.966C437.283 611.966 472.772 617.238 472.772 623.738Z" fill="#E9E8E7"/>
<path d="M466.117 460.923C465.705 463.087 463.149 468.118 461.725 469.798C452.811 480.327 447.987 487.174 439.907 496.951C438.193 477.175 436.787 449.508 434.882 426.631C443.219 433.904 451.557 442.512 459.894 449.784C463.259 452.719 466.953 456.536 466.117 460.923ZM324.875 461.242C325.154 456.34 346.165 434.395 355.609 426.254C355.941 430.758 354.454 439.206 354.454 439.206C354.454 439.206 350.437 461.299 346.394 493.268C342.991 488.735 339.171 484.818 336.946 482.468C331.393 476.608 324.666 464.906 324.875 461.242ZM494.577 447.735C492.155 438.956 484.362 432.103 477.743 425.848C460.313 409.374 451.574 400.978 432.906 386.732C446.661 380.176 456.806 366.978 460.702 352.246C464.597 337.516 460.315 323.644 453.759 309.89C451.538 305.231 444.443 298.576 440.594 295.139C435.669 290.742 430.325 288.323 423.831 287.132C410.065 284.61 401.314 283.995 387.69 287.204C381.279 288.712 372.637 293.638 366.975 297C362.357 299.744 359.525 303.515 355.766 307.355C351.399 311.816 350.359 316.51 347.637 322.127C343.986 329.655 345.603 350.228 349.471 357.574C355.187 368.439 362.534 376.895 372.887 383.488C343.019 399.755 294.777 439.808 294.739 456.163C294.71 468.899 311.286 491.482 323.291 504.279C327.365 508.622 336.711 518.723 344.385 519.207C341.742 541.315 339.021 564.128 337.514 583.371C336.666 594.193 335.081 604.483 339.591 614.357C340.818 617.043 344.846 620.846 347.701 621.593C352.585 622.876 357.806 615.695 359.893 611.098C367.047 595.338 372.626 579.403 376.183 562.463C380.07 543.953 384.161 529.235 390.137 522.81C391.329 521.526 393.086 520.635 394.833 520.748C396.243 520.839 397.483 521.684 398.577 522.576C407.358 529.734 408.495 541.127 412.389 551.766C419.333 570.738 426.425 591.336 433.823 610.159C435.695 614.919 438.309 620.387 443.347 621.272C447.657 622.027 451.871 618.768 453.65 614.771C455.43 610.772 455.334 606.223 455.126 601.851C453.857 575.257 448.914 546.526 443.014 519.319C447.042 519.267 451.09 517.872 454.587 515.835C462.766 511.067 469.222 500.644 479.71 489.274C490.719 477.335 498.895 463.39 494.577 447.735Z" fill="white"/>
<path d="M407.039 455.938C407.306 456.634 407.571 457.428 407.255 458.094C407.098 458.418 406.818 458.67 406.546 458.911C403.111 461.951 398.779 465.866 395.345 468.904C394.891 469.311 394.386 469.735 393.774 469.774C393.215 469.814 392.691 469.51 392.211 469.224C387.693 466.5 384.129 461.148 379.611 458.424C381.258 444.031 387.405 429.23 391.194 415.248C391.358 414.65 391.514 413.999 391.298 413.418C391.122 412.954 390.731 412.599 390.358 412.271C388.978 411.054 386.67 409.238 386.567 407.952C386.511 405.718 390.819 400.138 391.501 399.754C391.895 399.542 400.502 399.294 400.933 399.463C401.503 399.68 404.139 405.728 404.501 407.72C404.163 409.706 400.759 411.028 400.183 413.716C399.869 415.154 399.691 416.692 400.085 418.108C403.135 429.078 405.037 443.967 407.039 455.938Z" fill="#D15944"/>
<path d="M437.262 431.508C440.795 434.742 444.283 438.023 447.761 441.323C452.178 445.516 457.322 449.35 461.33 453.923C466.701 460.051 462.087 466.17 457.939 471.215C454.138 475.843 450.431 480.539 446.734 485.251C445.002 487.459 443.255 489.651 441.493 491.831C439.826 471.742 438.811 451.606 437.262 431.508ZM328.866 467.015C325.939 460.982 327.771 458.85 331.693 453.942C338.263 445.719 345.697 437.922 353.518 430.796C353.17 436.498 351.998 442.275 351.219 447.867C349.306 461.614 347.517 475.378 345.785 489.148C344.046 487.115 342.261 485.196 340.599 483.415C335.971 478.455 331.845 473.155 328.866 467.015ZM487.799 432.908C472.559 416.131 454.509 400.928 436.537 387.036C453.085 377.499 464.61 358.994 464.158 339.654C463.695 319.811 452.857 298.023 434.725 288.655C425.447 283.862 412.845 282.684 402.542 283.067C392.094 283.454 382.506 286.192 373.322 291.095C357.402 299.595 344.338 314.231 343.63 333.03C343.315 341.367 344.03 350.983 347.743 358.584C352.602 368.528 360.211 376.876 369.13 383.311C348.767 394.887 329.619 409.719 312.961 426.083C306.399 432.528 299.453 439.614 295.214 447.89C291.509 455.124 292.901 461.766 296.114 469.042C301.433 481.083 309.757 492.003 318.398 501.852C324.45 508.752 331.757 517.64 340.81 520.511C349.079 523.129 355.839 516.678 355.377 508.303C355.081 502.983 352.506 497.995 349.215 493.467C349.229 493.404 349.25 493.348 349.259 493.282C351.198 477.738 353.213 462.204 355.39 446.692C356.337 439.955 357.835 433.063 357.609 426.254C357.549 424.456 355.497 423.703 354.194 424.84C346.931 431.182 340.155 438.163 333.755 445.367C330.266 449.294 323.246 455.55 322.875 461.242C322.393 468.64 330.458 478.195 335.005 483.3C341.07 490.111 349.425 497.362 351.158 506.776C352.561 514.39 346.718 519.162 339.723 515.715C334.866 513.322 330.821 509.236 327.093 505.386C318.879 496.903 311.385 487.594 305.19 477.532C300.537 469.974 294.122 459.794 298.219 450.81C301.726 443.124 308.158 436.584 314.027 430.667C331.55 412.999 352.091 397.232 373.898 385.216C375.275 384.458 375.107 382.559 373.898 381.762C355.678 369.762 343.897 349.638 348.165 327.388C352.485 304.872 375.949 290.018 397.386 287.487C409.086 286.107 424.177 286.943 434.491 293.1C445.134 299.454 452.369 309.874 456.426 321.318C465.209 346.086 455.807 372.972 431.897 385.006C430.409 385.754 430.809 387.626 431.897 388.46C446.605 399.732 460.239 412.056 473.698 424.775C480.85 431.536 489.766 438.456 492.649 448.267C495.822 459.07 491.754 470.088 485.549 478.935C479.629 487.376 472.202 494.962 465.533 502.831C462.933 505.899 460.261 509.019 457.146 511.586C452.131 515.719 442.282 520.628 436.883 514.571C432.795 509.981 436.655 503.259 441.413 497.348C441.475 497.282 441.535 497.215 441.586 497.136C444.798 493.175 448.377 489.594 450.179 487.294C455.125 480.982 461.309 474.958 465.261 467.991C469.01 461.383 468.961 456.032 463.458 450.387C454.93 441.636 445.458 433.308 436.297 425.218C435.113 424.172 432.73 424.779 432.882 426.631C434.775 449.735 435.807 472.9 437.837 495.991C437.845 496.078 437.867 496.155 437.883 496.238C437.395 496.828 436.917 497.424 436.427 498.015C433.905 501.048 431.767 503.848 431.525 507.928C431.157 514.108 434.085 520.247 440.569 521.154C449.925 522.462 458.395 516.557 464.459 510.084C472.185 501.842 479.906 492.922 486.79 483.978C499.09 468 502.05 448.602 487.799 432.908Z" fill="#2E2D2D"/>
<path d="M441.816 520.692C445.363 536.916 448.38 553.255 450.398 569.746C451.248 576.687 451.93 583.65 452.442 590.626C452.97 597.776 455.336 609.098 451.018 615.419C442.175 628.364 435.308 608.558 433.1 602.78C430.126 594.987 427.267 587.148 424.436 579.302C419.715 566.216 414.922 553.182 410.767 539.906C408.555 532.836 402.988 517.19 393.103 518.947C385.8 520.246 382.415 531.66 380.447 537.572C377.031 547.845 362.238 626.922 346.068 618.574C337.968 614.394 338.272 601.279 338.702 593.645C339.146 585.718 339.939 577.787 340.654 569.88C342.163 553.164 344.032 536.486 346.015 519.821C346.32 517.27 342.316 517.292 342.015 519.821C339.987 536.86 338.08 553.916 336.551 571.01C335.346 584.507 331.086 602.448 337.763 615.128C342.498 624.122 351.188 626.243 357.832 618.158C362.008 613.076 364.235 606.379 366.658 600.331C369.984 592.034 372.89 583.564 375.234 574.935C379.306 559.943 380.712 543.348 388.062 529.433C390.279 525.235 392.252 521.194 398.635 525.296C401.583 527.192 403.815 532.399 405.05 535.507C407.818 542.463 409.572 549.834 412.13 556.88C418.094 573.312 423.838 589.827 430.124 606.14C433.184 614.079 438.531 627.96 449.66 622.016C455.419 618.943 457.054 612.276 457.231 606.255C457.516 596.599 456.246 586.676 455.234 577.084C453.194 557.752 449.823 538.612 445.674 519.628C445.124 517.115 441.266 518.179 441.816 520.692Z" fill="#2E2D2D"/>
<path d="M404.054 459.032C401.509 461.232 399.045 463.526 396.485 465.711C395.601 466.463 394.741 467.319 393.778 467.97C393.727 468.004 393.71 468.039 393.682 468.072C393.587 467.927 393.45 467.747 393.202 467.486C390.777 464.951 387.75 462.723 385.013 460.53C384.346 459.996 381.626 458.412 381.329 457.747C380.847 456.671 381.861 453.8 382.067 452.787C382.875 448.804 383.902 444.866 384.979 440.951C387.162 433.011 389.83 425.212 392.011 417.275C393.455 412.016 391.143 411.83 388.235 407.727C389.019 405.622 390.787 402.468 392.301 401.216C392.858 401.198 393.765 401.256 393.811 401.266C395.495 401.588 397.473 400.839 399.119 401.312C401.221 401.918 400.327 401.248 401.217 403.255C401.549 404.004 402.914 406.572 402.778 407.494C402.529 409.183 398.981 411.322 398.679 413.714C398.322 416.574 399.919 420.688 400.399 423.498C401.446 429.635 402.469 435.779 403.458 441.927C404.198 446.523 406.067 452.268 405.702 456.939C405.671 457.316 405.661 457.582 405.702 457.654C405.25 458.16 404.467 458.676 404.054 459.032ZM408.099 452.395C406.569 441.762 404.751 431.163 402.929 420.575C402.641 418.903 401.991 416.964 401.999 415.274C402.013 412.835 401.809 413.724 403.807 411.198C406.605 407.659 405.971 403.734 403.077 399.919C401.131 397.358 394.605 397.35 391.711 398.256C388.766 399.179 386.166 404.336 385.21 407.287C385.014 407.607 384.951 407.999 385.117 408.412C385.183 408.619 385.297 408.796 385.446 408.943C387.246 411.511 389.659 412.778 389.443 415.295C389.105 419.234 386.955 423.647 385.814 427.406C382.726 437.566 379.463 447.859 378.111 458.423C378.045 458.946 378.45 459.459 378.855 459.719C381.799 461.618 384.455 463.912 387.11 466.188C388.577 467.447 390.722 470.188 392.586 470.81C395.117 471.654 396.661 469.492 398.605 467.832C401.209 465.611 407.157 462.063 408.546 458.852C409.313 457.083 408.357 454.184 408.099 452.395Z" fill="#2E2D2D"/>
<path d="M380.039 317.19C379.401 322.298 379.102 327.415 379.145 332.564C379.165 335.136 383.166 335.143 383.146 332.564C383.103 327.415 383.401 322.298 384.039 317.19C384.358 314.64 380.354 314.664 380.039 317.19Z" fill="#2E2D2D"/>
<path d="M417.888 319.307C417.206 324.074 416.765 328.803 416.772 333.623C416.776 336.196 420.776 336.202 420.772 333.623C420.766 329.17 421.116 324.779 421.746 320.371C422.106 317.852 418.253 316.764 417.888 319.307Z" fill="#2E2D2D"/>
<path d="M139.061 255.038C108.597 252.824 74.5592 246.914 49.2272 228.7C3.3992 195.751 -12.9595 126.42 10.9445 75.8016C35.8605 23.0376 94.1765 0.976257 149.551 0.0536194C208.155 -0.923737 276.002 11.0816 306.598 67.3602C321.234 94.2829 324.141 127.407 318.106 157.158C315.057 172.194 309.58 186.872 301.564 199.982C293.207 213.65 281.417 222.775 268.269 231.544C267.553 232.022 267.31 232.728 267.375 233.403C267.371 233.686 267.423 233.98 267.551 234.282C272.798 246.644 278.854 258.518 285.777 269.984C279.91 267.162 274.316 263.598 268.928 260.086C261.398 255.176 253.775 249.93 247.623 243.318C247.593 243.284 247.559 243.263 247.527 243.232C247.502 243.207 247.474 243.186 247.447 243.162C247.379 243.102 247.311 243.04 247.242 242.994C247.217 242.978 247.188 242.966 247.162 242.951C246.699 242.671 246.203 242.642 245.751 242.788C245.726 242.795 245.702 242.795 245.677 242.803C211.427 253.16 174.802 257.635 139.061 255.038Z" fill="white"/>
<path d="M115.836 97.2983C114.291 97.2983 112.956 96.9702 111.829 96.3139C110.708 95.651 109.843 94.7296 109.234 93.5497C108.624 92.3632 108.319 90.9877 108.319 89.4233C108.319 87.8456 108.624 86.4669 109.234 85.2869C109.843 84.1004 110.708 83.179 111.829 82.5227C112.956 81.8598 114.291 81.5284 115.836 81.5284C117.38 81.5284 118.713 81.8598 119.833 82.5227C120.96 83.179 121.828 84.1004 122.438 85.2869C123.048 86.4669 123.353 87.8456 123.353 89.4233C123.353 90.9877 123.048 92.3632 122.438 93.5497C121.828 94.7296 120.96 95.651 119.833 96.3139C118.713 96.9702 117.38 97.2983 115.836 97.2983ZM115.856 94.017C116.558 94.017 117.145 93.8182 117.616 93.4205C118.086 93.0161 118.441 92.4659 118.68 91.7699C118.925 91.0739 119.047 90.2817 119.047 89.3935C119.047 88.5052 118.925 87.7131 118.68 87.017C118.441 86.321 118.086 85.7708 117.616 85.3665C117.145 84.9621 116.558 84.7599 115.856 84.7599C115.146 84.7599 114.55 84.9621 114.066 85.3665C113.589 85.7708 113.227 86.321 112.982 87.017C112.743 87.7131 112.624 88.5052 112.624 89.3935C112.624 90.2817 112.743 91.0739 112.982 91.7699C113.227 92.4659 113.589 93.0161 114.066 93.4205C114.55 93.8182 115.146 94.017 115.856 94.017ZM134.535 97.2486C133.375 97.2486 132.324 96.9503 131.383 96.3537C130.448 95.7505 129.706 94.8655 129.156 93.6989C128.612 92.5256 128.34 91.0871 128.34 89.3835C128.34 87.6335 128.622 86.1785 129.186 85.0185C129.749 83.8518 130.498 82.9801 131.433 82.4034C132.374 81.8201 133.405 81.5284 134.525 81.5284C135.38 81.5284 136.093 81.6742 136.663 81.9659C137.24 82.2509 137.704 82.6089 138.055 83.0398C138.413 83.464 138.685 83.8816 138.87 84.2926H138.999V76.6364H143.225V97H139.049V94.554H138.87C138.671 94.9782 138.39 95.3991 138.025 95.8168C137.667 96.2277 137.2 96.5691 136.623 96.8409C136.053 97.1127 135.357 97.2486 134.535 97.2486ZM135.877 93.8778C136.56 93.8778 137.137 93.6922 137.607 93.321C138.085 92.9432 138.449 92.4162 138.701 91.7401C138.96 91.0639 139.089 90.2718 139.089 89.3636C139.089 88.4555 138.963 87.6667 138.711 86.9972C138.459 86.3277 138.095 85.8106 137.617 85.446C137.14 85.0814 136.56 84.8991 135.877 84.8991C135.181 84.8991 134.595 85.0881 134.117 85.4659C133.64 85.8437 133.279 86.3674 133.034 87.0369C132.788 87.7064 132.666 88.482 132.666 89.3636C132.666 90.2519 132.788 91.0374 133.034 91.7202C133.285 92.3963 133.647 92.9266 134.117 93.3111C134.595 93.6889 135.181 93.8778 135.877 93.8778ZM156.468 97.2983C154.897 97.2983 153.545 96.9801 152.411 96.3438C151.284 95.7008 150.416 94.7926 149.806 93.6193C149.196 92.4394 148.891 91.044 148.891 89.4332C148.891 87.8622 149.196 86.4834 149.806 85.2969C150.416 84.1103 151.274 83.1856 152.381 82.5227C153.495 81.8598 154.801 81.5284 156.299 81.5284C157.307 81.5284 158.245 81.6908 159.113 82.0156C159.988 82.3338 160.75 82.8144 161.4 83.4574C162.056 84.1004 162.567 84.9091 162.931 85.8835C163.296 86.8513 163.478 87.9848 163.478 89.2841V90.4474H150.582V87.8224H159.491C159.491 87.2126 159.358 86.6723 159.093 86.2017C158.828 85.7311 158.46 85.3632 157.989 85.098C157.525 84.8262 156.985 84.6903 156.369 84.6903C155.726 84.6903 155.156 84.8395 154.658 85.1378C154.168 85.4295 153.783 85.8239 153.505 86.321C153.227 86.8116 153.084 87.3584 153.078 87.9616V90.4574C153.078 91.2131 153.217 91.866 153.495 92.4162C153.78 92.9664 154.181 93.3906 154.698 93.6889C155.215 93.9872 155.828 94.1364 156.538 94.1364C157.008 94.1364 157.439 94.0701 157.83 93.9375C158.221 93.8049 158.556 93.6061 158.835 93.3409C159.113 93.0758 159.325 92.7509 159.471 92.3665L163.389 92.625C163.19 93.5663 162.782 94.3883 162.166 95.0909C161.556 95.7869 160.767 96.3305 159.799 96.7216C158.838 97.1061 157.728 97.2983 156.468 97.2983ZM169.042 97V81.7273H173.149V84.392H173.308C173.586 83.4441 174.054 82.7282 174.71 82.2443C175.366 81.7538 176.122 81.5085 176.977 81.5085C177.189 81.5085 177.418 81.5218 177.663 81.5483C177.908 81.5748 178.124 81.6113 178.309 81.6577V85.4162C178.11 85.3565 177.835 85.3035 177.484 85.2571C177.133 85.2107 176.811 85.1875 176.52 85.1875C175.896 85.1875 175.34 85.3234 174.849 85.5952C174.365 85.8603 173.981 86.2315 173.696 86.7088C173.417 87.1861 173.278 87.7363 173.278 88.3594V97H169.042ZM184.025 97.2585C183.369 97.2585 182.805 97.0265 182.335 96.5625C181.871 96.0919 181.639 95.5284 181.639 94.8722C181.639 94.2225 181.871 93.6657 182.335 93.2017C182.805 92.7377 183.369 92.5057 184.025 92.5057C184.662 92.5057 185.218 92.7377 185.696 93.2017C186.173 93.6657 186.412 94.2225 186.412 94.8722C186.412 95.3097 186.299 95.7107 186.073 96.0753C185.855 96.4332 185.566 96.7216 185.208 96.9403C184.85 97.1525 184.456 97.2585 184.025 97.2585ZM195.165 97.2585C194.509 97.2585 193.945 97.0265 193.475 96.5625C193.011 96.0919 192.779 95.5284 192.779 94.8722C192.779 94.2225 193.011 93.6657 193.475 93.2017C193.945 92.7377 194.509 92.5057 195.165 92.5057C195.801 92.5057 196.358 92.7377 196.835 93.2017C197.313 93.6657 197.551 94.2225 197.551 94.8722C197.551 95.3097 197.439 95.7107 197.213 96.0753C196.995 96.4332 196.706 96.7216 196.348 96.9403C195.99 97.1525 195.596 97.2585 195.165 97.2585ZM206.305 97.2585C205.649 97.2585 205.085 97.0265 204.615 96.5625C204.151 96.0919 203.919 95.5284 203.919 94.8722C203.919 94.2225 204.151 93.6657 204.615 93.2017C205.085 92.7377 205.649 92.5057 206.305 92.5057C206.941 92.5057 207.498 92.7377 207.975 93.2017C208.453 93.6657 208.691 94.2225 208.691 94.8722C208.691 95.3097 208.579 95.7107 208.353 96.0753C208.134 96.4332 207.846 96.7216 207.488 96.9403C207.13 97.1525 206.736 97.2585 206.305 97.2585ZM219.573 94.2159L219.463 95.3097C219.377 96.1847 219.211 97.0563 218.966 97.9247C218.727 98.7997 218.475 99.5919 218.21 100.301C217.952 101.01 217.743 101.567 217.584 101.972H214.84C214.939 101.58 215.075 101.034 215.247 100.331C215.42 99.6349 215.582 98.8527 215.734 97.9844C215.887 97.116 215.983 96.2311 216.023 95.3295L216.073 94.2159H219.573ZM112.304 125.497V116.727H116.539V132H112.473V129.226H112.313C111.969 130.121 111.395 130.84 110.593 131.384C109.798 131.927 108.827 132.199 107.68 132.199C106.659 132.199 105.761 131.967 104.985 131.503C104.21 131.039 103.603 130.379 103.166 129.524C102.735 128.669 102.516 127.645 102.509 126.452V116.727H106.745V125.696C106.752 126.598 106.994 127.31 107.471 127.834C107.948 128.357 108.588 128.619 109.39 128.619C109.901 128.619 110.378 128.503 110.822 128.271C111.266 128.033 111.624 127.681 111.896 127.217C112.174 126.753 112.31 126.18 112.304 125.497ZM126.963 123.17V132H122.727V116.727H126.764V119.422H126.943C127.281 118.534 127.848 117.831 128.644 117.314C129.439 116.79 130.404 116.528 131.537 116.528C132.598 116.528 133.522 116.76 134.311 117.224C135.1 117.688 135.713 118.351 136.151 119.213C136.588 120.068 136.807 121.089 136.807 122.276V132H132.571V123.031C132.578 122.097 132.339 121.367 131.855 120.844C131.371 120.313 130.705 120.048 129.857 120.048C129.287 120.048 128.783 120.171 128.345 120.416C127.914 120.661 127.576 121.019 127.331 121.49C127.093 121.954 126.97 122.514 126.963 123.17ZM148.573 132.249C147.413 132.249 146.363 131.95 145.421 131.354C144.487 130.75 143.744 129.866 143.194 128.699C142.65 127.526 142.379 126.087 142.379 124.384C142.379 122.634 142.66 121.179 143.224 120.018C143.787 118.852 144.536 117.98 145.471 117.403C146.412 116.82 147.443 116.528 148.563 116.528C149.418 116.528 150.131 116.674 150.701 116.966C151.278 117.251 151.742 117.609 152.093 118.04C152.451 118.464 152.723 118.882 152.908 119.293H153.038V111.636H157.264V132H153.087V129.554H152.908C152.71 129.978 152.428 130.399 152.063 130.817C151.705 131.228 151.238 131.569 150.661 131.841C150.091 132.113 149.395 132.249 148.573 132.249ZM149.916 128.878C150.598 128.878 151.175 128.692 151.646 128.321C152.123 127.943 152.488 127.416 152.739 126.74C152.998 126.064 153.127 125.272 153.127 124.364C153.127 123.455 153.001 122.667 152.749 121.997C152.497 121.328 152.133 120.811 151.656 120.446C151.178 120.081 150.598 119.899 149.916 119.899C149.22 119.899 148.633 120.088 148.156 120.466C147.678 120.844 147.317 121.367 147.072 122.037C146.827 122.706 146.704 123.482 146.704 124.364C146.704 125.252 146.827 126.037 147.072 126.72C147.324 127.396 147.685 127.927 148.156 128.311C148.633 128.689 149.22 128.878 149.916 128.878ZM178.455 132.249C177.294 132.249 176.244 131.95 175.303 131.354C174.368 130.75 173.625 129.866 173.075 128.699C172.532 127.526 172.26 126.087 172.26 124.384C172.26 122.634 172.542 121.179 173.105 120.018C173.669 118.852 174.418 117.98 175.352 117.403C176.294 116.82 177.324 116.528 178.445 116.528C179.3 116.528 180.012 116.674 180.582 116.966C181.159 117.251 181.623 117.609 181.974 118.04C182.332 118.464 182.604 118.882 182.79 119.293H182.919V111.636H187.145V132H182.969V129.554H182.79C182.591 129.978 182.309 130.399 181.945 130.817C181.587 131.228 181.119 131.569 180.543 131.841C179.972 132.113 179.276 132.249 178.455 132.249ZM179.797 128.878C180.48 128.878 181.056 128.692 181.527 128.321C182.004 127.943 182.369 127.416 182.621 126.74C182.879 126.064 183.008 125.272 183.008 124.364C183.008 123.455 182.883 122.667 182.631 121.997C182.379 121.328 182.014 120.811 181.537 120.446C181.06 120.081 180.48 119.899 179.797 119.899C179.101 119.899 178.514 120.088 178.037 120.466C177.56 120.844 177.198 121.367 176.953 122.037C176.708 122.706 176.585 123.482 176.585 124.364C176.585 125.252 176.708 126.037 176.953 126.72C177.205 127.396 177.566 127.927 178.037 128.311C178.514 128.689 179.101 128.878 179.797 128.878ZM193.427 132V116.727H197.663V132H193.427ZM195.555 114.759C194.926 114.759 194.385 114.55 193.935 114.132C193.49 113.708 193.268 113.201 193.268 112.611C193.268 112.027 193.49 111.527 193.935 111.109C194.385 110.685 194.926 110.473 195.555 110.473C196.185 110.473 196.722 110.685 197.166 111.109C197.617 111.527 197.842 112.027 197.842 112.611C197.842 113.201 197.617 113.708 197.166 114.132C196.722 114.55 196.185 114.759 195.555 114.759ZM210.817 132.298C209.246 132.298 207.893 131.98 206.76 131.344C205.633 130.701 204.765 129.793 204.155 128.619C203.545 127.439 203.24 126.044 203.24 124.433C203.24 122.862 203.545 121.483 204.155 120.297C204.765 119.11 205.623 118.186 206.73 117.523C207.844 116.86 209.149 116.528 210.648 116.528C211.655 116.528 212.593 116.691 213.461 117.016C214.336 117.334 215.099 117.814 215.748 118.457C216.405 119.1 216.915 119.909 217.28 120.884C217.644 121.851 217.827 122.985 217.827 124.284V125.447H204.93V122.822H213.839C213.839 122.213 213.707 121.672 213.442 121.202C213.176 120.731 212.809 120.363 212.338 120.098C211.874 119.826 211.334 119.69 210.717 119.69C210.074 119.69 209.504 119.839 209.007 120.138C208.516 120.429 208.132 120.824 207.854 121.321C207.575 121.812 207.433 122.358 207.426 122.962V125.457C207.426 126.213 207.565 126.866 207.844 127.416C208.129 127.966 208.53 128.391 209.047 128.689C209.564 128.987 210.177 129.136 210.886 129.136C211.357 129.136 211.788 129.07 212.179 128.938C212.57 128.805 212.905 128.606 213.183 128.341C213.461 128.076 213.674 127.751 213.819 127.366L217.737 127.625C217.538 128.566 217.131 129.388 216.514 130.091C215.904 130.787 215.115 131.33 214.148 131.722C213.186 132.106 212.076 132.298 210.817 132.298ZM37.7963 150.186V146.636H54.5207V150.186H48.2863V167H44.0306V150.186H37.7963ZM67.7113 160.497V151.727H71.9471V167H67.8804V164.226H67.7213C67.3766 165.121 66.8032 165.84 66.0011 166.384C65.2056 166.927 64.2345 167.199 63.0878 167.199C62.0669 167.199 61.1687 166.967 60.3931 166.503C59.6176 166.039 59.011 165.379 58.5735 164.524C58.1427 163.669 57.9239 162.645 57.9173 161.452V151.727H62.1531V160.696C62.1597 161.598 62.4017 162.31 62.8789 162.834C63.3562 163.357 63.9959 163.619 64.798 163.619C65.3084 163.619 65.7857 163.503 66.2298 163.271C66.6739 163.033 67.0319 162.681 67.3037 162.217C67.5821 161.753 67.718 161.18 67.7113 160.497ZM86.2588 151.727V154.909H77.0614V151.727H86.2588ZM79.1495 148.068H83.3853V162.307C83.3853 162.698 83.4449 163.003 83.5642 163.222C83.6836 163.434 83.8493 163.583 84.0614 163.669C84.2802 163.755 84.532 163.798 84.8171 163.798C85.0159 163.798 85.2148 163.782 85.4137 163.749C85.6125 163.709 85.765 163.679 85.8711 163.659L86.5373 166.811C86.3251 166.877 86.0268 166.954 85.6424 167.04C85.2579 167.133 84.7906 167.189 84.2404 167.209C83.2195 167.249 82.3247 167.113 81.5557 166.801C80.7934 166.49 80.2001 166.006 79.7759 165.349C79.3516 164.693 79.1428 163.865 79.1495 162.864V148.068ZM98.5546 167.298C97.0101 167.298 95.6744 166.97 94.5475 166.314C93.4272 165.651 92.5622 164.73 91.9523 163.55C91.3425 162.363 91.0375 160.988 91.0375 159.423C91.0375 157.846 91.3425 156.467 91.9523 155.287C92.5622 154.1 93.4272 153.179 94.5475 152.523C95.6744 151.86 97.0101 151.528 98.5546 151.528C100.099 151.528 101.431 151.86 102.552 152.523C103.679 153.179 104.547 154.1 105.157 155.287C105.767 156.467 106.072 157.846 106.072 159.423C106.072 160.988 105.767 162.363 105.157 163.55C104.547 164.73 103.679 165.651 102.552 166.314C101.431 166.97 100.099 167.298 98.5546 167.298ZM98.5745 164.017C99.2771 164.017 99.8638 163.818 100.334 163.42C100.805 163.016 101.16 162.466 101.398 161.77C101.644 161.074 101.766 160.282 101.766 159.393C101.766 158.505 101.644 157.713 101.398 157.017C101.16 156.321 100.805 155.771 100.334 155.366C99.8638 154.962 99.2771 154.76 98.5745 154.76C97.8652 154.76 97.2686 154.962 96.7847 155.366C96.3074 155.771 95.9462 156.321 95.7009 157.017C95.4623 157.713 95.3429 158.505 95.3429 159.393C95.3429 160.282 95.4623 161.074 95.7009 161.77C95.9462 162.466 96.3074 163.016 96.7847 163.42C97.2686 163.818 97.8652 164.017 98.5745 164.017ZM111.626 167V151.727H115.732V154.392H115.892C116.17 153.444 116.637 152.728 117.294 152.244C117.95 151.754 118.705 151.509 119.561 151.509C119.773 151.509 120.001 151.522 120.247 151.548C120.492 151.575 120.707 151.611 120.893 151.658V155.416C120.694 155.357 120.419 155.304 120.068 155.257C119.716 155.211 119.395 155.188 119.103 155.188C118.48 155.188 117.923 155.323 117.433 155.595C116.949 155.86 116.564 156.232 116.279 156.709C116.001 157.186 115.862 157.736 115.862 158.359V167H111.626ZM125.883 167V151.727H130.119V167H125.883ZM128.011 149.759C127.381 149.759 126.841 149.55 126.39 149.132C125.946 148.708 125.724 148.201 125.724 147.611C125.724 147.027 125.946 146.527 126.39 146.109C126.841 145.685 127.381 145.473 128.011 145.473C128.64 145.473 129.177 145.685 129.622 146.109C130.072 146.527 130.298 147.027 130.298 147.611C130.298 148.201 130.072 148.708 129.622 149.132C129.177 149.55 128.64 149.759 128.011 149.759ZM140.667 167.288C139.693 167.288 138.824 167.119 138.062 166.781C137.3 166.437 136.696 165.929 136.252 165.26C135.815 164.584 135.596 163.742 135.596 162.734C135.596 161.886 135.752 161.173 136.063 160.597C136.375 160.02 136.799 159.556 137.336 159.205C137.873 158.853 138.483 158.588 139.166 158.409C139.855 158.23 140.577 158.104 141.333 158.031C142.221 157.938 142.937 157.852 143.481 157.773C144.024 157.687 144.419 157.561 144.664 157.395C144.909 157.229 145.032 156.984 145.032 156.659V156.599C145.032 155.97 144.833 155.482 144.435 155.138C144.044 154.793 143.487 154.621 142.765 154.621C142.003 154.621 141.396 154.79 140.945 155.128C140.495 155.459 140.196 155.877 140.05 156.381L136.133 156.062C136.332 155.134 136.723 154.332 137.306 153.656C137.889 152.973 138.642 152.45 139.563 152.085C140.491 151.714 141.565 151.528 142.785 151.528C143.633 151.528 144.445 151.628 145.221 151.827C146.003 152.026 146.696 152.334 147.299 152.751C147.909 153.169 148.389 153.706 148.741 154.362C149.092 155.012 149.268 155.791 149.268 156.699V167H145.251V164.882H145.131C144.886 165.359 144.558 165.78 144.147 166.145C143.736 166.503 143.242 166.785 142.666 166.99C142.089 167.189 141.423 167.288 140.667 167.288ZM141.88 164.365C142.503 164.365 143.053 164.242 143.531 163.997C144.008 163.745 144.382 163.407 144.654 162.983C144.926 162.559 145.062 162.078 145.062 161.541V159.92C144.929 160.007 144.747 160.086 144.515 160.159C144.29 160.225 144.034 160.288 143.749 160.348C143.464 160.401 143.179 160.451 142.894 160.497C142.609 160.537 142.351 160.573 142.119 160.607C141.621 160.679 141.187 160.795 140.816 160.955C140.445 161.114 140.157 161.329 139.951 161.601C139.746 161.866 139.643 162.197 139.643 162.595C139.643 163.172 139.852 163.613 140.269 163.918C140.693 164.216 141.23 164.365 141.88 164.365ZM159.59 146.636V167H155.354V146.636H159.59ZM170.019 158.17V167H165.783V151.727H169.82V154.422H169.999C170.337 153.534 170.904 152.831 171.699 152.314C172.495 151.79 173.459 151.528 174.593 151.528C175.653 151.528 176.578 151.76 177.367 152.224C178.156 152.688 178.769 153.351 179.206 154.213C179.644 155.068 179.862 156.089 179.862 157.276V167H175.627V158.031C175.633 157.097 175.395 156.367 174.911 155.844C174.427 155.313 173.761 155.048 172.912 155.048C172.342 155.048 171.838 155.171 171.401 155.416C170.97 155.661 170.632 156.019 170.387 156.49C170.148 156.954 170.025 157.514 170.019 158.17ZM195.795 160.497V151.727H200.031V167H195.964V164.226H195.805C195.46 165.121 194.887 165.84 194.085 166.384C193.289 166.927 192.318 167.199 191.171 167.199C190.151 167.199 189.252 166.967 188.477 166.503C187.701 166.039 187.095 165.379 186.657 164.524C186.226 163.669 186.008 162.645 186.001 161.452V151.727H190.237V160.696C190.243 161.598 190.485 162.31 190.963 162.834C191.44 163.357 192.079 163.619 192.882 163.619C193.392 163.619 193.869 163.503 194.313 163.271C194.758 163.033 195.115 162.681 195.387 162.217C195.666 161.753 195.802 161.18 195.795 160.497ZM206.219 167V151.727H210.256V154.422H210.435C210.753 153.527 211.283 152.821 212.026 152.304C212.768 151.787 213.656 151.528 214.69 151.528C215.738 151.528 216.629 151.79 217.365 152.314C218.101 152.831 218.591 153.534 218.837 154.422H218.996C219.307 153.547 219.871 152.848 220.686 152.324C221.508 151.794 222.479 151.528 223.6 151.528C225.025 151.528 226.181 151.982 227.07 152.891C227.965 153.792 228.412 155.071 228.412 156.729V167H224.186V157.564C224.186 156.715 223.961 156.079 223.51 155.655C223.059 155.231 222.496 155.018 221.82 155.018C221.051 155.018 220.451 155.264 220.02 155.754C219.589 156.238 219.374 156.878 219.374 157.673V167H215.267V157.474C215.267 156.725 215.052 156.129 214.621 155.685C214.197 155.241 213.636 155.018 212.94 155.018C212.47 155.018 212.046 155.138 211.668 155.376C211.297 155.608 211.002 155.937 210.783 156.361C210.564 156.778 210.455 157.269 210.455 157.832V167H206.219ZM234.558 167V151.727H238.595V154.422H238.774C239.092 153.527 239.622 152.821 240.365 152.304C241.107 151.787 241.995 151.528 243.03 151.528C244.077 151.528 244.968 151.79 245.704 152.314C246.44 152.831 246.931 153.534 247.176 154.422H247.335C247.646 153.547 248.21 152.848 249.025 152.324C249.847 151.794 250.818 151.528 251.939 151.528C253.364 151.528 254.521 151.982 255.409 152.891C256.304 153.792 256.751 155.071 256.751 156.729V167H252.525V157.564C252.525 156.715 252.3 156.079 251.849 155.655C251.398 155.231 250.835 155.018 250.159 155.018C249.39 155.018 248.79 155.264 248.359 155.754C247.928 156.238 247.713 156.878 247.713 157.673V167H243.606V157.474C243.606 156.725 243.391 156.129 242.96 155.685C242.536 155.241 241.976 155.018 241.28 155.018C240.809 155.018 240.385 155.138 240.007 155.376C239.636 155.608 239.341 155.937 239.122 156.361C238.903 156.778 238.794 157.269 238.794 157.832V167H234.558ZM269.857 167.298C268.286 167.298 266.934 166.98 265.8 166.344C264.674 165.701 263.805 164.793 263.195 163.619C262.585 162.439 262.281 161.044 262.281 159.433C262.281 157.862 262.585 156.483 263.195 155.297C263.805 154.11 264.664 153.186 265.771 152.523C266.884 151.86 268.19 151.528 269.688 151.528C270.696 151.528 271.634 151.691 272.502 152.016C273.377 152.334 274.139 152.814 274.789 153.457C275.445 154.1 275.956 154.909 276.32 155.884C276.685 156.851 276.867 157.985 276.867 159.284V160.447H263.971V157.822H272.88C272.88 157.213 272.747 156.672 272.482 156.202C272.217 155.731 271.849 155.363 271.379 155.098C270.915 154.826 270.374 154.69 269.758 154.69C269.115 154.69 268.545 154.839 268.048 155.138C267.557 155.429 267.173 155.824 266.894 156.321C266.616 156.812 266.473 157.358 266.467 157.962V160.457C266.467 161.213 266.606 161.866 266.884 162.416C267.169 162.966 267.57 163.391 268.087 163.689C268.604 163.987 269.218 164.136 269.927 164.136C270.397 164.136 270.828 164.07 271.219 163.938C271.611 163.805 271.945 163.606 272.224 163.341C272.502 163.076 272.714 162.751 272.86 162.366L276.778 162.625C276.579 163.566 276.171 164.388 275.555 165.091C274.945 165.787 274.156 166.33 273.188 166.722C272.227 167.106 271.117 167.298 269.857 167.298ZM282.431 167V151.727H286.538V154.392H286.697C286.975 153.444 287.443 152.728 288.099 152.244C288.755 151.754 289.511 151.509 290.366 151.509C290.578 151.509 290.807 151.522 291.052 151.548C291.297 151.575 291.513 151.611 291.698 151.658V155.416C291.5 155.357 291.224 155.304 290.873 155.257C290.522 155.211 290.2 155.188 289.909 155.188C289.286 155.188 288.729 155.323 288.238 155.595C287.754 155.86 287.37 156.232 287.085 156.709C286.806 157.186 286.667 157.736 286.667 158.359V167H282.431Z" fill="black"/>
</svg>
